<?xml version="1.0" encoding="utf-8" standalone="no"?>
<!DOCTYPE svg PUBLIC "-//W3C//DTD SVG 1.1//EN"
  "http://www.w3.org/Graphics/SVG/1.1/DTD/svg11.dtd">
<svg xmlns:xlink="http://www.w3.org/1999/xlink" width="248.410469pt" height="249.158125pt" viewBox="0 0 248.410469 249.158125" xmlns="http://www.w3.org/2000/svg" version="1.1">
 <title>Ski Rose for Les Orres</title>
 <metadata>
  <rdf:RDF xmlns:dc="http://purl.org/dc/elements/1.1/" xmlns:cc="http://creativecommons.org/ns#" xmlns:rdf="http://www.w3.org/1999/02/22-rdf-syntax-ns#">
   <cc:Work>
    <dc:type rdf:resource="http://purl.org/dc/dcmitype/StillImage"/>
    <dc:title>Ski Rose for Les Orres</dc:title>
    <dc:date>2026-03-14T10:21:22.891307</dc:date>
    <dc:description>A 32-bin stacked histogram of downhill ski run orientations colored by difficulty.</dc:description>
    <dc:format>image/svg+xml</dc:format>
    <dc:source>https://openskimap.org/?obj=1baf81db9b44d9666be0ce83407209f4df36e080</dc:source>
    <dc:creator>
     <cc:Agent>
      <dc:title>https://github.com/dhimmel/openskistats</dc:title>
     </cc:Agent>
    </dc:creator>
    <dc:rights>
     <cc:Agent>
      <dc:title>https://creativecommons.org/licenses/by/4.0/</dc:title>
     </cc:Agent>
    </dc:rights>
   </cc:Work>
  </rdf:RDF>
 </metadata>
 <defs>
  <style type="text/css">*{stroke-linejoin: round; stroke-linecap: butt}</style>
 </defs>
 <g id="figure_1">
  <g id="patch_1">
   <path d="M 0 249.158125 
L 248.410469 249.158125 
L 248.410469 0 
L 0 0 
z
" style="fill: #ffffff"/>
  </g>
  <g id="axes_1">
   <g id="patch_2">
    <path d="M 236.134844 124.579063 
C 236.134844 110.018434 233.266717 95.59939 227.694606 82.147124 
C 222.122495 68.694857 213.954763 56.470982 203.658844 46.175063 
C 193.362925 35.879144 181.139049 27.711411 167.686783 22.1393 
C 154.234516 16.567189 139.815472 13.699063 125.254844 13.699063 
C 110.694216 13.699063 96.275171 16.567189 82.822905 22.1393 
C 69.370638 27.711411 57.146763 35.879144 46.850844 46.175063 
C 36.554925 56.470982 28.387192 68.694857 22.815081 82.147124 
C 17.24297 95.59939 14.374844 110.018434 14.374844 124.579062 
C 14.374844 139.139691 17.24297 153.558735 22.815081 167.011001 
C 28.387192 180.463268 36.554925 192.687143 46.850844 202.983062 
C 57.146763 213.278981 69.370638 221.446714 82.822905 227.018825 
C 96.275171 232.590936 110.694216 235.459063 125.254844 235.459063 
C 139.815472 235.459063 154.234516 232.590936 167.686783 227.018825 
C 181.139049 221.446714 193.362925 213.278981 203.658844 202.983062 
C 213.954763 192.687143 222.122495 180.463268 227.694606 167.011001 
C 233.266717 153.558735 236.134844 139.139691 236.134844 124.579063 
M 125.254844 124.579063 
C 125.254844 124.579063 125.254844 124.579063 125.254844 124.579063 
C 125.254844 124.579063 125.254844 124.579063 125.254844 124.579063 
C 125.254844 124.579063 125.254844 124.579063 125.254844 124.579063 
C 125.254844 124.579063 125.254844 124.579063 125.254844 124.579063 
C 125.254844 124.579063 125.254844 124.579063 125.254844 124.579063 
C 125.254844 124.579063 125.254844 124.579063 125.254844 124.579063 
C 125.254844 124.579063 125.254844 124.579063 125.254844 124.579063 
C 125.254844 124.579063 125.254844 124.579063 125.254844 124.579063 
C 125.254844 124.579063 125.254844 124.579063 125.254844 124.579063 
C 125.254844 124.579063 125.254844 124.579063 125.254844 124.579063 
C 125.254844 124.579063 125.254844 124.579063 125.254844 124.579063 
C 125.254844 124.579063 125.254844 124.579063 125.254844 124.579063 
C 125.254844 124.579063 125.254844 124.579063 125.254844 124.579063 
C 125.254844 124.579063 125.254844 124.579063 125.254844 124.579063 
C 125.254844 124.579063 125.254844 124.579063 125.254844 124.579063 
C 125.254844 124.579063 125.254844 124.579063 125.254844 124.579063 
z
" style="fill: #ffffff"/>
   </g>
   <g id="FillBetweenPolyCollection_1">
    <defs>
     <path id="ma34eb0a4ea" d="M 235.337769 -137.121428 
L 235.148987 -137.099919 
L 234.182116 -135.067566 
L 233.12748 -133.068823 
L 232.003943 -131.108117 
L 231.039012 -129.197699 
L 229.815642 -127.317083 
L 228.550735 -125.480512 
L 227.465855 -123.687081 
L 226.130021 -121.937553 
L 224.762586 -120.234461 
L 223.365963 -118.578329 
L 222.159627 -116.952491 
L 220.710527 -115.387726 
L 219.454345 -113.846385 
L 217.959947 -112.374204 
L 216.660248 -110.918433 
L 215.127386 -109.539557 
L 213.7903 -108.169986 
L 212.225633 -106.884656 
L 210.857187 -105.60148 
L 209.474488 -104.359715 
L 208.07889 -103.159308 
L 206.468156 -102.056618 
L 205.0528 -100.941831 
L 203.628697 -99.867881 
L 202.197175 -98.834519 
L 200.759556 -97.841442 
L 199.317153 -96.8883 
L 198.060996 -95.899956 
L 196.610188 -95.022711 
L 195.158352 -94.184152 
L 193.706758 -93.383728 
L 192.435058 -92.535744 
L 190.984498 -91.807466 
L 189.710027 -91.025818 
L 188.26494 -90.367371 
L 186.991668 -89.650048 
L 185.718833 -88.963051 
L 184.447288 -88.305886 
L 183.022075 -87.777277 
L 181.759064 -87.179735 
L 180.499873 -86.610206 
L 179.245277 -86.068061 
L 177.996028 -85.552639 
L 176.752857 -85.063247 
L 175.650461 -84.492579 
L 174.41767 -84.052356 
L 173.192932 -83.636068 
L 171.976871 -83.242905 
L 170.888857 -82.763193 
L 169.687856 -82.413708 
L 168.608374 -81.975667 
L 167.42441 -81.667 
L 166.355214 -81.26831 
L 165.19004 -80.997443 
L 164.132685 -80.635657 
L 163.079968 -80.291532 
L 161.94364 -80.071994 
L 160.904696 -79.761055 
L 159.87124 -79.466096 
L 158.843509 -79.186587 
L 157.748042 -79.025279 
L 156.735905 -78.773833 
L 155.730036 -78.53607 
L 154.73057 -78.31144 
L 153.737621 -78.099394 
L 152.751277 -77.899381 
L 151.771601 -77.710852 
L 150.79863 -77.53326 
L 149.832377 -77.36606 
L 148.872829 -77.208712 
L 147.960281 -76.976123 
L 147.011001 -76.839532 
L 146.068318 -76.711349 
L 145.132125 -76.591061 
L 144.202289 -76.47817 
L 143.305292 -76.300947 
L 142.385119 -76.204658 
L 141.470872 -76.114464 
L 140.56233 -76.029917 
L 139.676682 -75.891752 
L 138.776675 -75.820913 
L 137.88171 -75.754593 
L 137.003226 -75.643529 
L 136.115659 -75.589089 
L 135.23232 -75.538202 
L 134.359952 -75.452295 
L 133.482628 -75.41176 
L 132.608591 -75.373994 
L 131.741019 -75.311669 
L 130.871413 -75.283069 
L 130.005968 -75.236754 
L 129.139742 -75.216755 
L 128.275076 -75.198695 
L 127.411903 -75.174294 
L 126.548816 -75.164269 
L 125.686159 -75.155201 
L 124.823535 -75.15597 
L 123.960876 -75.164436 
L 123.098154 -75.182747 
L 122.234638 -75.19914 
L 121.369994 -75.217367 
L 120.505706 -75.257382 
L 119.638376 -75.283959 
L 118.772367 -75.339764 
L 117.901272 -75.375164 
L 117.027283 -75.413099 
L 116.157096 -75.49201 
L 115.277698 -75.539823 
L 114.394425 -75.590881 
L 113.518657 -75.694325 
L 112.628514 -75.756669 
L 111.733636 -75.823162 
L 110.851134 -75.952952 
L 109.948156 -76.032452 
L 109.039723 -76.117174 
L 108.149642 -76.275463 
L 107.232153 -76.375185 
L 106.308649 -76.481345 
L 105.378952 -76.594414 
L 104.477282 -76.793942 
L 103.537675 -76.925085 
L 102.591561 -77.064503 
L 101.638852 -77.212712 
L 100.679486 -77.370239 
L 99.713424 -77.537619 
L 98.740654 -77.715391 
L 97.761189 -77.904099 
L 96.775067 -78.10429 
L 95.78235 -78.316515 
L 94.783128 -78.541322 
L 93.777513 -78.779262 
L 92.765642 -79.030882 
L 91.747679 -79.296728 
L 90.723808 -79.57734 
L 89.694239 -79.873255 
L 88.571296 -80.07836 
L 87.527454 -80.405965 
L 86.47868 -80.750582 
L 85.326001 -81.004377 
L 84.264709 -81.384473 
L 83.092474 -81.674324 
L 82.020107 -82.092405 
L 80.829941 -82.421404 
L 79.748147 -82.879858 
L 78.541909 -83.250949 
L 77.452533 -83.752032 
L 76.232301 -84.167997 
L 75.003985 -84.607724 
L 73.768233 -85.071997 
L 72.525724 -85.561567 
L 71.277163 -86.077157 
L 70.023278 -86.619459 
L 68.764822 -87.189133 
L 67.502571 -87.786807 
L 66.237322 -88.413079 
L 64.96989 -89.068511 
L 63.701111 -89.753636 
L 62.263176 -90.377377 
L 60.99123 -91.125543 
L 59.545619 -91.817652 
L 58.274408 -92.631033 
L 56.825489 -93.394009 
L 55.559039 -94.274464 
L 54.111313 -95.110447 
L 52.664534 -95.984979 
L 51.219983 -96.898562 
L 49.973302 -97.92047 
L 48.539476 -98.910459 
L 47.111665 -99.940613 
L 45.691191 -101.011235 
L 44.279381 -102.122579 
L 42.672575 -103.221836 
L 41.28035 -104.41857 
L 39.900939 -105.656557 
L 38.535696 -106.935852 
L 36.974591 -108.217285 
L 35.640526 -109.582769 
L 34.111032 -110.957529 
L 32.814161 -112.409016 
L 31.322921 -113.876872 
L 30.069356 -115.413742 
L 28.62317 -116.973985 
L 27.4192 -118.595178 
L 26.025186 -120.246602 
L 24.660147 -121.944898 
L 23.543424 -123.69144 
L 22.243033 -125.478033 
L 20.979405 -127.309611 
L 19.970212 -129.175889 
L 18.790925 -131.090675 
L 17.66467 -133.046593 
L 16.603745 -135.040973 
L 15.818433 -137.047767 
L 15.202019 -137.117998 
L 15.202019 -137.117998 
L 14.909035 -135.204155 
L 14.883336 -133.265489 
L 14.655521 -131.343607 
L 14.50736 -129.414402 
L 14.486498 -127.479634 
L 14.404308 -125.54644 
L 14.495986 -123.612485 
L 14.429486 -121.676998 
L 14.58413 -119.747075 
L 14.633139 -117.813149 
L 14.796359 -115.885791 
L 14.909949 -113.954058 
L 15.187551 -112.038479 
L 15.36584 -110.111901 
L 15.644292 -108.197656 
L 16.009736 -106.297701 
L 16.283293 -104.382379 
L 16.644624 -102.482064 
L 17.163318 -100.615748 
L 17.466696 -98.701418 
L 17.980054 -96.835915 
L 18.413578 -94.949357 
L 18.987294 -93.10118 
L 19.521239 -91.241385 
L 20.152519 -89.412316 
L 20.743798 -87.56976 
L 21.434049 -85.762058 
L 22.15437 -83.966706 
L 22.90516 -82.184436 
L 23.593655 -80.375519 
L 24.407528 -78.620293 
L 25.19058 -76.850857 
L 26.071135 -75.12789 
L 26.929972 -73.394374 
L 27.832432 -71.683009 
L 28.781116 -69.996853 
L 29.746252 -68.320203 
L 30.732212 -66.655519 
L 31.75977 -65.016132 
L 32.797574 -63.382931 
L 34.386315 -62.126853 
L 36.287892 -61.119552 
L 38.142668 -60.119444 
L 40.013986 -59.171452 
L 41.888024 -58.2661 
L 43.767863 -57.40638 
L 45.642753 -56.583913 
L 47.518017 -55.803328 
L 49.326813 -55.003841 
L 51.188001 -54.292253 
L 52.987487 -53.562128 
L 54.837494 -52.921847 
L 56.623675 -52.256901 
L 58.402905 -51.622974 
L 60.174497 -51.019112 
L 61.937823 -50.444356 
L 63.692316 -49.897745 
L 65.437463 -49.378308 
L 67.172801 -48.885071 
L 68.897921 -48.417052 
L 70.573414 -47.918525 
L 72.278919 -47.498614 
L 73.941302 -47.052758 
L 75.592336 -46.62454 
L 77.267283 -46.27048 
L 78.903626 -45.89031 
L 80.528232 -45.525044 
L 82.147514 -45.185238 
L 83.75499 -44.858585 
L 85.356866 -44.556099 
L 86.947022 -44.265044 
L 88.531433 -43.996893 
L 90.088026 -43.700919 
L 91.653877 -43.459152 
L 93.213955 -43.238527 
L 94.75069 -42.991996 
L 96.293098 -42.793616 
L 97.817536 -42.577593 
L 99.347834 -42.412525 
L 100.860465 -42.225021 
L 102.375073 -42.077275 
L 103.876795 -41.91628 
L 105.373834 -41.768699 
L 106.872533 -41.661818 
L 108.36001 -41.538304 
L 109.843539 -41.427102 
L 111.323378 -41.327903 
L 112.799801 -41.240423 
L 114.274571 -41.175612 
L 115.744628 -41.108968 
L 117.21223 -41.053321 
L 118.677697 -41.008492 
L 120.141359 -40.97433 
L 121.603551 -40.950711 
L 123.064613 -40.937536 
L 124.524891 -40.93474 
L 125.984797 -40.934669 
L 127.445078 -40.937395 
L 128.906146 -40.950499 
L 130.368345 -40.974048 
L 131.832018 -41.00814 
L 133.297498 -41.052899 
L 134.765116 -41.108477 
L 136.23519 -41.175054 
L 137.708032 -41.252835 
L 139.186383 -41.327464 
L 140.666238 -41.426622 
L 142.149783 -41.537784 
L 143.637278 -41.661259 
L 145.136084 -41.767737 
L 146.633157 -41.915257 
L 148.134914 -42.076193 
L 149.649435 -42.224302 
L 151.162091 -42.411772 
L 152.692575 -42.576329 
L 154.217056 -42.792299 
L 155.759319 -42.991136 
L 157.296083 -43.237637 
L 158.856422 -43.457677 
L 160.422077 -43.699964 
L 161.978701 -43.995912 
L 163.563436 -44.263428 
L 165.153339 -44.555062 
L 166.755584 -44.856882 
L 168.362764 -45.184151 
L 169.982462 -45.523265 
L 171.606728 -45.889178 
L 173.243535 -46.268635 
L 174.918549 -46.62266 
L 176.569171 -47.05157 
L 178.232095 -47.496684 
L 179.937669 -47.916569 
L 181.612675 -48.415825 
L 183.337837 -48.883831 
L 185.073219 -49.377058 
L 186.818408 -49.896487 
L 188.572944 -50.443093 
L 190.336312 -51.017844 
L 192.107945 -51.621705 
L 193.887217 -52.255631 
L 195.673439 -52.920579 
L 197.524288 -53.560077 
L 199.32384 -54.29021 
L 201.184241 -55.002589 
L 202.993074 -55.802086 
L 204.86928 -56.58191 
L 206.743304 -57.40516 
L 208.624116 -58.264149 
L 210.497281 -59.17024 
L 212.369538 -60.11758 
L 214.223431 -61.118386 
L 216.125007 -62.12573 
L 217.712933 -63.382388 
L 218.760223 -65.009566 
L 219.785113 -66.650839 
L 220.785841 -68.307005 
L 221.745576 -69.987233 
L 222.674954 -71.684258 
L 223.524013 -73.423371 
L 224.444821 -75.124764 
L 225.296896 -76.861451 
L 226.107298 -78.617951 
L 226.845165 -80.406334 
L 227.668967 -82.157744 
L 228.307374 -83.985591 
L 229.061181 -85.767463 
L 229.767876 -87.569057 
L 230.351326 -89.414271 
L 230.956179 -91.25156 
L 231.514805 -93.103428 
L 232.027511 -94.968381 
L 232.601905 -96.817225 
L 233.030893 -98.704322 
L 233.475879 -100.587037 
L 233.810781 -102.493107 
L 234.2341 -104.380951 
L 234.536059 -106.291659 
L 234.885072 -108.194715 
L 235.05516 -110.123577 
L 235.372162 -112.032779 
L 235.612918 -113.952789 
L 235.700819 -115.886776 
L 235.869594 -117.813575 
L 236.003781 -119.743659 
L 235.97542 -121.679742 
L 236.069132 -123.612001 
L 236.127556 -125.546634 
L 235.96138 -127.478015 
L 235.922899 -129.410934 
L 235.87997 -131.345185 
L 235.774482 -133.277147 
L 235.508241 -135.195257 
L 235.337769 -137.121428 
z
" style="stroke: #ffee9c"/>
    </defs>
    <g clip-path="url(#p984ce342e6)">
     <use xlink:href="#ma34eb0a4ea" x="0" y="249.158125" style="fill: #ffee9c; stroke: #ffee9c"/>
    </g>
   </g>
   <g id="matplotlib.axis_1">
    <g id="xtick_1">
     <g id="line2d_1">
      <path d="M 125.254844 124.579063 
L 125.254844 13.699063 
" clip-path="url(#p984ce342e6)" style="fill: none; stroke: #b0b0b0; stroke-width: 0.8; stroke-linecap: square"/>
     </g>
     <g id="text_1">
      <!-- N -->
      <g transform="translate(121.070469 7.958438) scale(0.1 -0.1)">
       <defs>
        <path id="DejaVuSans-Bold-4e" d="M 588 4666 
L 1931 4666 
L 3628 1466 
L 3628 4666 
L 4769 4666 
L 4769 0 
L 3425 0 
L 1728 3200 
L 1728 0 
L 588 0 
L 588 4666 
z
" transform="scale(0.015625)"/>
       </defs>
       <use xlink:href="#DejaVuSans-Bold-4e"/>
      </g>
     </g>
    </g>
    <g id="xtick_2">
     <g id="line2d_2">
      <path d="M 125.254844 124.579063 
L 203.658844 46.175063 
" clip-path="url(#p984ce342e6)" style="fill: none; stroke: #b0b0b0; stroke-width: 0.8; stroke-linecap: square"/>
     </g>
    </g>
    <g id="xtick_3">
     <g id="line2d_3">
      <path d="M 125.254844 124.579063 
L 236.134844 124.579063 
" clip-path="url(#p984ce342e6)" style="fill: none; stroke: #b0b0b0; stroke-width: 0.8; stroke-linecap: square"/>
     </g>
     <g id="text_2">
      <!-- E -->
      <g transform="translate(241.219219 127.338438) scale(0.1 -0.1)">
       <defs>
        <path id="DejaVuSans-Bold-45" d="M 588 4666 
L 3834 4666 
L 3834 3756 
L 1791 3756 
L 1791 2888 
L 3713 2888 
L 3713 1978 
L 1791 1978 
L 1791 909 
L 3903 909 
L 3903 0 
L 588 0 
L 588 4666 
z
" transform="scale(0.015625)"/>
       </defs>
       <use xlink:href="#DejaVuSans-Bold-45"/>
      </g>
     </g>
    </g>
    <g id="xtick_4">
     <g id="line2d_4">
      <path d="M 125.254844 124.579063 
L 203.658844 202.983062 
" clip-path="url(#p984ce342e6)" style="fill: none; stroke: #b0b0b0; stroke-width: 0.8; stroke-linecap: square"/>
     </g>
    </g>
    <g id="xtick_5">
     <g id="line2d_5">
      <path d="M 125.254844 124.579063 
L 125.254844 235.459063 
" clip-path="url(#p984ce342e6)" style="fill: none; stroke: #b0b0b0; stroke-width: 0.8; stroke-linecap: square"/>
     </g>
     <g id="text_3">
      <!-- S -->
      <g transform="translate(121.654062 246.718438) scale(0.1 -0.1)">
       <defs>
        <path id="DejaVuSans-Bold-53" d="M 3834 4519 
L 3834 3531 
Q 3450 3703 3084 3790 
Q 2719 3878 2394 3878 
Q 1963 3878 1756 3759 
Q 1550 3641 1550 3391 
Q 1550 3203 1689 3098 
Q 1828 2994 2194 2919 
L 2706 2816 
Q 3484 2659 3812 2340 
Q 4141 2022 4141 1434 
Q 4141 663 3683 286 
Q 3225 -91 2284 -91 
Q 1841 -91 1394 -6 
Q 947 78 500 244 
L 500 1259 
Q 947 1022 1364 901 
Q 1781 781 2169 781 
Q 2563 781 2772 912 
Q 2981 1044 2981 1288 
Q 2981 1506 2839 1625 
Q 2697 1744 2272 1838 
L 1806 1941 
Q 1106 2091 782 2419 
Q 459 2747 459 3303 
Q 459 4000 909 4375 
Q 1359 4750 2203 4750 
Q 2588 4750 2994 4692 
Q 3400 4634 3834 4519 
z
" transform="scale(0.015625)"/>
       </defs>
       <use xlink:href="#DejaVuSans-Bold-53"/>
      </g>
     </g>
    </g>
    <g id="xtick_6">
     <g id="line2d_6">
      <path d="M 125.254844 124.579063 
L 46.850844 202.983062 
" clip-path="url(#p984ce342e6)" style="fill: none; stroke: #b0b0b0; stroke-width: 0.8; stroke-linecap: square"/>
     </g>
    </g>
    <g id="xtick_7">
     <g id="line2d_7">
      <path d="M 125.254844 124.579063 
L 14.374844 124.579063 
" clip-path="url(#p984ce342e6)" style="fill: none; stroke: #b0b0b0; stroke-width: 0.8; stroke-linecap: square"/>
     </g>
     <g id="text_4">
      <!-- W -->
      <g transform="translate(0.36 127.338438) scale(0.1 -0.1)">
       <defs>
        <path id="DejaVuSans-Bold-57" d="M 191 4666 
L 1344 4666 
L 2150 1275 
L 2950 4666 
L 4109 4666 
L 4909 1275 
L 5716 4666 
L 6859 4666 
L 5759 0 
L 4372 0 
L 3525 3547 
L 2688 0 
L 1300 0 
L 191 4666 
z
" transform="scale(0.015625)"/>
       </defs>
       <use xlink:href="#DejaVuSans-Bold-57"/>
      </g>
     </g>
    </g>
    <g id="xtick_8">
     <g id="line2d_8">
      <path d="M 125.254844 124.579063 
L 46.850844 46.175063 
" clip-path="url(#p984ce342e6)" style="fill: none; stroke: #b0b0b0; stroke-width: 0.8; stroke-linecap: square"/>
     </g>
    </g>
   </g>
   <g id="matplotlib.axis_2"/>
   <g id="patch_3">
    <path d="M 125.254844 124.579063 
C 125.254844 124.579063 125.254844 124.579063 125.254844 124.579063 
C 125.254844 124.579063 125.254844 124.579063 125.254844 124.579063 
L 125.254844 124.579063 
C 125.254844 124.579063 125.254844 124.579063 125.254844 124.579063 
C 125.254844 124.579063 125.254844 124.579063 125.254844 124.579063 
z
" clip-path="url(#p984ce342e6)" style="fill: #d9d9d9"/>
   </g>
   <g id="patch_4">
    <path d="M 125.254844 124.579063 
C 125.254844 124.579063 125.254844 124.579063 125.254844 124.579063 
C 125.254844 124.579063 125.254844 124.579063 125.254844 124.579063 
L 125.254844 124.579063 
C 125.254844 124.579063 125.254844 124.579063 125.254844 124.579063 
C 125.254844 124.579063 125.254844 124.579063 125.254844 124.579063 
z
" clip-path="url(#p984ce342e6)" style="fill: #d9d9d9"/>
   </g>
   <g id="patch_5">
    <path d="M 125.254844 124.579063 
C 125.254844 124.579063 125.254844 124.579063 125.254844 124.579063 
C 125.254844 124.579063 125.254844 124.579063 125.254844 124.579063 
L 125.254844 124.579063 
C 125.254844 124.579063 125.254844 124.579063 125.254844 124.579063 
C 125.254844 124.579063 125.254844 124.579063 125.254844 124.579063 
z
" clip-path="url(#p984ce342e6)" style="fill: #d9d9d9"/>
   </g>
   <g id="patch_6">
    <path d="M 125.254844 124.579063 
C 125.254844 124.579063 125.254844 124.579063 125.254844 124.579063 
C 125.254844 124.579063 125.254844 124.579063 125.254844 124.579063 
L 125.254844 124.579063 
C 125.254844 124.579063 125.254844 124.579063 125.254844 124.579063 
C 125.254844 124.579063 125.254844 124.579063 125.254844 124.579063 
z
" clip-path="url(#p984ce342e6)" style="fill: #d9d9d9"/>
   </g>
   <g id="patch_7">
    <path d="M 125.254844 124.579063 
C 125.254844 124.579063 125.254844 124.579063 125.254844 124.579063 
C 125.254844 124.579063 125.254844 124.579063 125.254844 124.579063 
L 125.254844 124.579063 
C 125.254844 124.579063 125.254844 124.579063 125.254844 124.579063 
C 125.254844 124.579063 125.254844 124.579063 125.254844 124.579063 
z
" clip-path="url(#p984ce342e6)" style="fill: #d9d9d9"/>
   </g>
   <g id="patch_8">
    <path d="M 125.254844 124.579063 
C 125.254844 124.579063 125.254844 124.579063 125.254844 124.579063 
C 125.254844 124.579063 125.254844 124.579063 125.254844 124.579063 
L 125.254844 124.579063 
C 125.254844 124.579063 125.254844 124.579063 125.254844 124.579063 
C 125.254844 124.579063 125.254844 124.579063 125.254844 124.579063 
z
" clip-path="url(#p984ce342e6)" style="fill: #d9d9d9"/>
   </g>
   <g id="patch_9">
    <path d="M 125.254844 124.579063 
C 125.254844 124.579063 125.254844 124.579063 125.254844 124.579063 
C 125.254844 124.579063 125.254844 124.579063 125.254844 124.579063 
L 125.254844 124.579063 
C 125.254844 124.579063 125.254844 124.579063 125.254844 124.579063 
C 125.254844 124.579063 125.254844 124.579063 125.254844 124.579063 
z
" clip-path="url(#p984ce342e6)" style="fill: #d9d9d9"/>
   </g>
   <g id="patch_10">
    <path d="M 125.254844 124.579063 
C 125.254844 124.579063 125.254844 124.579063 125.254844 124.579063 
C 125.254844 124.579063 125.254844 124.579063 125.254844 124.579063 
L 125.254844 124.579063 
C 125.254844 124.579063 125.254844 124.579063 125.254844 124.579063 
C 125.254844 124.579063 125.254844 124.579063 125.254844 124.579063 
z
" clip-path="url(#p984ce342e6)" style="fill: #d9d9d9"/>
   </g>
   <g id="patch_11">
    <path d="M 125.254844 124.579063 
C 125.254844 124.579063 125.254844 124.579063 125.254844 124.579063 
C 125.254844 124.579063 125.254844 124.579063 125.254844 124.579063 
L 125.254844 124.579063 
C 125.254844 124.579063 125.254844 124.579063 125.254844 124.579063 
C 125.254844 124.579063 125.254844 124.579063 125.254844 124.579063 
z
" clip-path="url(#p984ce342e6)" style="fill: #d9d9d9"/>
   </g>
   <g id="patch_12">
    <path d="M 125.254844 124.579063 
C 125.254844 124.579063 125.254844 124.579063 125.254844 124.579063 
C 125.254844 124.579063 125.254844 124.579063 125.254844 124.579063 
L 125.254844 124.579063 
C 125.254844 124.579063 125.254844 124.579063 125.254844 124.579063 
C 125.254844 124.579063 125.254844 124.579063 125.254844 124.579063 
z
" clip-path="url(#p984ce342e6)" style="fill: #d9d9d9"/>
   </g>
   <g id="patch_13">
    <path d="M 125.254844 124.579063 
C 125.254844 124.579063 125.254844 124.579063 125.254844 124.579063 
C 125.254844 124.579063 125.254844 124.579063 125.254844 124.579063 
L 125.254844 124.579063 
C 125.254844 124.579063 125.254844 124.579063 125.254844 124.579063 
C 125.254844 124.579063 125.254844 124.579063 125.254844 124.579063 
z
" clip-path="url(#p984ce342e6)" style="fill: #d9d9d9"/>
   </g>
   <g id="patch_14">
    <path d="M 125.254844 124.579063 
C 125.254844 124.579063 125.254844 124.579063 125.254844 124.579063 
C 125.254844 124.579063 125.254844 124.579063 125.254844 124.579063 
L 125.254844 124.579063 
C 125.254844 124.579063 125.254844 124.579063 125.254844 124.579063 
C 125.254844 124.579063 125.254844 124.579063 125.254844 124.579063 
z
" clip-path="url(#p984ce342e6)" style="fill: #d9d9d9"/>
   </g>
   <g id="patch_15">
    <path d="M 125.254844 124.579063 
C 125.254844 124.579063 125.254844 124.579063 125.254844 124.579063 
C 125.254844 124.579063 125.254844 124.579063 125.254844 124.579063 
L 125.254844 124.579063 
C 125.254844 124.579063 125.254844 124.579063 125.254844 124.579063 
C 125.254844 124.579063 125.254844 124.579063 125.254844 124.579063 
z
" clip-path="url(#p984ce342e6)" style="fill: #d9d9d9"/>
   </g>
   <g id="patch_16">
    <path d="M 125.254844 124.579063 
C 125.254844 124.579063 125.254844 124.579063 125.254844 124.579063 
C 125.254844 124.579063 125.254844 124.579063 125.254844 124.579063 
L 125.254844 124.579063 
C 125.254844 124.579063 125.254844 124.579063 125.254844 124.579063 
C 125.254844 124.579063 125.254844 124.579063 125.254844 124.579063 
z
" clip-path="url(#p984ce342e6)" style="fill: #d9d9d9"/>
   </g>
   <g id="patch_17">
    <path d="M 125.254844 124.579063 
C 125.254844 124.579063 125.254844 124.579063 125.254844 124.579063 
C 125.254844 124.579063 125.254844 124.579063 125.254844 124.579063 
L 125.254844 124.579063 
C 125.254844 124.579063 125.254844 124.579063 125.254844 124.579063 
C 125.254844 124.579063 125.254844 124.579063 125.254844 124.579063 
z
" clip-path="url(#p984ce342e6)" style="fill: #d9d9d9"/>
   </g>
   <g id="patch_18">
    <path d="M 125.254844 124.579063 
C 125.254844 124.579063 125.254844 124.579063 125.254844 124.579063 
C 125.254844 124.579063 125.254844 124.579063 125.254844 124.579063 
L 125.254844 124.579063 
C 125.254844 124.579063 125.254844 124.579063 125.254844 124.579063 
C 125.254844 124.579063 125.254844 124.579063 125.254844 124.579063 
z
" clip-path="url(#p984ce342e6)" style="fill: #d9d9d9"/>
   </g>
   <g id="patch_19">
    <path d="M 125.254844 124.579063 
C 125.254844 124.579063 125.254844 124.579063 125.254844 124.579063 
C 125.254844 124.579063 125.254844 124.579063 125.254844 124.579063 
L 125.254844 124.579063 
C 125.254844 124.579063 125.254844 124.579063 125.254844 124.579063 
C 125.254844 124.579063 125.254844 124.579063 125.254844 124.579063 
z
" clip-path="url(#p984ce342e6)" style="fill: #d9d9d9"/>
   </g>
   <g id="patch_20">
    <path d="M 125.254844 124.579063 
C 125.254844 124.579063 125.254844 124.579063 125.254844 124.579063 
C 125.254844 124.579063 125.254844 124.579063 125.254844 124.579063 
L 125.254844 124.579063 
C 125.254844 124.579063 125.254844 124.579063 125.254844 124.579063 
C 125.254844 124.579063 125.254844 124.579063 125.254844 124.579063 
z
" clip-path="url(#p984ce342e6)" style="fill: #d9d9d9"/>
   </g>
   <g id="patch_21">
    <path d="M 125.254844 124.579063 
C 125.254844 124.579063 125.254844 124.579063 125.254844 124.579063 
C 125.254844 124.579063 125.254844 124.579063 125.254844 124.579063 
L 125.254844 124.579063 
C 125.254844 124.579063 125.254844 124.579063 125.254844 124.579063 
C 125.254844 124.579063 125.254844 124.579063 125.254844 124.579063 
z
" clip-path="url(#p984ce342e6)" style="fill: #d9d9d9"/>
   </g>
   <g id="patch_22">
    <path d="M 125.254844 124.579063 
C 125.254844 124.579063 125.254844 124.579063 125.254844 124.579063 
C 125.254844 124.579063 125.254844 124.579063 125.254844 124.579063 
L 125.254844 124.579063 
C 125.254844 124.579063 125.254844 124.579063 125.254844 124.579063 
C 125.254844 124.579063 125.254844 124.579063 125.254844 124.579063 
z
" clip-path="url(#p984ce342e6)" style="fill: #d9d9d9"/>
   </g>
   <g id="patch_23">
    <path d="M 125.254844 124.579063 
C 125.254844 124.579063 125.254844 124.579063 125.254844 124.579063 
C 125.254844 124.579063 125.254844 124.579063 125.254844 124.579063 
L 125.254844 124.579063 
C 125.254844 124.579063 125.254844 124.579063 125.254844 124.579063 
C 125.254844 124.579063 125.254844 124.579063 125.254844 124.579063 
z
" clip-path="url(#p984ce342e6)" style="fill: #d9d9d9"/>
   </g>
   <g id="patch_24">
    <path d="M 125.254844 124.579063 
C 125.254844 124.579063 125.254844 124.579063 125.254844 124.579063 
C 125.254844 124.579063 125.254844 124.579063 125.254844 124.579063 
L 125.254844 124.579063 
C 125.254844 124.579063 125.254844 124.579063 125.254844 124.579063 
C 125.254844 124.579063 125.254844 124.579063 125.254844 124.579063 
z
" clip-path="url(#p984ce342e6)" style="fill: #d9d9d9"/>
   </g>
   <g id="patch_25">
    <path d="M 125.254844 124.579063 
C 125.254844 124.579063 125.254844 124.579063 125.254844 124.579063 
C 125.254844 124.579063 125.254844 124.579063 125.254844 124.579063 
L 125.254844 124.579063 
C 125.254844 124.579063 125.254844 124.579063 125.254844 124.579063 
C 125.254844 124.579063 125.254844 124.579063 125.254844 124.579063 
z
" clip-path="url(#p984ce342e6)" style="fill: #d9d9d9"/>
   </g>
   <g id="patch_26">
    <path d="M 125.254844 124.579063 
C 125.254844 124.579063 125.254844 124.579063 125.254844 124.579063 
C 125.254844 124.579063 125.254844 124.579063 125.254844 124.579063 
L 125.254844 124.579063 
C 125.254844 124.579063 125.254844 124.579063 125.254844 124.579063 
C 125.254844 124.579063 125.254844 124.579063 125.254844 124.579063 
z
" clip-path="url(#p984ce342e6)" style="fill: #d9d9d9"/>
   </g>
   <g id="patch_27">
    <path d="M 125.254844 124.579063 
C 125.254844 124.579063 125.254844 124.579063 125.254844 124.579063 
C 125.254844 124.579063 125.254844 124.579063 125.254844 124.579063 
L 125.254844 124.579063 
C 125.254844 124.579063 125.254844 124.579063 125.254844 124.579063 
C 125.254844 124.579063 125.254844 124.579063 125.254844 124.579063 
z
" clip-path="url(#p984ce342e6)" style="fill: #d9d9d9"/>
   </g>
   <g id="patch_28">
    <path d="M 125.254844 124.579063 
C 125.254844 124.579063 125.254844 124.579063 125.254844 124.579063 
C 125.254844 124.579063 125.254844 124.579063 125.254844 124.579063 
L 125.254844 124.579063 
C 125.254844 124.579063 125.254844 124.579063 125.254844 124.579063 
C 125.254844 124.579063 125.254844 124.579063 125.254844 124.579063 
z
" clip-path="url(#p984ce342e6)" style="fill: #d9d9d9"/>
   </g>
   <g id="patch_29">
    <path d="M 125.254844 124.579063 
C 125.254844 124.579063 125.254844 124.579063 125.254844 124.579063 
C 125.254844 124.579063 125.254844 124.579063 125.254844 124.579063 
L 125.254844 124.579063 
C 125.254844 124.579063 125.254844 124.579063 125.254844 124.579063 
C 125.254844 124.579063 125.254844 124.579063 125.254844 124.579063 
z
" clip-path="url(#p984ce342e6)" style="fill: #d9d9d9"/>
   </g>
   <g id="patch_30">
    <path d="M 125.254844 124.579063 
C 125.254844 124.579063 125.254844 124.579063 125.254844 124.579063 
C 125.254844 124.579063 125.254844 124.579063 125.254844 124.579063 
L 125.254844 124.579063 
C 125.254844 124.579063 125.254844 124.579063 125.254844 124.579063 
C 125.254844 124.579063 125.254844 124.579063 125.254844 124.579063 
z
" clip-path="url(#p984ce342e6)" style="fill: #d9d9d9"/>
   </g>
   <g id="patch_31">
    <path d="M 125.254844 124.579063 
C 125.254844 124.579063 125.254844 124.579063 125.254844 124.579063 
C 125.254844 124.579063 125.254844 124.579063 125.254844 124.579063 
L 125.254844 124.579063 
C 125.254844 124.579063 125.254844 124.579063 125.254844 124.579063 
C 125.254844 124.579063 125.254844 124.579063 125.254844 124.579063 
z
" clip-path="url(#p984ce342e6)" style="fill: #d9d9d9"/>
   </g>
   <g id="patch_32">
    <path d="M 125.254844 124.579063 
C 125.254844 124.579063 125.254844 124.579063 125.254844 124.579063 
C 125.254844 124.579063 125.254844 124.579063 125.254844 124.579063 
L 125.254844 124.579063 
C 125.254844 124.579063 125.254844 124.579063 125.254844 124.579063 
C 125.254844 124.579063 125.254844 124.579063 125.254844 124.579063 
z
" clip-path="url(#p984ce342e6)" style="fill: #d9d9d9"/>
   </g>
   <g id="patch_33">
    <path d="M 125.254844 124.579063 
C 125.254844 124.579063 125.254844 124.579063 125.254844 124.579063 
C 125.254844 124.579063 125.254844 124.579063 125.254844 124.579063 
L 125.254844 124.579063 
C 125.254844 124.579063 125.254844 124.579063 125.254844 124.579063 
C 125.254844 124.579063 125.254844 124.579063 125.254844 124.579063 
z
" clip-path="url(#p984ce342e6)" style="fill: #d9d9d9"/>
   </g>
   <g id="patch_34">
    <path d="M 125.254844 124.579063 
C 125.254844 124.579063 125.254844 124.579063 125.254844 124.579063 
C 125.254844 124.579063 125.254844 124.579063 125.254844 124.579063 
L 125.254844 124.579063 
C 125.254844 124.579063 125.254844 124.579063 125.254844 124.579063 
C 125.254844 124.579063 125.254844 124.579063 125.254844 124.579063 
z
" clip-path="url(#p984ce342e6)" style="fill: #d9d9d9"/>
   </g>
   <g id="patch_35">
    <path d="M 125.254844 124.579063 
C 125.254844 124.579063 125.254844 124.579063 125.254844 124.579063 
C 125.254844 124.579063 125.254844 124.579063 125.254844 124.579063 
L 130.389967 72.441285 
C 128.683419 72.273204 126.969648 72.189012 125.254844 72.189012 
C 123.540039 72.189012 121.826268 72.273204 120.119721 72.441285 
z
" clip-path="url(#p984ce342e6)" style="fill: #a1a1d8"/>
   </g>
   <g id="patch_36">
    <path d="M 125.254844 124.579063 
C 125.254844 124.579063 125.254844 124.579063 125.254844 124.579063 
C 125.254844 124.579063 125.254844 124.579063 125.254844 124.579063 
L 135.525003 90.722885 
C 134.41684 90.386727 133.29284 90.10518 132.157064 89.87926 
C 131.021287 89.65334 129.875103 89.483319 128.722652 89.369813 
z
" clip-path="url(#p984ce342e6)" style="fill: #a1a1d8"/>
   </g>
   <g id="patch_37">
    <path d="M 125.254844 124.579063 
C 125.254844 124.579063 125.254844 124.579063 125.254844 124.579063 
C 125.254844 124.579063 125.254844 124.579063 125.254844 124.579063 
L 143.104761 91.184217 
C 142.011698 90.599962 140.890608 90.069726 139.745541 89.595424 
C 138.600474 89.121122 137.432811 88.703325 136.246768 88.343543 
z
" clip-path="url(#p984ce342e6)" style="fill: #a1a1d8"/>
   </g>
   <g id="patch_38">
    <path d="M 125.254844 124.579063 
C 125.254844 124.579063 125.254844 124.579063 125.254844 124.579063 
C 125.254844 124.579063 125.254844 124.579063 125.254844 124.579063 
L 145.54007 99.861443 
C 144.731025 99.197477 143.88987 98.573633 143.019641 97.992165 
C 142.149412 97.410697 141.251159 96.872305 140.328127 96.378934 
z
" clip-path="url(#p984ce342e6)" style="fill: #a1a1d8"/>
   </g>
   <g id="patch_39">
    <path d="M 125.254844 124.579063 
C 125.254844 124.579063 125.254844 124.579063 125.254844 124.579063 
C 125.254844 124.579063 125.254844 124.579063 125.254844 124.579063 
L 138.298653 113.874285 
C 137.94827 113.447342 137.577136 113.037858 137.186592 112.647314 
C 136.796048 112.25677 136.386565 111.885637 135.959621 111.535253 
z
" clip-path="url(#p984ce342e6)" style="fill: #a1a1d8"/>
   </g>
   <g id="patch_40">
    <path d="M 125.254844 124.579063 
C 125.254844 124.579063 125.254844 124.579063 125.254844 124.579063 
C 125.254844 124.579063 125.254844 124.579063 125.254844 124.579063 
L 134.504956 119.634774 
C 134.343122 119.332004 134.166521 119.037363 133.975789 118.751913 
C 133.785058 118.466463 133.580427 118.19055 133.362635 117.92517 
z
" clip-path="url(#p984ce342e6)" style="fill: #a1a1d8"/>
   </g>
   <g id="patch_41">
    <path d="M 125.254844 124.579063 
C 125.254844 124.579063 125.254844 124.579063 125.254844 124.579063 
C 125.254844 124.579063 125.254844 124.579063 125.254844 124.579063 
L 134.316643 121.830196 
C 134.226669 121.533589 134.122186 121.24158 134.003572 120.955221 
C 133.884958 120.668862 133.752357 120.388499 133.606246 120.115145 
z
" clip-path="url(#p984ce342e6)" style="fill: #a1a1d8"/>
   </g>
   <g id="patch_42">
    <path d="M 125.254844 124.579063 
C 125.254844 124.579063 125.254844 124.579063 125.254844 124.579063 
C 125.254844 124.579063 125.254844 124.579063 125.254844 124.579063 
L 131.381723 123.975618 
C 131.361972 123.775076 131.332386 123.575624 131.293073 123.377984 
C 131.25376 123.180344 131.204767 122.984753 131.146271 122.791918 
z
" clip-path="url(#p984ce342e6)" style="fill: #a1a1d8"/>
   </g>
   <g id="patch_43">
    <path d="M 125.254844 124.579063 
C 125.254844 124.579063 125.254844 124.579063 125.254844 124.579063 
C 125.254844 124.579063 125.254844 124.579063 125.254844 124.579063 
L 132.286284 125.271599 
C 132.308952 125.041449 132.320306 124.810326 132.320306 124.579063 
C 132.320306 124.347799 132.308952 124.116676 132.286284 123.886526 
z
" clip-path="url(#p984ce342e6)" style="fill: #a1a1d8"/>
   </g>
   <g id="patch_44">
    <path d="M 125.254844 124.579063 
C 125.254844 124.579063 125.254844 124.579063 125.254844 124.579063 
C 125.254844 124.579063 125.254844 124.579063 125.254844 124.579063 
L 130.294364 126.107784 
C 130.344402 125.942833 130.38631 125.775525 130.419938 125.606464 
C 130.453567 125.437402 130.478874 125.266792 130.49577 125.095249 
z
" clip-path="url(#p984ce342e6)" style="fill: #a1a1d8"/>
   </g>
   <g id="patch_45">
    <path d="M 125.254844 124.579063 
C 125.254844 124.579063 125.254844 124.579063 125.254844 124.579063 
C 125.254844 124.579063 125.254844 124.579063 125.254844 124.579063 
L 133.026493 128.733095 
C 133.16246 128.478718 133.285857 128.217818 133.396236 127.951338 
C 133.506616 127.684858 133.603846 127.413119 133.687574 127.137103 
z
" clip-path="url(#p984ce342e6)" style="fill: #a1a1d8"/>
   </g>
   <g id="patch_46">
    <path d="M 125.254844 124.579063 
C 125.254844 124.579063 125.254844 124.579063 125.254844 124.579063 
C 125.254844 124.579063 125.254844 124.579063 125.254844 124.579063 
L 125.254844 124.579063 
C 125.254844 124.579063 125.254844 124.579063 125.254844 124.579063 
C 125.254844 124.579063 125.254844 124.579063 125.254844 124.579063 
z
" clip-path="url(#p984ce342e6)" style="fill: #a1a1d8"/>
   </g>
   <g id="patch_47">
    <path d="M 125.254844 124.579063 
C 125.254844 124.579063 125.254844 124.579063 125.254844 124.579063 
C 125.254844 124.579063 125.254844 124.579063 125.254844 124.579063 
L 125.254844 124.579063 
C 125.254844 124.579063 125.254844 124.579063 125.254844 124.579063 
C 125.254844 124.579063 125.254844 124.579063 125.254844 124.579063 
z
" clip-path="url(#p984ce342e6)" style="fill: #a1a1d8"/>
   </g>
   <g id="patch_48">
    <path d="M 125.254844 124.579063 
C 125.254844 124.579063 125.254844 124.579063 125.254844 124.579063 
C 125.254844 124.579063 125.254844 124.579063 125.254844 124.579063 
L 125.254844 124.579063 
C 125.254844 124.579063 125.254844 124.579063 125.254844 124.579063 
C 125.254844 124.579063 125.254844 124.579063 125.254844 124.579063 
z
" clip-path="url(#p984ce342e6)" style="fill: #a1a1d8"/>
   </g>
   <g id="patch_49">
    <path d="M 125.254844 124.579063 
C 125.254844 124.579063 125.254844 124.579063 125.254844 124.579063 
C 125.254844 124.579063 125.254844 124.579063 125.254844 124.579063 
L 128.286702 134.573758 
C 128.613843 134.474521 128.935915 134.359282 129.251754 134.228457 
C 129.567593 134.097632 129.876818 133.951379 130.178314 133.790227 
z
" clip-path="url(#p984ce342e6)" style="fill: #a1a1d8"/>
   </g>
   <g id="patch_50">
    <path d="M 125.254844 124.579063 
C 125.254844 124.579063 125.254844 124.579063 125.254844 124.579063 
C 125.254844 124.579063 125.254844 124.579063 125.254844 124.579063 
L 125.940938 131.545093 
C 126.168946 131.522636 126.395715 131.488998 126.620425 131.444301 
C 126.845134 131.399603 127.067514 131.3439 127.28676 131.277392 
z
" clip-path="url(#p984ce342e6)" style="fill: #a1a1d8"/>
   </g>
   <g id="patch_51">
    <path d="M 125.254844 124.579063 
C 125.254844 124.579063 125.254844 124.579063 125.254844 124.579063 
C 125.254844 124.579063 125.254844 124.579063 125.254844 124.579063 
L 123.164449 145.803196 
C 123.859147 145.871618 124.556785 145.905891 125.254844 145.905891 
C 125.952903 145.905891 126.650541 145.871618 127.345238 145.803196 
z
" clip-path="url(#p984ce342e6)" style="fill: #a1a1d8"/>
   </g>
   <g id="patch_52">
    <path d="M 125.254844 124.579063 
C 125.254844 124.579063 125.254844 124.579063 125.254844 124.579063 
C 125.254844 124.579063 125.254844 124.579063 125.254844 124.579063 
L 118.585457 146.565085 
C 119.305092 146.783384 120.035012 146.966219 120.772579 147.11293 
C 121.510146 147.259641 122.254472 147.370052 123.002867 147.443762 
z
" clip-path="url(#p984ce342e6)" style="fill: #a1a1d8"/>
   </g>
   <g id="patch_53">
    <path d="M 125.254844 124.579063 
C 125.254844 124.579063 125.254844 124.579063 125.254844 124.579063 
C 125.254844 124.579063 125.254844 124.579063 125.254844 124.579063 
L 112.523659 148.397434 
C 113.30327 148.814144 114.10287 149.192327 114.919572 149.530616 
C 115.736273 149.868905 116.569092 150.166892 117.415019 150.423501 
z
" clip-path="url(#p984ce342e6)" style="fill: #a1a1d8"/>
   </g>
   <g id="patch_54">
    <path d="M 125.254844 124.579063 
C 125.254844 124.579063 125.254844 124.579063 125.254844 124.579063 
C 125.254844 124.579063 125.254844 124.579063 125.254844 124.579063 
L 104.723507 149.596569 
C 105.542367 150.26859 106.393728 150.900003 107.274515 151.488526 
C 108.155302 152.077049 109.064453 152.621973 109.998684 153.12133 
z
" clip-path="url(#p984ce342e6)" style="fill: #a1a1d8"/>
   </g>
   <g id="patch_55">
    <path d="M 125.254844 124.579063 
C 125.254844 124.579063 125.254844 124.579063 125.254844 124.579063 
C 125.254844 124.579063 125.254844 124.579063 125.254844 124.579063 
L 102.226393 143.478024 
C 102.844984 144.231779 103.50021 144.954709 104.189703 145.644203 
C 104.879197 146.333696 105.602127 146.988922 106.355883 147.607513 
z
" clip-path="url(#p984ce342e6)" style="fill: #a1a1d8"/>
   </g>
   <g id="patch_56">
    <path d="M 125.254844 124.579063 
C 125.254844 124.579063 125.254844 124.579063 125.254844 124.579063 
C 125.254844 124.579063 125.254844 124.579063 125.254844 124.579063 
L 105.825722 134.964144 
C 106.165641 135.600089 106.536579 136.21896 106.937195 136.818524 
C 107.33781 137.418088 107.767622 137.997622 108.225076 138.555032 
z
" clip-path="url(#p984ce342e6)" style="fill: #a1a1d8"/>
   </g>
   <g id="patch_57">
    <path d="M 125.254844 124.579063 
C 125.254844 124.579063 125.254844 124.579063 125.254844 124.579063 
C 125.254844 124.579063 125.254844 124.579063 125.254844 124.579063 
L 93.64884 134.166639 
C 93.962656 135.201151 94.327074 136.219631 94.740779 137.218402 
C 95.154483 138.217173 95.616975 139.19503 96.126584 140.148442 
z
" clip-path="url(#p984ce342e6)" style="fill: #a1a1d8"/>
   </g>
   <g id="patch_58">
    <path d="M 125.254844 124.579063 
C 125.254844 124.579063 125.254844 124.579063 125.254844 124.579063 
C 125.254844 124.579063 125.254844 124.579063 125.254844 124.579063 
L 100.413369 127.025734 
C 100.493452 127.838833 100.613408 128.647509 100.772803 129.448843 
C 100.932198 130.250177 101.130841 131.043202 101.368013 131.825053 
z
" clip-path="url(#p984ce342e6)" style="fill: #a1a1d8"/>
   </g>
   <g id="patch_59">
    <path d="M 125.254844 124.579063 
C 125.254844 124.579063 125.254844 124.579063 125.254844 124.579063 
C 125.254844 124.579063 125.254844 124.579063 125.254844 124.579063 
L 96.310884 121.728331 
C 96.217575 122.67571 96.170836 123.6271 96.170836 124.579062 
C 96.170836 125.531025 96.217575 126.482415 96.310884 127.429794 
z
" clip-path="url(#p984ce342e6)" style="fill: #a1a1d8"/>
   </g>
   <g id="patch_60">
    <path d="M 125.254844 124.579063 
C 125.254844 124.579063 125.254844 124.579063 125.254844 124.579063 
C 125.254844 124.579063 125.254844 124.579063 125.254844 124.579063 
L 95.469047 115.54364 
C 95.173304 116.518573 94.925606 117.507439 94.726847 118.506666 
C 94.528088 119.505893 94.378509 120.514276 94.278649 121.528174 
z
" clip-path="url(#p984ce342e6)" style="fill: #a1a1d8"/>
   </g>
   <g id="patch_61">
    <path d="M 125.254844 124.579063 
C 125.254844 124.579063 125.254844 124.579063 125.254844 124.579063 
C 125.254844 124.579063 125.254844 124.579063 125.254844 124.579063 
L 94.728412 108.262345 
C 94.194341 109.26152 93.709649 110.286315 93.276087 111.333028 
C 92.842524 112.37974 92.460614 113.447108 92.131735 114.531277 
z
" clip-path="url(#p984ce342e6)" style="fill: #a1a1d8"/>
   </g>
   <g id="patch_62">
    <path d="M 125.254844 124.579063 
C 125.254844 124.579063 125.254844 124.579063 125.254844 124.579063 
C 125.254844 124.579063 125.254844 124.579063 125.254844 124.579063 
L 91.21153 96.640437 
C 90.297057 97.754725 89.437843 98.91324 88.636993 100.111797 
C 87.836143 101.310354 87.094622 102.547508 86.415107 103.818791 
z
" clip-path="url(#p984ce342e6)" style="fill: #a1a1d8"/>
   </g>
   <g id="patch_63">
    <path d="M 125.254844 124.579063 
C 125.254844 124.579063 125.254844 124.579063 125.254844 124.579063 
C 125.254844 124.579063 125.254844 124.579063 125.254844 124.579063 
L 92.266143 84.382214 
C 90.95044 85.461984 89.688544 86.6057 88.485013 87.809231 
C 87.281481 89.012763 86.137765 90.274659 85.057996 91.590362 
z
" clip-path="url(#p984ce342e6)" style="fill: #a1a1d8"/>
   </g>
   <g id="patch_64">
    <path d="M 125.254844 124.579063 
C 125.254844 124.579063 125.254844 124.579063 125.254844 124.579063 
C 125.254844 124.579063 125.254844 124.579063 125.254844 124.579063 
L 101.092319 79.374158 
C 99.612695 80.165033 98.172792 81.028078 96.777813 81.960173 
C 95.382833 82.892269 94.034457 83.892293 92.737556 84.956632 
z
" clip-path="url(#p984ce342e6)" style="fill: #a1a1d8"/>
   </g>
   <g id="patch_65">
    <path d="M 125.254844 124.579063 
C 125.254844 124.579063 125.254844 124.579063 125.254844 124.579063 
C 125.254844 124.579063 125.254844 124.579063 125.254844 124.579063 
L 108.332692 68.794204 
C 106.50677 69.348091 104.709143 69.991292 102.946304 70.721484 
C 101.183465 71.451676 99.457539 72.267978 97.77476 73.167442 
z
" clip-path="url(#p984ce342e6)" style="fill: #a1a1d8"/>
   </g>
   <g id="patch_66">
    <path d="M 125.254844 124.579063 
C 125.254844 124.579063 125.254844 124.579063 125.254844 124.579063 
C 125.254844 124.579063 125.254844 124.579063 125.254844 124.579063 
L 119.787168 69.064814 
C 117.970103 69.24378 116.162921 69.51185 114.372148 69.868057 
C 112.581375 70.224263 110.80917 70.668178 109.061935 71.198196 
z
" clip-path="url(#p984ce342e6)" style="fill: #a1a1d8"/>
   </g>
   <g id="patch_67">
    <path d="M 120.119721 72.441285 
C 121.826268 72.273204 123.540039 72.189012 125.254844 72.189012 
C 126.969648 72.189012 128.683419 72.273204 130.389967 72.441285 
L 133.165583 44.259981 
C 130.536619 44.001051 127.896528 43.871351 125.254844 43.871351 
C 122.61316 43.871351 119.973068 44.001051 117.344105 44.259981 
z
" clip-path="url(#p984ce342e6)" style="fill: #ff8c8e"/>
   </g>
   <g id="patch_68">
    <path d="M 128.722652 89.369813 
C 129.875103 89.483319 131.021287 89.65334 132.157064 89.87926 
C 133.29284 90.10518 134.41684 90.386727 135.525003 90.722885 
L 141.631919 70.591082 
C 139.864811 70.055036 138.072451 69.606073 136.261311 69.245815 
C 134.450171 68.885556 132.622435 68.614437 130.784705 68.433437 
z
" clip-path="url(#p984ce342e6)" style="fill: #ff8c8e"/>
   </g>
   <g id="patch_69">
    <path d="M 136.246768 88.343543 
C 137.432811 88.703325 138.600474 89.121122 139.745541 89.595424 
C 140.890608 90.069726 142.011698 90.599962 143.104761 91.184217 
L 146.397509 85.023917 
C 145.10281 84.331886 143.774915 83.703839 142.418619 83.142043 
C 141.062324 82.580247 139.679263 82.08538 138.274433 81.659229 
z
" clip-path="url(#p984ce342e6)" style="fill: #ff8c8e"/>
   </g>
   <g id="patch_70">
    <path d="M 140.328127 96.378934 
C 141.251159 96.872305 142.149412 97.410697 143.019641 97.992165 
C 143.88987 98.573633 144.731025 99.197477 145.54007 99.861443 
L 152.791068 91.026076 
C 151.692829 90.124774 150.551 89.277936 149.369706 88.488621 
C 148.188412 87.699306 146.969077 86.968464 145.716104 86.298737 
z
" clip-path="url(#p984ce342e6)" style="fill: #ff8c8e"/>
   </g>
   <g id="patch_71">
    <path d="M 135.959621 111.535253 
C 136.386565 111.885637 136.796048 112.25677 137.186592 112.647314 
C 137.577136 113.037858 137.94827 113.447342 138.298653 113.874285 
L 146.263703 107.337537 
C 145.699362 106.649886 145.1016 105.990357 144.472575 105.361332 
C 143.84355 104.732307 143.18402 104.134544 142.496369 103.570203 
z
" clip-path="url(#p984ce342e6)" style="fill: #ff8c8e"/>
   </g>
   <g id="patch_72">
    <path d="M 133.362635 117.92517 
C 133.580427 118.19055 133.785058 118.466463 133.975789 118.751913 
C 134.166521 119.037363 134.343122 119.332004 134.504956 119.634774 
L 141.565611 115.860776 
C 141.280248 115.3269 140.968846 114.807357 140.632528 114.304022 
C 140.296211 113.800687 139.935384 113.314169 139.551351 112.846223 
z
" clip-path="url(#p984ce342e6)" style="fill: #ff8c8e"/>
   </g>
   <g id="patch_73">
    <path d="M 133.606246 120.115145 
C 133.752357 120.388499 133.884958 120.668862 134.003572 120.955221 
C 134.122186 121.24158 134.226669 121.533589 134.316643 121.830196 
L 139.715136 120.192581 
C 139.571559 119.719274 139.404832 119.253302 139.215555 118.796347 
C 139.026278 118.339392 138.81468 117.892005 138.581525 117.455803 
z
" clip-path="url(#p984ce342e6)" style="fill: #ff8c8e"/>
   </g>
   <g id="patch_74">
    <path d="M 131.146271 122.791918 
C 131.204767 122.984753 131.25376 123.180344 131.293073 123.377984 
C 131.332386 123.575624 131.361972 123.775076 131.381723 123.975618 
L 143.485434 122.783506 
C 143.426663 122.186792 143.33863 121.593322 143.221654 121.005242 
C 143.104677 120.417161 142.958898 119.835178 142.784843 119.261395 
z
" clip-path="url(#p984ce342e6)" style="fill: #ff8c8e"/>
   </g>
   <g id="patch_75">
    <path d="M 132.286284 123.886526 
C 132.308952 124.116676 132.320306 124.347799 132.320306 124.579063 
C 132.320306 124.810326 132.308952 125.041449 132.286284 125.271599 
L 141.717248 126.200468 
C 141.770319 125.661629 141.796903 125.120509 141.796903 124.579063 
C 141.796903 124.037616 141.770319 123.496496 141.717248 122.957657 
z
" clip-path="url(#p984ce342e6)" style="fill: #ff8c8e"/>
   </g>
   <g id="patch_76">
    <path d="M 130.49577 125.095249 
C 130.478874 125.266792 130.453567 125.437402 130.419938 125.606464 
C 130.38631 125.775525 130.344402 125.942833 130.294364 126.107784 
L 130.294364 126.107784 
C 130.344402 125.942833 130.38631 125.775525 130.419938 125.606464 
C 130.453567 125.437402 130.478874 125.266792 130.49577 125.095249 
z
" clip-path="url(#p984ce342e6)" style="fill: #ff8c8e"/>
   </g>
   <g id="patch_77">
    <path d="M 133.687574 127.137103 
C 133.603846 127.413119 133.506616 127.684858 133.396236 127.951338 
C 133.285857 128.217818 133.16246 128.478718 133.026493 128.733095 
L 133.026493 128.733095 
C 133.16246 128.478718 133.285857 128.217818 133.396236 127.951338 
C 133.506616 127.684858 133.603846 127.413119 133.687574 127.137103 
z
" clip-path="url(#p984ce342e6)" style="fill: #ff8c8e"/>
   </g>
   <g id="patch_78">
    <path d="M 125.254844 124.579063 
C 125.254844 124.579063 125.254844 124.579063 125.254844 124.579063 
C 125.254844 124.579063 125.254844 124.579063 125.254844 124.579063 
L 125.254844 124.579063 
C 125.254844 124.579063 125.254844 124.579063 125.254844 124.579063 
C 125.254844 124.579063 125.254844 124.579063 125.254844 124.579063 
z
" clip-path="url(#p984ce342e6)" style="fill: #ff8c8e"/>
   </g>
   <g id="patch_79">
    <path d="M 125.254844 124.579063 
C 125.254844 124.579063 125.254844 124.579063 125.254844 124.579063 
C 125.254844 124.579063 125.254844 124.579063 125.254844 124.579063 
L 132.368154 133.246656 
C 132.651857 133.013827 132.923958 132.767209 133.183474 132.507693 
C 133.44299 132.248177 133.689608 131.976076 133.922437 131.692373 
z
" clip-path="url(#p984ce342e6)" style="fill: #ff8c8e"/>
   </g>
   <g id="patch_80">
    <path d="M 125.254844 124.579063 
C 125.254844 124.579063 125.254844 124.579063 125.254844 124.579063 
C 125.254844 124.579063 125.254844 124.579063 125.254844 124.579063 
L 128.908999 131.415506 
C 129.132766 131.2959 129.350526 131.16538 129.561492 131.024417 
C 129.772458 130.883454 129.976376 130.732218 130.172509 130.571255 
z
" clip-path="url(#p984ce342e6)" style="fill: #ff8c8e"/>
   </g>
   <g id="patch_81">
    <path d="M 130.178314 133.790227 
C 129.876818 133.951379 129.567593 134.097632 129.251754 134.228457 
C 128.935915 134.359282 128.613843 134.474521 128.286702 134.573758 
L 128.957592 136.785387 
C 129.357123 136.66419 129.750463 136.523451 130.136191 136.363677 
C 130.521919 136.203904 130.89957 136.025288 131.26778 135.828475 
z
" clip-path="url(#p984ce342e6)" style="fill: #ff8c8e"/>
   </g>
   <g id="patch_82">
    <path d="M 127.28676 131.277392 
C 127.067514 131.3439 126.845134 131.399603 126.620425 131.444301 
C 126.395715 131.488998 126.168946 131.522636 125.940938 131.545093 
L 126.483613 137.054962 
C 126.891967 137.014743 127.298102 136.954499 127.700548 136.874447 
C 128.102994 136.794396 128.501268 136.694633 128.89393 136.575521 
z
" clip-path="url(#p984ce342e6)" style="fill: #ff8c8e"/>
   </g>
   <g id="patch_83">
    <path d="M 127.345238 145.803196 
C 126.650541 145.871618 125.952903 145.905891 125.254844 145.905891 
C 124.556785 145.905891 123.859147 145.871618 123.164449 145.803196 
L 122.93105 148.172934 
C 123.703313 148.248996 124.478844 148.287095 125.254844 148.287095 
C 126.030843 148.287095 126.806375 148.248996 127.578637 148.172934 
z
" clip-path="url(#p984ce342e6)" style="fill: #ff8c8e"/>
   </g>
   <g id="patch_84">
    <path d="M 123.002867 147.443762 
C 122.254472 147.370052 121.510146 147.259641 120.772579 147.11293 
C 120.035012 146.966219 119.305092 146.783384 118.585457 146.565085 
L 117.30647 150.781339 
C 118.16411 151.041501 119.034006 151.259399 119.913016 151.434245 
C 120.792026 151.609091 121.679091 151.740674 122.571006 151.82852 
z
" clip-path="url(#p984ce342e6)" style="fill: #ff8c8e"/>
   </g>
   <g id="patch_85">
    <path d="M 117.415019 150.423501 
C 116.569092 150.166892 115.736273 149.868905 114.919572 149.530616 
C 114.10287 149.192327 113.30327 148.814144 112.523659 148.397434 
L 108.350673 156.204542 
C 109.385822 156.75784 110.447513 157.259983 111.53191 157.709155 
C 112.616308 158.158327 113.722104 158.553987 114.845307 158.894707 
z
" clip-path="url(#p984ce342e6)" style="fill: #ff8c8e"/>
   </g>
   <g id="patch_86">
    <path d="M 109.998684 153.12133 
C 109.064453 152.621973 108.155302 152.077049 107.274515 151.488526 
C 106.393728 150.900003 105.542367 150.26859 104.723507 149.596569 
L 101.310464 153.755374 
C 102.265448 154.539109 103.258336 155.275485 104.285541 155.961842 
C 105.312746 156.648198 106.373031 157.283708 107.462564 157.866076 
z
" clip-path="url(#p984ce342e6)" style="fill: #ff8c8e"/>
   </g>
   <g id="patch_87">
    <path d="M 106.355883 147.607513 
C 105.602127 146.988922 104.879197 146.333696 104.189703 145.644203 
C 103.50021 144.954709 102.844984 144.231779 102.226393 143.478024 
L 94.529261 149.794897 
C 95.354613 150.800591 96.228844 151.765156 97.148797 152.685109 
C 98.06875 153.605062 99.033315 154.479293 100.03901 155.304645 
z
" clip-path="url(#p984ce342e6)" style="fill: #ff8c8e"/>
   </g>
   <g id="patch_88">
    <path d="M 108.225076 138.555032 
C 107.767622 137.997622 107.33781 137.418088 106.937195 136.818524 
C 106.536579 136.21896 106.165641 135.600089 105.825722 134.964144 
L 88.419944 144.267727 
C 89.064383 145.473388 89.767629 146.646682 90.527141 147.783372 
C 91.286652 148.920062 92.101514 150.018776 92.968784 151.075547 
z
" clip-path="url(#p984ce342e6)" style="fill: #ff8c8e"/>
   </g>
   <g id="patch_89">
    <path d="M 96.126584 140.148442 
C 95.616975 139.19503 95.154483 138.217173 94.740779 137.218402 
C 94.327074 136.219631 93.962656 135.201151 93.64884 134.166639 
L 77.013883 139.212798 
C 77.492867 140.791797 78.049087 142.346327 78.680534 143.870773 
C 79.31198 145.39522 80.017892 146.887746 80.79572 148.342959 
z
" clip-path="url(#p984ce342e6)" style="fill: #ff8c8e"/>
   </g>
   <g id="patch_90">
    <path d="M 101.368013 131.825053 
C 101.130841 131.043202 100.932198 130.250177 100.772803 129.448843 
C 100.613408 128.647509 100.493452 127.838833 100.413369 127.025734 
L 67.915181 130.226526 
C 68.100031 132.103339 68.376916 133.969945 68.744836 135.819602 
C 69.112755 137.669259 69.571266 139.499737 70.118712 141.304425 
z
" clip-path="url(#p984ce342e6)" style="fill: #ff8c8e"/>
   </g>
   <g id="patch_91">
    <path d="M 96.310884 127.429794 
C 96.217575 126.482415 96.170836 125.531025 96.170836 124.579062 
C 96.170836 123.6271 96.217575 122.67571 96.310884 121.728331 
L 51.988018 117.36291 
C 51.751823 119.761043 51.633512 122.169326 51.633512 124.579062 
C 51.633512 126.988799 51.751823 129.397082 51.988018 131.795215 
z
" clip-path="url(#p984ce342e6)" style="fill: #ff8c8e"/>
   </g>
   <g id="patch_92">
    <path d="M 94.278649 121.528174 
C 94.378509 120.514276 94.528088 119.505893 94.726847 118.506666 
C 94.925606 117.507439 95.173304 116.518573 95.469047 115.54364 
L 56.889274 103.840594 
C 56.210473 106.078301 55.641946 108.347986 55.185747 110.641453 
C 54.729548 112.934919 54.386228 115.249401 54.157024 117.576539 
z
" clip-path="url(#p984ce342e6)" style="fill: #ff8c8e"/>
   </g>
   <g id="patch_93">
    <path d="M 92.131735 114.531277 
C 92.460614 113.447108 92.842524 112.37974 93.276087 111.333028 
C 93.709649 110.286315 94.194341 109.26152 94.728412 108.262345 
L 58.35221 88.81886 
C 57.181726 91.008683 56.119461 93.254654 55.169252 95.54866 
C 54.219044 97.842666 53.382037 100.181942 52.661256 102.558038 
z
" clip-path="url(#p984ce342e6)" style="fill: #ff8c8e"/>
   </g>
   <g id="patch_94">
    <path d="M 86.415107 103.818791 
C 87.094622 102.547508 87.836143 101.310354 88.636993 100.111797 
C 89.437843 98.91324 90.297057 97.754725 91.21153 96.640437 
L 59.706296 70.78476 
C 57.945528 72.930261 56.29116 75.160919 54.749166 77.468675 
C 53.207173 79.776431 51.779414 82.158504 50.471045 84.606289 
z
" clip-path="url(#p984ce342e6)" style="fill: #ff8c8e"/>
   </g>
   <g id="patch_95">
    <path d="M 85.057996 91.590362 
C 86.137765 90.274659 87.281481 89.012763 88.485013 87.809231 
C 89.688544 86.6057 90.95044 85.461984 92.266143 84.382214 
L 63.948421 49.87697 
C 61.50331 51.883621 59.158194 54.009111 56.921543 56.245762 
C 54.684892 58.482413 52.559402 60.827529 50.552752 63.27264 
z
" clip-path="url(#p984ce342e6)" style="fill: #ff8c8e"/>
   </g>
   <g id="patch_96">
    <path d="M 92.737556 84.956632 
C 94.034457 83.892293 95.382833 82.892269 96.777813 81.960173 
C 98.172792 81.028078 99.612695 80.165033 101.092319 79.374158 
L 77.333192 34.923958 
C 74.398646 36.492505 71.542881 38.204185 68.776211 40.052815 
C 66.00954 41.901445 63.3353 43.884796 60.76315 45.995706 
z
" clip-path="url(#p984ce342e6)" style="fill: #ff8c8e"/>
   </g>
   <g id="patch_97">
    <path d="M 97.77476 73.167442 
C 99.457539 72.267978 101.183465 71.451676 102.946304 70.721484 
C 104.709143 69.991292 106.50677 69.348091 108.332692 68.794204 
L 96.625134 30.199556 
C 93.535951 31.136649 90.49464 32.224848 87.512184 33.460222 
C 84.529728 34.695595 81.609724 36.076655 78.762717 37.598411 
z
" clip-path="url(#p984ce342e6)" style="fill: #ff8c8e"/>
   </g>
   <g id="patch_98">
    <path d="M 109.061935 71.198196 
C 110.80917 70.668178 112.581375 70.224263 114.372148 69.868057 
C 116.162921 69.51185 117.970103 69.24378 119.787168 69.064814 
L 116.685531 37.573371 
C 113.837705 37.853858 111.005366 38.273996 108.198746 38.832267 
C 105.392125 39.390539 102.614606 40.086271 99.87622 40.916951 
z
" clip-path="url(#p984ce342e6)" style="fill: #ff8c8e"/>
   </g>
   <g id="patch_99">
    <path d="M 117.344105 44.259981 
C 119.973068 44.001051 122.61316 43.871351 125.254844 43.871351 
C 127.896528 43.871351 130.536619 44.001051 133.165583 44.259981 
L 133.406119 41.817774 
C 130.697219 41.550971 127.976852 41.417328 125.254844 41.417328 
C 122.532836 41.417328 119.812469 41.550971 117.103568 41.817774 
z
" clip-path="url(#p984ce342e6)" style="fill: #828282"/>
   </g>
   <g id="patch_100">
    <path d="M 130.784705 68.433437 
C 132.622435 68.614437 134.450171 68.885556 136.261311 69.245815 
C 138.072451 69.606073 139.864811 70.055036 141.631919 70.591082 
L 142.747412 66.913795 
C 140.859941 66.341237 138.945497 65.861694 137.010995 65.476897 
C 135.076493 65.092101 133.124265 64.802515 131.161361 64.609186 
z
" clip-path="url(#p984ce342e6)" style="fill: #828282"/>
   </g>
   <g id="patch_101">
    <path d="M 138.274433 81.659229 
C 139.679263 82.08538 141.062324 82.580247 142.418619 83.142043 
C 143.774915 83.703839 145.10281 84.331886 146.397509 85.023917 
L 150.240781 77.833662 
C 148.710734 77.015835 147.141457 76.273622 145.538616 75.609703 
C 143.935776 74.945785 142.301305 74.360962 140.641108 73.857347 
z
" clip-path="url(#p984ce342e6)" style="fill: #828282"/>
   </g>
   <g id="patch_102">
    <path d="M 145.716104 86.298737 
C 146.969077 86.968464 148.188412 87.699306 149.369706 88.488621 
C 150.551 89.277936 151.692829 90.124774 152.791068 91.026076 
L 154.424773 89.0354 
C 153.261376 88.080625 152.051804 87.183545 150.800424 86.3474 
C 149.549045 85.511255 148.257367 84.737053 146.930057 84.027591 
z
" clip-path="url(#p984ce342e6)" style="fill: #828282"/>
   </g>
   <g id="patch_103">
    <path d="M 142.496369 103.570203 
C 143.18402 104.134544 143.84355 104.732307 144.472575 105.361332 
C 145.1016 105.990357 145.699362 106.649886 146.263703 107.337537 
L 148.295284 105.670262 
C 147.676371 104.916114 147.020804 104.192807 146.330952 103.502955 
C 145.641099 102.813102 144.917793 102.157535 144.163645 101.538622 
z
" clip-path="url(#p984ce342e6)" style="fill: #828282"/>
   </g>
   <g id="patch_104">
    <path d="M 139.551351 112.846223 
C 139.935384 113.314169 140.296211 113.800687 140.632528 114.304022 
C 140.968846 114.807357 141.280248 115.3269 141.565611 115.860776 
L 141.565611 115.860776 
C 141.280248 115.3269 140.968846 114.807357 140.632528 114.304022 
C 140.296211 113.800687 139.935384 113.314169 139.551351 112.846223 
z
" clip-path="url(#p984ce342e6)" style="fill: #828282"/>
   </g>
   <g id="patch_105">
    <path d="M 138.581525 117.455803 
C 138.81468 117.892005 139.026278 118.339392 139.215555 118.796347 
C 139.404832 119.253302 139.571559 119.719274 139.715136 120.192581 
L 139.715136 120.192581 
C 139.571559 119.719274 139.404832 119.253302 139.215555 118.796347 
C 139.026278 118.339392 138.81468 117.892005 138.581525 117.455803 
z
" clip-path="url(#p984ce342e6)" style="fill: #828282"/>
   </g>
   <g id="patch_106">
    <path d="M 142.784843 119.261395 
C 142.958898 119.835178 143.104677 120.417161 143.221654 121.005242 
C 143.33863 121.593322 143.426663 122.186792 143.485434 122.783506 
L 143.485434 122.783506 
C 143.426663 122.186792 143.33863 121.593322 143.221654 121.005242 
C 143.104677 120.417161 142.958898 119.835178 142.784843 119.261395 
z
" clip-path="url(#p984ce342e6)" style="fill: #828282"/>
   </g>
   <g id="patch_107">
    <path d="M 141.717248 122.957657 
C 141.770319 123.496496 141.796903 124.037616 141.796903 124.579063 
C 141.796903 125.120509 141.770319 125.661629 141.717248 126.200468 
L 141.717248 126.200468 
C 141.770319 125.661629 141.796903 125.120509 141.796903 124.579063 
C 141.796903 124.037616 141.770319 123.496496 141.717248 122.957657 
z
" clip-path="url(#p984ce342e6)" style="fill: #828282"/>
   </g>
   <g id="patch_108">
    <path d="M 130.49577 125.095249 
C 130.478874 125.266792 130.453567 125.437402 130.419938 125.606464 
C 130.38631 125.775525 130.344402 125.942833 130.294364 126.107784 
L 130.294364 126.107784 
C 130.344402 125.942833 130.38631 125.775525 130.419938 125.606464 
C 130.453567 125.437402 130.478874 125.266792 130.49577 125.095249 
z
" clip-path="url(#p984ce342e6)" style="fill: #828282"/>
   </g>
   <g id="patch_109">
    <path d="M 133.687574 127.137103 
C 133.603846 127.413119 133.506616 127.684858 133.396236 127.951338 
C 133.285857 128.217818 133.16246 128.478718 133.026493 128.733095 
L 133.026493 128.733095 
C 133.16246 128.478718 133.285857 128.217818 133.396236 127.951338 
C 133.506616 127.684858 133.603846 127.413119 133.687574 127.137103 
z
" clip-path="url(#p984ce342e6)" style="fill: #828282"/>
   </g>
   <g id="patch_110">
    <path d="M 125.254844 124.579063 
C 125.254844 124.579063 125.254844 124.579063 125.254844 124.579063 
C 125.254844 124.579063 125.254844 124.579063 125.254844 124.579063 
L 125.254844 124.579063 
C 125.254844 124.579063 125.254844 124.579063 125.254844 124.579063 
C 125.254844 124.579063 125.254844 124.579063 125.254844 124.579063 
z
" clip-path="url(#p984ce342e6)" style="fill: #828282"/>
   </g>
   <g id="patch_111">
    <path d="M 133.922437 131.692373 
C 133.689608 131.976076 133.44299 132.248177 133.183474 132.507693 
C 132.923958 132.767209 132.651857 133.013827 132.368154 133.246656 
L 132.368154 133.246656 
C 132.651857 133.013827 132.923958 132.767209 133.183474 132.507693 
C 133.44299 132.248177 133.689608 131.976076 133.922437 131.692373 
z
" clip-path="url(#p984ce342e6)" style="fill: #828282"/>
   </g>
   <g id="patch_112">
    <path d="M 130.172509 130.571255 
C 129.976376 130.732218 129.772458 130.883454 129.561492 131.024417 
C 129.350526 131.16538 129.132766 131.2959 128.908999 131.415506 
L 128.908999 131.415506 
C 129.132766 131.2959 129.350526 131.16538 129.561492 131.024417 
C 129.772458 130.883454 129.976376 130.732218 130.172509 130.571255 
z
" clip-path="url(#p984ce342e6)" style="fill: #828282"/>
   </g>
   <g id="patch_113">
    <path d="M 131.26778 135.828475 
C 130.89957 136.025288 130.521919 136.203904 130.136191 136.363677 
C 129.750463 136.523451 129.357123 136.66419 128.957592 136.785387 
L 128.957592 136.785387 
C 129.357123 136.66419 129.750463 136.523451 130.136191 136.363677 
C 130.521919 136.203904 130.89957 136.025288 131.26778 135.828475 
z
" clip-path="url(#p984ce342e6)" style="fill: #828282"/>
   </g>
   <g id="patch_114">
    <path d="M 128.89393 136.575521 
C 128.501268 136.694633 128.102994 136.794396 127.700548 136.874447 
C 127.298102 136.954499 126.891967 137.014743 126.483613 137.054962 
L 126.483613 137.054962 
C 126.891967 137.014743 127.298102 136.954499 127.700548 136.874447 
C 128.102994 136.794396 128.501268 136.694633 128.89393 136.575521 
z
" clip-path="url(#p984ce342e6)" style="fill: #828282"/>
   </g>
   <g id="patch_115">
    <path d="M 127.578637 148.172934 
C 126.806375 148.248996 126.030843 148.287095 125.254844 148.287095 
C 124.478844 148.287095 123.703313 148.248996 122.93105 148.172934 
L 122.93105 148.172934 
C 123.703313 148.248996 124.478844 148.287095 125.254844 148.287095 
C 126.030843 148.287095 126.806375 148.248996 127.578637 148.172934 
z
" clip-path="url(#p984ce342e6)" style="fill: #828282"/>
   </g>
   <g id="patch_116">
    <path d="M 122.571006 151.82852 
C 121.679091 151.740674 120.792026 151.609091 119.913016 151.434245 
C 119.034006 151.259399 118.16411 151.041501 117.30647 150.781339 
L 117.30647 150.781339 
C 118.16411 151.041501 119.034006 151.259399 119.913016 151.434245 
C 120.792026 151.609091 121.679091 151.740674 122.571006 151.82852 
z
" clip-path="url(#p984ce342e6)" style="fill: #828282"/>
   </g>
   <g id="patch_117">
    <path d="M 114.845307 158.894707 
C 113.722104 158.553987 112.616308 158.158327 111.53191 157.709155 
C 110.447513 157.259983 109.385822 156.75784 108.350673 156.204542 
L 108.350673 156.204542 
C 109.385822 156.75784 110.447513 157.259983 111.53191 157.709155 
C 112.616308 158.158327 113.722104 158.553987 114.845307 158.894707 
z
" clip-path="url(#p984ce342e6)" style="fill: #828282"/>
   </g>
   <g id="patch_118">
    <path d="M 107.462564 157.866076 
C 106.373031 157.283708 105.312746 156.648198 104.285541 155.961842 
C 103.258336 155.275485 102.265448 154.539109 101.310464 153.755374 
L 100.803078 154.373625 
C 101.778299 155.173967 102.792226 155.925947 103.841198 156.626848 
C 104.89017 157.327748 105.972922 157.976725 107.085543 158.571433 
z
" clip-path="url(#p984ce342e6)" style="fill: #828282"/>
   </g>
   <g id="patch_119">
    <path d="M 100.03901 155.304645 
C 99.033315 154.479293 98.06875 153.605062 97.148797 152.685109 
C 96.228844 151.765156 95.354613 150.800591 94.529261 149.794897 
L 94.529261 149.794897 
C 95.354613 150.800591 96.228844 151.765156 97.148797 152.685109 
C 98.06875 153.605062 99.033315 154.479293 100.03901 155.304645 
z
" clip-path="url(#p984ce342e6)" style="fill: #828282"/>
   </g>
   <g id="patch_120">
    <path d="M 92.968784 151.075547 
C 92.101514 150.018776 91.286652 148.920062 90.527141 147.783372 
C 89.767629 146.646682 89.064383 145.473388 88.419944 144.267727 
L 83.774257 146.750898 
C 84.499974 148.10862 85.291914 149.429892 86.147217 150.709943 
C 87.00252 151.989994 87.920154 153.227281 88.896805 154.417334 
z
" clip-path="url(#p984ce342e6)" style="fill: #828282"/>
   </g>
   <g id="patch_121">
    <path d="M 80.79572 148.342959 
C 80.017892 146.887746 79.31198 145.39522 78.680534 143.870773 
C 78.049087 142.346327 77.492867 140.791797 77.013883 139.212798 
L 73.985309 140.131506 
C 74.494364 141.809634 75.085503 143.461758 75.756592 145.08191 
C 76.42768 146.702062 77.17791 148.288288 78.00457 149.83486 
z
" clip-path="url(#p984ce342e6)" style="fill: #828282"/>
   </g>
   <g id="patch_122">
    <path d="M 70.118712 141.304425 
C 69.571266 139.499737 69.112755 137.669259 68.744836 135.819602 
C 68.376916 133.969945 68.100031 132.103339 67.915181 130.226526 
L 65.109648 130.502847 
C 65.303542 132.471489 65.593974 134.429425 65.979896 136.369583 
C 66.365817 138.30974 66.846762 140.229781 67.420994 142.122769 
z
" clip-path="url(#p984ce342e6)" style="fill: #828282"/>
   </g>
   <g id="patch_123">
    <path d="M 51.988018 131.795215 
C 51.751823 129.397082 51.633512 126.988799 51.633512 124.579062 
C 51.633512 122.169326 51.751823 119.761043 51.988018 117.36291 
L 47.601835 116.930909 
C 47.351499 119.472608 47.226105 122.025065 47.226105 124.579062 
C 47.226105 127.13306 47.351499 129.685517 47.601835 132.227216 
z
" clip-path="url(#p984ce342e6)" style="fill: #828282"/>
   </g>
   <g id="patch_124">
    <path d="M 54.157024 117.576539 
C 54.386228 115.249401 54.729548 112.934919 55.185747 110.641453 
C 55.641946 108.347986 56.210473 106.078301 56.889274 103.840594 
L 56.199317 103.631298 
C 55.513666 105.891588 54.939401 108.18418 54.478598 110.500792 
C 54.017796 112.817404 53.67101 115.155244 53.439494 117.505868 
z
" clip-path="url(#p984ce342e6)" style="fill: #828282"/>
   </g>
   <g id="patch_125">
    <path d="M 52.661256 102.558038 
C 53.382037 100.181942 54.219044 97.842666 55.169252 95.54866 
C 56.119461 93.254654 57.181726 91.008683 58.35221 88.81886 
L 54.971583 87.011877 
C 53.741953 89.312353 52.626011 91.671814 51.627788 94.081737 
C 50.629565 96.491661 49.750264 98.949142 48.993062 101.445304 
z
" clip-path="url(#p984ce342e6)" style="fill: #828282"/>
   </g>
   <g id="patch_126">
    <path d="M 50.471045 84.606289 
C 51.779414 82.158504 53.207173 79.776431 54.749166 77.468675 
C 56.29116 75.160919 57.945528 72.930261 59.706296 70.78476 
L 55.406094 67.255675 
C 53.529814 69.541929 51.766914 71.918925 50.123761 74.378078 
C 48.480607 76.83723 46.959182 79.375575 45.56498 81.983943 
z
" clip-path="url(#p984ce342e6)" style="fill: #828282"/>
   </g>
   <g id="patch_127">
    <path d="M 50.552752 63.27264 
C 52.559402 60.827529 54.684892 58.482413 56.921543 56.245762 
C 59.158194 54.009111 61.50331 51.883621 63.948421 49.87697 
L 55.000644 38.974073 
C 52.198665 41.273598 49.511275 43.709306 46.948181 46.2724 
C 44.385087 48.835494 41.949379 51.522884 39.649854 54.324863 
z
" clip-path="url(#p984ce342e6)" style="fill: #828282"/>
   </g>
   <g id="patch_128">
    <path d="M 60.76315 45.995706 
C 63.3353 43.884796 66.00954 41.901445 68.776211 40.052815 
C 71.542881 38.204185 74.398646 36.492505 77.333192 34.923958 
L 72.986373 26.791632 
C 69.785645 28.502457 66.670842 30.369398 63.653216 32.385711 
C 60.63559 34.402025 57.718778 36.56528 54.913316 38.867663 
z
" clip-path="url(#p984ce342e6)" style="fill: #828282"/>
   </g>
   <g id="patch_129">
    <path d="M 78.762717 37.598411 
C 81.609724 36.076655 84.529728 34.695595 87.512184 33.460222 
C 90.49464 32.224848 93.535951 31.136649 96.625134 30.199556 
L 94.653668 23.700507 
C 91.351763 24.702129 88.101024 25.865262 84.913194 27.185704 
C 81.725364 28.506147 78.604285 29.982307 75.561231 31.608853 
z
" clip-path="url(#p984ce342e6)" style="fill: #828282"/>
   </g>
   <g id="patch_130">
    <path d="M 99.87622 40.916951 
C 102.614606 40.086271 105.392125 39.390539 108.198746 38.832267 
C 111.005366 38.273996 113.837705 37.853858 116.685531 37.573371 
L 116.25631 33.21542 
C 113.265842 33.509956 110.291637 33.951137 107.344438 34.537372 
C 104.397239 35.123606 101.480599 35.854186 98.605052 36.726474 
z
" clip-path="url(#p984ce342e6)" style="fill: #828282"/>
   </g>
   <g id="patch_131">
    <path d="M 125.254844 124.579063 
C 125.254844 124.579063 125.254844 124.579063 125.254844 124.579063 
C 125.254844 124.579063 125.254844 124.579063 125.254844 124.579063 
L 133.406119 41.817774 
C 130.697219 41.550971 127.976852 41.417328 125.254844 41.417328 
C 122.532836 41.417328 119.812469 41.550971 117.103568 41.817774 
L 125.254844 124.579063 
z
" clip-path="url(#p984ce342e6)" style="fill: none; stroke: #292929; stroke-width: 0.5; stroke-linejoin: miter"/>
   </g>
   <g id="patch_132">
    <path d="M 125.254844 124.579063 
C 125.254844 124.579063 125.254844 124.579063 125.254844 124.579063 
C 125.254844 124.579063 125.254844 124.579063 125.254844 124.579063 
L 142.747412 66.913795 
C 140.859941 66.341237 138.945497 65.861694 137.010995 65.476897 
C 135.076493 65.092101 133.124265 64.802515 131.161361 64.609186 
L 125.254844 124.579063 
z
" clip-path="url(#p984ce342e6)" style="fill: none; stroke: #292929; stroke-width: 0.5; stroke-linejoin: miter"/>
   </g>
   <g id="patch_133">
    <path d="M 125.254844 124.579063 
C 125.254844 124.579063 125.254844 124.579063 125.254844 124.579063 
C 125.254844 124.579063 125.254844 124.579063 125.254844 124.579063 
L 150.240781 77.833662 
C 148.710734 77.015835 147.141457 76.273622 145.538616 75.609703 
C 143.935776 74.945785 142.301305 74.360962 140.641108 73.857347 
L 125.254844 124.579063 
z
" clip-path="url(#p984ce342e6)" style="fill: none; stroke: #292929; stroke-width: 0.5; stroke-linejoin: miter"/>
   </g>
   <g id="patch_134">
    <path d="M 125.254844 124.579063 
C 125.254844 124.579063 125.254844 124.579063 125.254844 124.579063 
C 125.254844 124.579063 125.254844 124.579063 125.254844 124.579063 
L 154.424773 89.0354 
C 153.261376 88.080625 152.051804 87.183545 150.800424 86.3474 
C 149.549045 85.511255 148.257367 84.737053 146.930057 84.027591 
L 125.254844 124.579063 
z
" clip-path="url(#p984ce342e6)" style="fill: none; stroke: #292929; stroke-width: 0.5; stroke-linejoin: miter"/>
   </g>
   <g id="patch_135">
    <path d="M 125.254844 124.579063 
C 125.254844 124.579063 125.254844 124.579063 125.254844 124.579063 
C 125.254844 124.579063 125.254844 124.579063 125.254844 124.579063 
L 148.295284 105.670262 
C 147.676371 104.916114 147.020804 104.192807 146.330952 103.502955 
C 145.641099 102.813102 144.917793 102.157535 144.163645 101.538622 
L 125.254844 124.579063 
z
" clip-path="url(#p984ce342e6)" style="fill: none; stroke: #292929; stroke-width: 0.5; stroke-linejoin: miter"/>
   </g>
   <g id="patch_136">
    <path d="M 125.254844 124.579063 
C 125.254844 124.579063 125.254844 124.579063 125.254844 124.579063 
C 125.254844 124.579063 125.254844 124.579063 125.254844 124.579063 
L 141.565611 115.860776 
C 141.280248 115.3269 140.968846 114.807357 140.632528 114.304022 
C 140.296211 113.800687 139.935384 113.314169 139.551351 112.846223 
L 125.254844 124.579063 
z
" clip-path="url(#p984ce342e6)" style="fill: none; stroke: #292929; stroke-width: 0.5; stroke-linejoin: miter"/>
   </g>
   <g id="patch_137">
    <path d="M 125.254844 124.579063 
C 125.254844 124.579063 125.254844 124.579063 125.254844 124.579063 
C 125.254844 124.579063 125.254844 124.579063 125.254844 124.579063 
L 139.715136 120.192581 
C 139.571559 119.719274 139.404832 119.253302 139.215555 118.796347 
C 139.026278 118.339392 138.81468 117.892005 138.581525 117.455803 
L 125.254844 124.579063 
z
" clip-path="url(#p984ce342e6)" style="fill: none; stroke: #292929; stroke-width: 0.5; stroke-linejoin: miter"/>
   </g>
   <g id="patch_138">
    <path d="M 125.254844 124.579063 
C 125.254844 124.579063 125.254844 124.579063 125.254844 124.579063 
C 125.254844 124.579063 125.254844 124.579063 125.254844 124.579063 
L 143.485434 122.783506 
C 143.426663 122.186792 143.33863 121.593322 143.221654 121.005242 
C 143.104677 120.417161 142.958898 119.835178 142.784843 119.261395 
L 125.254844 124.579063 
z
" clip-path="url(#p984ce342e6)" style="fill: none; stroke: #292929; stroke-width: 0.5; stroke-linejoin: miter"/>
   </g>
   <g id="patch_139">
    <path d="M 125.254844 124.579063 
C 125.254844 124.579063 125.254844 124.579063 125.254844 124.579063 
C 125.254844 124.579063 125.254844 124.579063 125.254844 124.579063 
L 141.717248 126.200468 
C 141.770319 125.661629 141.796903 125.120509 141.796903 124.579063 
C 141.796903 124.037616 141.770319 123.496496 141.717248 122.957657 
L 125.254844 124.579063 
z
" clip-path="url(#p984ce342e6)" style="fill: none; stroke: #292929; stroke-width: 0.5; stroke-linejoin: miter"/>
   </g>
   <g id="patch_140">
    <path d="M 125.254844 124.579063 
C 125.254844 124.579063 125.254844 124.579063 125.254844 124.579063 
C 125.254844 124.579063 125.254844 124.579063 125.254844 124.579063 
L 130.294364 126.107784 
C 130.344402 125.942833 130.38631 125.775525 130.419938 125.606464 
C 130.453567 125.437402 130.478874 125.266792 130.49577 125.095249 
L 125.254844 124.579063 
z
" clip-path="url(#p984ce342e6)" style="fill: none; stroke: #292929; stroke-width: 0.5; stroke-linejoin: miter"/>
   </g>
   <g id="patch_141">
    <path d="M 125.254844 124.579063 
C 125.254844 124.579063 125.254844 124.579063 125.254844 124.579063 
C 125.254844 124.579063 125.254844 124.579063 125.254844 124.579063 
L 133.026493 128.733095 
C 133.16246 128.478718 133.285857 128.217818 133.396236 127.951338 
C 133.506616 127.684858 133.603846 127.413119 133.687574 127.137103 
L 125.254844 124.579063 
z
" clip-path="url(#p984ce342e6)" style="fill: none; stroke: #292929; stroke-width: 0.5; stroke-linejoin: miter"/>
   </g>
   <g id="patch_142">
    <path d="M 125.254844 124.579063 
C 125.254844 124.579063 125.254844 124.579063 125.254844 124.579063 
C 125.254844 124.579063 125.254844 124.579063 125.254844 124.579063 
L 125.254844 124.579063 
C 125.254844 124.579063 125.254844 124.579063 125.254844 124.579063 
C 125.254844 124.579063 125.254844 124.579063 125.254844 124.579063 
L 125.254844 124.579063 
z
" clip-path="url(#p984ce342e6)" style="fill: none; stroke: #292929; stroke-width: 0.5; stroke-linejoin: miter"/>
   </g>
   <g id="patch_143">
    <path d="M 125.254844 124.579063 
C 125.254844 124.579063 125.254844 124.579063 125.254844 124.579063 
C 125.254844 124.579063 125.254844 124.579063 125.254844 124.579063 
L 132.368154 133.246656 
C 132.651857 133.013827 132.923958 132.767209 133.183474 132.507693 
C 133.44299 132.248177 133.689608 131.976076 133.922437 131.692373 
L 125.254844 124.579063 
z
" clip-path="url(#p984ce342e6)" style="fill: none; stroke: #292929; stroke-width: 0.5; stroke-linejoin: miter"/>
   </g>
   <g id="patch_144">
    <path d="M 125.254844 124.579063 
C 125.254844 124.579063 125.254844 124.579063 125.254844 124.579063 
C 125.254844 124.579063 125.254844 124.579063 125.254844 124.579063 
L 128.908999 131.415506 
C 129.132766 131.2959 129.350526 131.16538 129.561492 131.024417 
C 129.772458 130.883454 129.976376 130.732218 130.172509 130.571255 
L 125.254844 124.579063 
z
" clip-path="url(#p984ce342e6)" style="fill: none; stroke: #292929; stroke-width: 0.5; stroke-linejoin: miter"/>
   </g>
   <g id="patch_145">
    <path d="M 125.254844 124.579063 
C 125.254844 124.579063 125.254844 124.579063 125.254844 124.579063 
C 125.254844 124.579063 125.254844 124.579063 125.254844 124.579063 
L 128.957592 136.785387 
C 129.357123 136.66419 129.750463 136.523451 130.136191 136.363677 
C 130.521919 136.203904 130.89957 136.025288 131.26778 135.828475 
L 125.254844 124.579063 
z
" clip-path="url(#p984ce342e6)" style="fill: none; stroke: #292929; stroke-width: 0.5; stroke-linejoin: miter"/>
   </g>
   <g id="patch_146">
    <path d="M 125.254844 124.579063 
C 125.254844 124.579063 125.254844 124.579063 125.254844 124.579063 
C 125.254844 124.579063 125.254844 124.579063 125.254844 124.579063 
L 126.483613 137.054962 
C 126.891967 137.014743 127.298102 136.954499 127.700548 136.874447 
C 128.102994 136.794396 128.501268 136.694633 128.89393 136.575521 
L 125.254844 124.579063 
z
" clip-path="url(#p984ce342e6)" style="fill: none; stroke: #292929; stroke-width: 0.5; stroke-linejoin: miter"/>
   </g>
   <g id="patch_147">
    <path d="M 125.254844 124.579063 
C 125.254844 124.579063 125.254844 124.579063 125.254844 124.579063 
C 125.254844 124.579063 125.254844 124.579063 125.254844 124.579063 
L 122.93105 148.172934 
C 123.703313 148.248996 124.478844 148.287095 125.254844 148.287095 
C 126.030843 148.287095 126.806375 148.248996 127.578637 148.172934 
L 125.254844 124.579063 
z
" clip-path="url(#p984ce342e6)" style="fill: none; stroke: #292929; stroke-width: 0.5; stroke-linejoin: miter"/>
   </g>
   <g id="patch_148">
    <path d="M 125.254844 124.579063 
C 125.254844 124.579063 125.254844 124.579063 125.254844 124.579063 
C 125.254844 124.579063 125.254844 124.579063 125.254844 124.579063 
L 117.30647 150.781339 
C 118.16411 151.041501 119.034006 151.259399 119.913016 151.434245 
C 120.792026 151.609091 121.679091 151.740674 122.571006 151.82852 
L 125.254844 124.579063 
z
" clip-path="url(#p984ce342e6)" style="fill: none; stroke: #292929; stroke-width: 0.5; stroke-linejoin: miter"/>
   </g>
   <g id="patch_149">
    <path d="M 125.254844 124.579063 
C 125.254844 124.579063 125.254844 124.579063 125.254844 124.579063 
C 125.254844 124.579063 125.254844 124.579063 125.254844 124.579063 
L 108.350673 156.204542 
C 109.385822 156.75784 110.447513 157.259983 111.53191 157.709155 
C 112.616308 158.158327 113.722104 158.553987 114.845307 158.894707 
L 125.254844 124.579063 
z
" clip-path="url(#p984ce342e6)" style="fill: none; stroke: #292929; stroke-width: 0.5; stroke-linejoin: miter"/>
   </g>
   <g id="patch_150">
    <path d="M 125.254844 124.579063 
C 125.254844 124.579063 125.254844 124.579063 125.254844 124.579063 
C 125.254844 124.579063 125.254844 124.579063 125.254844 124.579063 
L 100.803078 154.373625 
C 101.778299 155.173967 102.792226 155.925947 103.841198 156.626848 
C 104.89017 157.327748 105.972922 157.976725 107.085543 158.571433 
L 125.254844 124.579063 
z
" clip-path="url(#p984ce342e6)" style="fill: none; stroke: #292929; stroke-width: 0.5; stroke-linejoin: miter"/>
   </g>
   <g id="patch_151">
    <path d="M 125.254844 124.579063 
C 125.254844 124.579063 125.254844 124.579063 125.254844 124.579063 
C 125.254844 124.579063 125.254844 124.579063 125.254844 124.579063 
L 94.529261 149.794897 
C 95.354613 150.800591 96.228844 151.765156 97.148797 152.685109 
C 98.06875 153.605062 99.033315 154.479293 100.03901 155.304645 
L 125.254844 124.579063 
z
" clip-path="url(#p984ce342e6)" style="fill: none; stroke: #292929; stroke-width: 0.5; stroke-linejoin: miter"/>
   </g>
   <g id="patch_152">
    <path d="M 125.254844 124.579063 
C 125.254844 124.579063 125.254844 124.579063 125.254844 124.579063 
C 125.254844 124.579063 125.254844 124.579063 125.254844 124.579063 
L 83.774257 146.750898 
C 84.499974 148.10862 85.291914 149.429892 86.147217 150.709943 
C 87.00252 151.989994 87.920154 153.227281 88.896805 154.417334 
L 125.254844 124.579063 
z
" clip-path="url(#p984ce342e6)" style="fill: none; stroke: #292929; stroke-width: 0.5; stroke-linejoin: miter"/>
   </g>
   <g id="patch_153">
    <path d="M 125.254844 124.579063 
C 125.254844 124.579063 125.254844 124.579063 125.254844 124.579063 
C 125.254844 124.579063 125.254844 124.579063 125.254844 124.579063 
L 73.985309 140.131506 
C 74.494364 141.809634 75.085503 143.461758 75.756592 145.08191 
C 76.42768 146.702062 77.17791 148.288288 78.00457 149.83486 
L 125.254844 124.579063 
z
" clip-path="url(#p984ce342e6)" style="fill: none; stroke: #292929; stroke-width: 0.5; stroke-linejoin: miter"/>
   </g>
   <g id="patch_154">
    <path d="M 125.254844 124.579063 
C 125.254844 124.579063 125.254844 124.579063 125.254844 124.579063 
C 125.254844 124.579063 125.254844 124.579063 125.254844 124.579063 
L 65.109648 130.502847 
C 65.303542 132.471489 65.593974 134.429425 65.979896 136.369583 
C 66.365817 138.30974 66.846762 140.229781 67.420994 142.122769 
L 125.254844 124.579063 
z
" clip-path="url(#p984ce342e6)" style="fill: none; stroke: #292929; stroke-width: 0.5; stroke-linejoin: miter"/>
   </g>
   <g id="patch_155">
    <path d="M 125.254844 124.579063 
C 125.254844 124.579063 125.254844 124.579063 125.254844 124.579063 
C 125.254844 124.579063 125.254844 124.579063 125.254844 124.579063 
L 47.601835 116.930909 
C 47.351499 119.472608 47.226105 122.025065 47.226105 124.579062 
C 47.226105 127.13306 47.351499 129.685517 47.601835 132.227216 
L 125.254844 124.579063 
z
" clip-path="url(#p984ce342e6)" style="fill: none; stroke: #292929; stroke-width: 0.5; stroke-linejoin: miter"/>
   </g>
   <g id="patch_156">
    <path d="M 125.254844 124.579063 
C 125.254844 124.579063 125.254844 124.579063 125.254844 124.579063 
C 125.254844 124.579063 125.254844 124.579063 125.254844 124.579063 
L 56.199317 103.631298 
C 55.513666 105.891588 54.939401 108.18418 54.478598 110.500792 
C 54.017796 112.817404 53.67101 115.155244 53.439494 117.505868 
L 125.254844 124.579063 
z
" clip-path="url(#p984ce342e6)" style="fill: none; stroke: #292929; stroke-width: 0.5; stroke-linejoin: miter"/>
   </g>
   <g id="patch_157">
    <path d="M 125.254844 124.579063 
C 125.254844 124.579063 125.254844 124.579063 125.254844 124.579063 
C 125.254844 124.579063 125.254844 124.579063 125.254844 124.579063 
L 54.971583 87.011877 
C 53.741953 89.312353 52.626011 91.671814 51.627788 94.081737 
C 50.629565 96.491661 49.750264 98.949142 48.993062 101.445304 
L 125.254844 124.579063 
z
" clip-path="url(#p984ce342e6)" style="fill: none; stroke: #292929; stroke-width: 0.5; stroke-linejoin: miter"/>
   </g>
   <g id="patch_158">
    <path d="M 125.254844 124.579063 
C 125.254844 124.579063 125.254844 124.579063 125.254844 124.579063 
C 125.254844 124.579063 125.254844 124.579063 125.254844 124.579063 
L 55.406094 67.255675 
C 53.529814 69.541929 51.766914 71.918925 50.123761 74.378078 
C 48.480607 76.83723 46.959182 79.375575 45.56498 81.983943 
L 125.254844 124.579063 
z
" clip-path="url(#p984ce342e6)" style="fill: none; stroke: #292929; stroke-width: 0.5; stroke-linejoin: miter"/>
   </g>
   <g id="patch_159">
    <path d="M 125.254844 124.579063 
C 125.254844 124.579063 125.254844 124.579063 125.254844 124.579063 
C 125.254844 124.579063 125.254844 124.579063 125.254844 124.579063 
L 55.000644 38.974073 
C 52.198665 41.273598 49.511275 43.709306 46.948181 46.2724 
C 44.385087 48.835494 41.949379 51.522884 39.649854 54.324863 
L 125.254844 124.579063 
z
" clip-path="url(#p984ce342e6)" style="fill: none; stroke: #292929; stroke-width: 0.5; stroke-linejoin: miter"/>
   </g>
   <g id="patch_160">
    <path d="M 125.254844 124.579063 
C 125.254844 124.579063 125.254844 124.579063 125.254844 124.579063 
C 125.254844 124.579063 125.254844 124.579063 125.254844 124.579063 
L 72.986373 26.791632 
C 69.785645 28.502457 66.670842 30.369398 63.653216 32.385711 
C 60.63559 34.402025 57.718778 36.56528 54.913316 38.867663 
L 125.254844 124.579063 
z
" clip-path="url(#p984ce342e6)" style="fill: none; stroke: #292929; stroke-width: 0.5; stroke-linejoin: miter"/>
   </g>
   <g id="patch_161">
    <path d="M 125.254844 124.579063 
C 125.254844 124.579063 125.254844 124.579063 125.254844 124.579063 
C 125.254844 124.579063 125.254844 124.579063 125.254844 124.579063 
L 94.653668 23.700507 
C 91.351763 24.702129 88.101024 25.865262 84.913194 27.185704 
C 81.725364 28.506147 78.604285 29.982307 75.561231 31.608853 
L 125.254844 124.579063 
z
" clip-path="url(#p984ce342e6)" style="fill: none; stroke: #292929; stroke-width: 0.5; stroke-linejoin: miter"/>
   </g>
   <g id="patch_162">
    <path d="M 125.254844 124.579063 
C 125.254844 124.579063 125.254844 124.579063 125.254844 124.579063 
C 125.254844 124.579063 125.254844 124.579063 125.254844 124.579063 
L 116.25631 33.21542 
C 113.265842 33.509956 110.291637 33.951137 107.344438 34.537372 
C 104.397239 35.123606 101.480599 35.854186 98.605052 36.726474 
L 125.254844 124.579063 
z
" clip-path="url(#p984ce342e6)" style="fill: none; stroke: #292929; stroke-width: 0.5; stroke-linejoin: miter"/>
   </g>
   <g id="PathCollection_1">
    <defs>
     <path id="maf023fd6c9" d="M 0.193618 7.414054 
L 0.193618 7.414054 
C 0.054922 7.414054 -0.078235 7.358899 -0.176308 7.260826 
C -0.274381 7.162753 -0.329536 7.029596 -0.329536 6.890901 
L -0.329536 5.365008 
L -1.528416 6.56393 
L -1.528416 6.56393 
C -1.577018 6.612704 -1.634775 6.651408 -1.698366 6.677814 
C -1.761958 6.704221 -1.830141 6.717815 -1.898997 6.717815 
C -1.967853 6.717815 -2.036037 6.704221 -2.099628 6.677814 
C -2.163219 6.651408 -2.220976 6.612704 -2.269578 6.56393 
L -2.269578 6.56393 
C -2.318353 6.515327 -2.357056 6.457571 -2.383463 6.393979 
C -2.409869 6.330388 -2.423463 6.262205 -2.423463 6.193348 
C -2.423463 6.124492 -2.409869 6.056309 -2.383463 5.992718 
C -2.357056 5.929126 -2.318353 5.87137 -2.269578 5.822767 
L -0.329536 3.884106 
L -0.329536 0.820937 
L -2.98067 2.351538 
L -3.691824 5.001416 
L -3.691824 5.001416 
C -3.727584 5.135411 -3.815199 5.249836 -3.93523 5.319305 
C -4.055261 5.388775 -4.198123 5.407741 -4.332122 5.371997 
L -4.332122 5.371997 
C -4.466126 5.336237 -4.580558 5.248616 -4.650029 5.128576 
C -4.719499 5.008535 -4.73846 4.865662 -4.702703 4.731657 
L -4.262647 3.092721 
L -5.585535 3.855668 
L -5.585535 3.855668 
C -5.645013 3.890144 -5.710708 3.912561 -5.778854 3.921634 
C -5.847001 3.930706 -5.916272 3.926258 -5.982698 3.908543 
C -6.049125 3.890828 -6.111412 3.860192 -6.165991 3.818391 
C -6.220571 3.77659 -6.266379 3.724437 -6.300791 3.664922 
L -6.300791 3.664922 
C -6.335212 3.605364 -6.35755 3.539597 -6.366524 3.471396 
C -6.375498 3.403194 -6.370933 3.333888 -6.35309 3.267452 
C -6.335248 3.201017 -6.304476 3.138749 -6.26254 3.08422 
C -6.220605 3.029692 -6.168323 2.983966 -6.108695 2.949666 
L -4.785807 2.186762 
L -6.424743 1.746706 
L -6.424743 1.746706 
C -6.558747 1.710946 -6.673179 1.623325 -6.74265 1.503284 
C -6.81212 1.383244 -6.831081 1.240371 -6.795324 1.106366 
L -6.795324 1.106366 
C -6.777471 1.039969 -6.746703 0.977739 -6.704784 0.923241 
C -6.662864 0.868744 -6.61061 0.823041 -6.551015 0.788752 
C -6.491421 0.754464 -6.425647 0.732257 -6.357465 0.723406 
C -6.289282 0.714554 -6.220019 0.71923 -6.153645 0.737166 
L -3.505232 1.44698 
L -0.852424 -0.08496 
L -3.503767 -1.615666 
L -6.153645 -0.905851 
L -6.153645 -0.905851 
C -6.22011 -0.887939 -6.289462 -0.883321 -6.357716 -0.892262 
C -6.42597 -0.901202 -6.491793 -0.923527 -6.551403 -0.957953 
C -6.611013 -0.992379 -6.663247 -1.038234 -6.705103 -1.092883 
C -6.746958 -1.147533 -6.777619 -1.209911 -6.795324 -1.276432 
L -6.795324 -1.276432 
C -6.831068 -1.410431 -6.812101 -1.553293 -6.742632 -1.673324 
C -6.673162 -1.793355 -6.558738 -1.88097 -6.424743 -1.91673 
L -4.785807 -2.355447 
L -6.108695 -3.119732 
L -6.108695 -3.119732 
C -6.228699 -3.188976 -6.316415 -3.303132 -6.352417 -3.436921 
C -6.388419 -3.57071 -6.369839 -3.713469 -6.300791 -3.833586 
L -6.300791 -3.833586 
C -6.266491 -3.893214 -6.220765 -3.945496 -6.166237 -3.987431 
C -6.111708 -4.029367 -6.04944 -4.060139 -5.983005 -4.077981 
C -5.91657 -4.095823 -5.847263 -4.100389 -5.779062 -4.091415 
C -5.71086 -4.082441 -5.645094 -4.060102 -5.585535 -4.025682 
L -4.262647 -3.261396 
L -4.702703 -4.900332 
L -4.702703 -4.900332 
C -4.73846 -5.034337 -4.719499 -5.17721 -4.650029 -5.29725 
C -4.580558 -5.417291 -4.466126 -5.504912 -4.332122 -5.540672 
L -4.332122 -5.540672 
C -4.19831 -5.576464 -4.055613 -5.557686 -3.935617 -5.488496 
C -3.81562 -5.419305 -3.727882 -5.305212 -3.691824 -5.171472 
L -2.982009 -2.521594 
L -0.329411 -0.990302 
L -0.329411 -4.051588 
L -2.269453 -5.991589 
L -2.269453 -5.991589 
C -2.318227 -6.040191 -2.356931 -6.097947 -2.383337 -6.161539 
C -2.409744 -6.22513 -2.423338 -6.293314 -2.423338 -6.36217 
C -2.423338 -6.431026 -2.409744 -6.499209 -2.383337 -6.5628 
C -2.356931 -6.626392 -2.318227 -6.684149 -2.269453 -6.732751 
L -2.269453 -6.732751 
C -2.22085 -6.781526 -2.163094 -6.820229 -2.099502 -6.846635 
C -2.035911 -6.873042 -1.967728 -6.886636 -1.898871 -6.886636 
C -1.830015 -6.886636 -1.761832 -6.873042 -1.698241 -6.846635 
C -1.634649 -6.820229 -1.576893 -6.781526 -1.52829 -6.732751 
L -0.329411 -5.533829 
L -0.329411 -7.059722 
L -0.329411 -7.059722 
C -0.329411 -7.198418 -0.274255 -7.331575 -0.176182 -7.429647 
C -0.07811 -7.52772 0.055047 -7.582875 0.193743 -7.582875 
L 0.193743 -7.582875 
C 0.332439 -7.582875 0.465596 -7.52772 0.563669 -7.429647 
C 0.661741 -7.331575 0.716897 -7.198418 0.716897 -7.059722 
L 0.716897 -5.533829 
L 1.915777 -6.732751 
L 1.915777 -6.732751 
C 1.964379 -6.781526 2.022136 -6.820229 2.085727 -6.846635 
C 2.149318 -6.873042 2.217502 -6.886636 2.286358 -6.886636 
C 2.355214 -6.886636 2.423397 -6.873042 2.486989 -6.846635 
C 2.55058 -6.820229 2.608337 -6.781526 2.656939 -6.732751 
L 2.656939 -6.732751 
C 2.705714 -6.684149 2.744417 -6.626392 2.770823 -6.5628 
C 2.79723 -6.499209 2.810824 -6.431026 2.810824 -6.36217 
C 2.810824 -6.293314 2.79723 -6.22513 2.770823 -6.161539 
C 2.744417 -6.097947 2.705714 -6.040191 2.656939 -5.991589 
L 0.716897 -4.051588 
L 0.716897 -0.991139 
L 3.369495 -2.522954 
L 4.07931 -5.171367 
L 4.07931 -5.171367 
C 4.115368 -5.305107 4.203106 -5.4192 4.323103 -5.488391 
C 4.4431 -5.557582 4.585797 -5.576359 4.719608 -5.540567 
L 4.719608 -5.540567 
C 4.853612 -5.504807 4.968045 -5.417186 5.037515 -5.297146 
C 5.106986 -5.177105 5.125946 -5.034232 5.090189 -4.900227 
L 4.650133 -3.262673 
L 5.973022 -4.025577 
L 5.973022 -4.025577 
C 6.03258 -4.059998 6.098346 -4.082336 6.166548 -4.09131 
C 6.234749 -4.100284 6.304056 -4.095719 6.370491 -4.077876 
C 6.436926 -4.060034 6.499194 -4.029262 6.553723 -3.987327 
C 6.608252 -3.945391 6.653978 -3.893109 6.688277 -3.833481 
L 6.688277 -3.833481 
C 6.757325 -3.713365 6.775905 -3.570605 6.739903 -3.436816 
C 6.703901 -3.303027 6.616186 -3.188871 6.496181 -3.119628 
L 5.173293 -2.355342 
L 6.812229 -1.916625 
L 6.812229 -1.916625 
C 6.946224 -1.880865 7.060649 -1.79325 7.130118 -1.67322 
C 7.199588 -1.553189 7.218554 -1.410326 7.18281 -1.276327 
L 7.18281 -1.276327 
C 7.165106 -1.209806 7.134445 -1.147429 7.092589 -1.092779 
C 7.050733 -1.038129 6.998499 -0.992274 6.938889 -0.957848 
C 6.879279 -0.923422 6.813456 -0.901098 6.745202 -0.892157 
C 6.676949 -0.883217 6.607597 -0.887835 6.541131 -0.905746 
L 3.891253 -1.615561 
L 1.239492 -0.084604 
L 3.892718 1.447085 
L 6.541131 0.73727 
L 6.541131 0.73727 
C 6.674948 0.701466 6.817656 0.720237 6.937662 0.789429 
C 7.057669 0.858621 7.145413 0.972721 7.181471 1.10647 
L 7.181471 1.10647 
C 7.217274 1.240293 7.198497 1.383006 7.129297 1.503014 
C 7.060096 1.623021 6.945986 1.710762 6.812229 1.74681 
L 5.173293 2.186866 
L 6.496181 2.949771 
L 6.496181 2.949771 
C 6.555697 2.984183 6.607849 3.029991 6.649651 3.08457 
C 6.691452 3.13915 6.722088 3.201437 6.739803 3.267863 
C 6.757517 3.33429 6.761966 3.403561 6.752893 3.471707 
C 6.743821 3.539854 6.721404 3.605549 6.686927 3.665026 
L 6.686927 3.665026 
C 6.617458 3.784813 6.503196 3.87225 6.369416 3.907994 
C 6.235636 3.943739 6.092989 3.924946 5.973032 3.855772 
L 4.650144 3.091487 
L 5.08886 4.731783 
L 5.08886 4.731783 
C 5.124664 4.865606 5.105887 5.008319 5.036686 5.128326 
C 4.967486 5.248334 4.853376 5.336074 4.719619 5.372123 
L 4.719619 5.372123 
C 4.585619 5.407867 4.442757 5.3889 4.322726 5.319431 
C 4.202695 5.249961 4.115081 5.135537 4.07932 5.001542 
L 3.368166 2.351664 
L 0.717033 0.821063 
L 0.717033 3.884232 
L 2.657075 5.822893 
L 2.657075 5.822893 
C 2.70585 5.871495 2.744553 5.929252 2.770959 5.992843 
C 2.797366 6.056435 2.81096 6.124618 2.81096 6.193474 
C 2.81096 6.26233 2.797366 6.330514 2.770959 6.394105 
C 2.744553 6.457696 2.70585 6.515453 2.657075 6.564055 
L 2.657075 6.564055 
C 2.608473 6.61283 2.550716 6.651533 2.487125 6.67794 
C 2.423533 6.704346 2.35535 6.71794 2.286494 6.71794 
C 2.217638 6.71794 2.149454 6.704346 2.085863 6.67794 
C 2.022272 6.651533 1.964515 6.61283 1.915913 6.564055 
L 0.717033 5.365133 
L 0.717033 6.891026 
L 0.717033 6.891026 
C 0.717033 7.029722 0.661877 7.162879 0.563805 7.260952 
C 0.465732 7.359024 0.332575 7.41418 0.193879 7.41418 
L 0.193618 7.414054 
z
"/>
    </defs>
    <g clip-path="url(#p984ce342e6)">
     <use xlink:href="#maf023fd6c9" x="70.010602" y="67.176213" style="fill: #9e2096; fill-opacity: 0.7"/>
    </g>
   </g>
   <g id="patch_163">
    <path d="M 125.254844 13.699063 
C 110.694216 13.699063 96.275171 16.567189 82.822905 22.1393 
C 69.370638 27.711411 57.146763 35.879144 46.850844 46.175063 
C 36.554925 56.470982 28.387192 68.694857 22.815081 82.147124 
C 17.24297 95.59939 14.374844 110.018434 14.374844 124.579063 
C 14.374844 139.139691 17.24297 153.558735 22.815081 167.011001 
C 28.387192 180.463268 36.554925 192.687143 46.850844 202.983062 
C 57.146763 213.278981 69.370638 221.446714 82.822905 227.018825 
C 96.275171 232.590936 110.694216 235.459063 125.254844 235.459063 
C 139.815472 235.459063 154.234516 232.590936 167.686783 227.018825 
C 181.139049 221.446714 193.362925 213.278981 203.658844 202.983062 
C 213.954763 192.687143 222.122495 180.463268 227.694606 167.011001 
C 233.266717 153.558735 236.134844 139.139691 236.134844 124.579063 
C 236.134844 110.018434 233.266717 95.59939 227.694606 82.147124 
C 222.122495 68.694857 213.954763 56.470982 203.658844 46.175063 
C 193.362925 35.879144 181.139049 27.711411 167.686783 22.1393 
C 154.234516 16.567189 139.815472 13.699063 125.254844 13.699063 
" style="fill: none; stroke: #000000; stroke-width: 0.8; stroke-linejoin: miter; stroke-linecap: square"/>
   </g>
  </g>
 </g>
 <defs>
  <clipPath id="p984ce342e6">
   <path d="M 236.134844 124.579063 
C 236.134844 110.018434 233.266717 95.59939 227.694606 82.147124 
C 222.122495 68.694857 213.954763 56.470982 203.658844 46.175063 
C 193.362925 35.879144 181.139049 27.711411 167.686783 22.1393 
C 154.234516 16.567189 139.815472 13.699063 125.254844 13.699063 
C 110.694216 13.699063 96.275171 16.567189 82.822905 22.1393 
C 69.370638 27.711411 57.146763 35.879144 46.850844 46.175063 
C 36.554925 56.470982 28.387192 68.694857 22.815081 82.147124 
C 17.24297 95.59939 14.374844 110.018434 14.374844 124.579062 
C 14.374844 139.139691 17.24297 153.558735 22.815081 167.011001 
C 28.387192 180.463268 36.554925 192.687143 46.850844 202.983062 
C 57.146763 213.278981 69.370638 221.446714 82.822905 227.018825 
C 96.275171 232.590936 110.694216 235.459063 125.254844 235.459063 
C 139.815472 235.459063 154.234516 232.590936 167.686783 227.018825 
C 181.139049 221.446714 193.362925 213.278981 203.658844 202.983062 
C 213.954763 192.687143 222.122495 180.463268 227.694606 167.011001 
C 233.266717 153.558735 236.134844 139.139691 236.134844 124.579063 
M 125.254844 124.579063 
C 125.254844 124.579063 125.254844 124.579063 125.254844 124.579063 
C 125.254844 124.579063 125.254844 124.579063 125.254844 124.579063 
C 125.254844 124.579063 125.254844 124.579063 125.254844 124.579063 
C 125.254844 124.579063 125.254844 124.579063 125.254844 124.579063 
C 125.254844 124.579063 125.254844 124.579063 125.254844 124.579063 
C 125.254844 124.579063 125.254844 124.579063 125.254844 124.579063 
C 125.254844 124.579063 125.254844 124.579063 125.254844 124.579063 
C 125.254844 124.579063 125.254844 124.579063 125.254844 124.579063 
C 125.254844 124.579063 125.254844 124.579063 125.254844 124.579063 
C 125.254844 124.579063 125.254844 124.579063 125.254844 124.579063 
C 125.254844 124.579063 125.254844 124.579063 125.254844 124.579063 
C 125.254844 124.579063 125.254844 124.579063 125.254844 124.579063 
C 125.254844 124.579063 125.254844 124.579063 125.254844 124.579063 
C 125.254844 124.579063 125.254844 124.579063 125.254844 124.579063 
C 125.254844 124.579063 125.254844 124.579063 125.254844 124.579063 
C 125.254844 124.579063 125.254844 124.579063 125.254844 124.579063 
z
"/>
  </clipPath>
 </defs>
</svg>
