<?xml version="1.0" encoding="utf-8" standalone="no"?>
<!DOCTYPE svg PUBLIC "-//W3C//DTD SVG 1.1//EN"
  "http://www.w3.org/Graphics/SVG/1.1/DTD/svg11.dtd">
<svg xmlns:xlink="http://www.w3.org/1999/xlink" width="248.410469pt" height="249.158125pt" viewBox="0 0 248.410469 249.158125" xmlns="http://www.w3.org/2000/svg" version="1.1">
 <title>Ski Rose for Dévoluy</title>
 <metadata>
  <rdf:RDF xmlns:dc="http://purl.org/dc/elements/1.1/" xmlns:cc="http://creativecommons.org/ns#" xmlns:rdf="http://www.w3.org/1999/02/22-rdf-syntax-ns#">
   <cc:Work>
    <dc:type rdf:resource="http://purl.org/dc/dcmitype/StillImage"/>
    <dc:title>Ski Rose for Dévoluy</dc:title>
    <dc:date>2026-03-14T10:36:49.562836</dc:date>
    <dc:description>A 32-bin stacked histogram of downhill ski run orientations colored by difficulty.</dc:description>
    <dc:format>image/svg+xml</dc:format>
    <dc:source>https://openskimap.org/?obj=8e5dbdde0808be45e5e47253e905635c9f867c3b</dc:source>
    <dc:creator>
     <cc:Agent>
      <dc:title>https://github.com/dhimmel/openskistats</dc:title>
     </cc:Agent>
    </dc:creator>
    <dc:rights>
     <cc:Agent>
      <dc:title>https://creativecommons.org/licenses/by/4.0/</dc:title>
     </cc:Agent>
    </dc:rights>
   </cc:Work>
  </rdf:RDF>
 </metadata>
 <defs>
  <style type="text/css">*{stroke-linejoin: round; stroke-linecap: butt}</style>
 </defs>
 <g id="figure_1">
  <g id="patch_1">
   <path d="M 0 249.158125 
L 248.410469 249.158125 
L 248.410469 0 
L 0 0 
z
" style="fill: #ffffff"/>
  </g>
  <g id="axes_1">
   <g id="patch_2">
    <path d="M 236.134844 124.579063 
C 236.134844 110.018434 233.266717 95.59939 227.694606 82.147124 
C 222.122495 68.694857 213.954763 56.470982 203.658844 46.175063 
C 193.362925 35.879144 181.139049 27.711411 167.686783 22.1393 
C 154.234516 16.567189 139.815472 13.699062 125.254844 13.699062 
C 110.694216 13.699062 96.275171 16.567189 82.822905 22.1393 
C 69.370638 27.711411 57.146763 35.879144 46.850844 46.175063 
C 36.554925 56.470982 28.387192 68.694857 22.815081 82.147124 
C 17.24297 95.59939 14.374844 110.018434 14.374844 124.579062 
C 14.374844 139.139691 17.24297 153.558735 22.815081 167.011001 
C 28.387192 180.463268 36.554925 192.687143 46.850844 202.983062 
C 57.146763 213.278981 69.370638 221.446714 82.822905 227.018825 
C 96.275171 232.590936 110.694216 235.459063 125.254844 235.459063 
C 139.815472 235.459063 154.234516 232.590936 167.686783 227.018825 
C 181.139049 221.446714 193.362925 213.278981 203.658844 202.983062 
C 213.954763 192.687143 222.122495 180.463268 227.694606 167.011001 
C 233.266717 153.558735 236.134844 139.139691 236.134844 124.579063 
M 125.254844 124.579063 
C 125.254844 124.579063 125.254844 124.579063 125.254844 124.579063 
C 125.254844 124.579063 125.254844 124.579063 125.254844 124.579063 
C 125.254844 124.579063 125.254844 124.579063 125.254844 124.579063 
C 125.254844 124.579063 125.254844 124.579063 125.254844 124.579063 
C 125.254844 124.579063 125.254844 124.579063 125.254844 124.579063 
C 125.254844 124.579063 125.254844 124.579063 125.254844 124.579063 
C 125.254844 124.579063 125.254844 124.579063 125.254844 124.579063 
C 125.254844 124.579063 125.254844 124.579063 125.254844 124.579063 
C 125.254844 124.579063 125.254844 124.579063 125.254844 124.579063 
C 125.254844 124.579063 125.254844 124.579063 125.254844 124.579063 
C 125.254844 124.579063 125.254844 124.579063 125.254844 124.579063 
C 125.254844 124.579063 125.254844 124.579063 125.254844 124.579063 
C 125.254844 124.579063 125.254844 124.579063 125.254844 124.579063 
C 125.254844 124.579063 125.254844 124.579063 125.254844 124.579063 
C 125.254844 124.579063 125.254844 124.579063 125.254844 124.579063 
C 125.254844 124.579063 125.254844 124.579063 125.254844 124.579063 
z
" style="fill: #ffffff"/>
   </g>
   <g id="FillBetweenPolyCollection_1">
    <defs>
     <path id="mc167e3faa3" d="M 235.24467 -137.11082 
L 235.05613 -137.089339 
L 234.090052 -135.058701 
L 233.243052 -133.077919 
L 232.126821 -131.115633 
L 230.954333 -129.194002 
L 229.734633 -127.314962 
L 228.689526 -125.481723 
L 227.392094 -123.687724 
L 226.060392 -121.939376 
L 224.914225 -120.22784 
L 223.521756 -118.568801 
L 222.102138 -116.957015 
L 220.873498 -115.372033 
L 219.40497 -113.852011 
L 218.129608 -112.351868 
L 216.619147 -110.924576 
L 215.303271 -109.510124 
L 213.757605 -108.176045 
L 212.407281 -106.847699 
L 211.041236 -105.560677 
L 209.454216 -104.364582 
L 208.062541 -103.163536 
L 206.659325 -102.003602 
L 205.24591 -100.884629 
L 203.823628 -99.80642 
L 202.393806 -98.768727 
L 200.957763 -97.771253 
L 199.516809 -96.813651 
L 198.072245 -95.895525 
L 196.811835 -94.939186 
L 195.361062 -94.096011 
L 193.910394 -93.290926 
L 192.638993 -92.438472 
L 191.189086 -91.705462 
L 189.914661 -90.919292 
L 188.469942 -90.256065 
L 187.196451 -89.534187 
L 185.923268 -88.84263 
L 184.492474 -88.278196 
L 183.225814 -87.647481 
L 181.962043 -87.045386 
L 180.701955 -86.471319 
L 179.446324 -85.924655 
L 178.195902 -85.40474 
L 176.951416 -84.910887 
L 175.713569 -84.44238 
L 174.612885 -83.891433 
L 173.386421 -83.470812 
L 172.168489 -83.073376 
L 171.078221 -82.589673 
L 169.875076 -82.236043 
L 168.68211 -81.903207 
L 167.606721 -81.481479 
L 166.431454 -81.187969 
L 165.366935 -80.804397 
L 164.306615 -80.439064 
L 163.158789 -80.199244 
L 162.111426 -79.868453 
L 161.069186 -79.554263 
L 159.951605 -79.361363 
L 158.923932 -79.077901 
L 157.902081 -78.809324 
L 156.886241 -78.555094 
L 155.876576 -78.314672 
L 154.873227 -78.087514 
L 153.87631 -77.873075 
L 152.885916 -77.67081 
L 151.902113 -77.480174 
L 150.924941 -77.300624 
L 149.954419 -77.13162 
L 148.990537 -76.972627 
L 148.033263 -76.823114 
L 147.082538 -76.68256 
L 146.138279 -76.550449 
L 145.232067 -76.349778 
L 144.297659 -76.236059 
L 143.36942 -76.129428 
L 142.447176 -76.029414 
L 141.552484 -75.870549 
L 140.639278 -75.785871 
L 139.731526 -75.706601 
L 138.828974 -75.632331 
L 137.944773 -75.510746 
L 137.049889 -75.449164 
L 136.159448 -75.391569 
L 135.281584 -75.29606 
L 134.39753 -75.249541 
L 133.522858 -75.171359 
L 132.6443 -75.135059 
L 131.768691 -75.101479 
L 130.898329 -75.046829 
L 130.026607 -75.022403 
L 129.156785 -75.000192 
L 128.289183 -74.968057 
L 127.421507 -74.95431 
L 126.554745 -74.937818 
L 125.688104 -74.932301 
L 124.821585 -74.932558 
L 123.954989 -74.939616 
L 123.088303 -74.957132 
L 122.220771 -74.972412 
L 121.353325 -75.005564 
L 120.483744 -75.029294 
L 119.612315 -75.055228 
L 118.742232 -75.110869 
L 117.867013 -75.145931 
L 116.994637 -75.218014 
L 116.114621 -75.262831 
L 115.231098 -75.310779 
L 114.353706 -75.40721 
L 113.463887 -75.466191 
L 112.56967 -75.529135 
L 111.686052 -75.651581 
L 110.784251 -75.727161 
L 109.877295 -75.80771 
L 108.986528 -75.958192 
L 108.070957 -76.053263 
L 107.149627 -76.154461 
L 106.222341 -76.262241 
L 105.288925 -76.377071 
L 104.383557 -76.57839 
L 103.440357 -76.711541 
L 102.490725 -76.853094 
L 101.534575 -77.003564 
L 100.57185 -77.163473 
L 99.602514 -77.333349 
L 98.626558 -77.513727 
L 97.643997 -77.705147 
L 96.654872 -77.908151 
L 95.659248 -78.123283 
L 94.657216 -78.351089 
L 93.648889 -78.592113 
L 92.634408 -78.846898 
L 91.613935 -79.115984 
L 90.587659 -79.399907 
L 89.555789 -79.699199 
L 88.430929 -79.908082 
L 87.385012 -80.239186 
L 86.334268 -80.587354 
L 85.180053 -80.845103 
L 84.117019 -81.22884 
L 82.943506 -81.522732 
L 81.869622 -81.944524 
L 80.678433 -82.277628 
L 79.595347 -82.739843 
L 78.388337 -83.11508 
L 77.172208 -83.512612 
L 76.077131 -84.040084 
L 74.848415 -84.483978 
L 73.612388 -84.952413 
L 72.369728 -85.446135 
L 71.121136 -85.965864 
L 69.867338 -86.512285 
L 68.609086 -87.086054 
L 67.347153 -87.687795 
L 66.082332 -88.318101 
L 64.815437 -88.977531 
L 63.382325 -89.573276 
L 62.110677 -90.294577 
L 60.839588 -91.046603 
L 59.395512 -91.742811 
L 58.12536 -92.559941 
L 56.678189 -93.32688 
L 55.412989 -94.21096 
L 53.967209 -95.050757 
L 52.522474 -95.92902 
L 51.080064 -96.846249 
L 49.834989 -97.871491 
L 48.403478 -98.864955 
L 46.978069 -99.89849 
L 45.560079 -100.972398 
L 43.948365 -102.03078 
L 42.547321 -103.189443 
L 41.15782 -104.389153 
L 39.781206 -105.630013 
L 38.418829 -106.912076 
L 36.861328 -108.196293 
L 35.530269 -109.564318 
L 34.004525 -110.941611 
L 32.710795 -112.395407 
L 31.223446 -113.865538 
L 29.973153 -115.404479 
L 28.531003 -116.966731 
L 27.33044 -118.589749 
L 25.940617 -120.24291 
L 24.796463 -121.948467 
L 23.466793 -123.690772 
L 22.170913 -125.478662 
L 20.911967 -127.311377 
L 19.906859 -129.178655 
L 18.732776 -131.094231 
L 17.612233 -133.05072 
L 16.758166 -135.026104 
L 15.778735 -137.05229 
L 15.164576 -137.122264 
L 15.164576 -137.122264 
L 14.915513 -135.203532 
L 14.839726 -133.268921 
L 14.608702 -131.34647 
L 14.598497 -129.410423 
L 14.432052 -127.481059 
L 14.486598 -125.545722 
L 14.435588 -123.611958 
L 14.417945 -121.676696 
L 14.516475 -119.744121 
L 14.697834 -117.817106 
L 14.72177 -115.879921 
L 15.021178 -113.964768 
L 15.10774 -112.029385 
L 15.410795 -110.117819 
L 15.61946 -108.193945 
L 15.920163 -106.282712 
L 16.310946 -104.387505 
L 16.615071 -102.476051 
L 17.066216 -100.594221 
L 17.5463 -98.720529 
L 17.946352 -96.8272 
L 18.417923 -94.950562 
L 18.986598 -93.100974 
L 19.584489 -91.261328 
L 20.11209 -89.398789 
L 20.770805 -87.579324 
L 21.458981 -85.77138 
L 22.106956 -83.948029 
L 22.855353 -82.163805 
L 23.634473 -80.393268 
L 24.379043 -78.607312 
L 25.223398 -76.86651 
L 26.041219 -75.112974 
L 26.955502 -73.407664 
L 27.85413 -71.69479 
L 28.758228 -69.983904 
L 29.730212 -68.310755 
L 30.741316 -66.661098 
L 31.766845 -65.020639 
L 32.800628 -63.384952 
L 34.31841 -62.080183 
L 36.149215 -61.020635 
L 37.99973 -60.013674 
L 39.932546 -59.108961 
L 41.807576 -58.202109 
L 43.681303 -57.335024 
L 45.493767 -56.456667 
L 47.368923 -55.671421 
L 49.235292 -54.919977 
L 51.039794 -54.15161 
L 52.8976 -53.473797 
L 54.691019 -52.772793 
L 56.528388 -52.156489 
L 58.307173 -51.5185 
L 60.078456 -50.910558 
L 61.841612 -50.331707 
L 63.59607 -49.780989 
L 65.341317 -49.257436 
L 67.037934 -48.709308 
L 68.765256 -48.237766 
L 70.482122 -47.790539 
L 72.151115 -47.312658 
L 73.816119 -46.863627 
L 75.503513 -46.485116 
L 77.147627 -46.07522 
L 78.786904 -45.692155 
L 80.414559 -45.324128 
L 82.036966 -44.981634 
L 83.647675 -44.652434 
L 85.252854 -44.347482 
L 86.846413 -44.054113 
L 88.434291 -43.783734 
L 90.010782 -43.52327 
L 91.581566 -43.284579 
L 93.127692 -43.019536 
L 94.680646 -42.804655 
L 96.214411 -42.57141 
L 97.755134 -42.391094 
L 99.276917 -42.187606 
L 100.801527 -42.02605 
L 102.312111 -41.85024 
L 103.825837 -41.719243 
L 105.325978 -41.569365 
L 106.821722 -41.432624 
L 108.313291 -41.308669 
L 109.804019 -41.213872 
L 111.287373 -41.112746 
L 112.767375 -41.023456 
L 114.244309 -40.945745 
L 115.71847 -40.879381 
L 117.191621 -40.839291 
L 118.660754 -40.793206 
L 120.128123 -40.757914 
L 121.594058 -40.733292 
L 123.058887 -40.71887 
L 124.52296 -40.713434 
L 125.986737 -40.712346 
L 127.450861 -40.716539 
L 128.915719 -40.731241 
L 130.381862 -40.75306 
L 131.84941 -40.787152 
L 133.318764 -40.832045 
L 134.790248 -40.887892 
L 136.264177 -40.954872 
L 137.740858 -41.033189 
L 139.220586 -41.123075 
L 140.708161 -41.200423 
L 142.195609 -41.31254 
L 143.686973 -41.437101 
L 145.182491 -41.574437 
L 146.688399 -41.701653 
L 148.193752 -41.864031 
L 149.71413 -42.005897 
L 151.23041 -42.195092 
L 152.75187 -42.399113 
L 154.289671 -42.587239 
L 155.838069 -42.780511 
L 157.37819 -43.029198 
L 158.938634 -43.259198 
L 160.49127 -43.540829 
L 162.070317 -43.79488 
L 163.654518 -44.072471 
L 165.250812 -44.35956 
L 166.852089 -44.671498 
L 168.465705 -44.994557 
L 170.083998 -45.3438 
L 171.714725 -45.705835 
L 173.349693 -46.095402 
L 175.026762 -46.452801 
L 176.683843 -46.878321 
L 178.344273 -47.333464 
L 180.051549 -47.756916 
L 181.732973 -48.253251 
L 183.459685 -48.725037 
L 185.196484 -49.222093 
L 186.942957 -49.745397 
L 188.649786 -50.353122 
L 190.41227 -50.931989 
L 192.235517 -51.482484 
L 194.015509 -52.12044 
L 195.802298 -52.789451 
L 197.595116 -53.490475 
L 199.447635 -54.172732 
L 201.251528 -54.940931 
L 203.122005 -55.688017 
L 204.991876 -56.477203 
L 206.870499 -57.300309 
L 208.744149 -58.168671 
L 210.620793 -59.075466 
L 212.484507 -60.032507 
L 214.339562 -61.03555 
L 216.166301 -62.097349 
L 217.710505 -63.383996 
L 218.766234 -65.005737 
L 219.77878 -66.65472 
L 220.76612 -68.318621 
L 221.717204 -70.003285 
L 222.65981 -71.692481 
L 223.545395 -73.41224 
L 224.462628 -75.115886 
L 225.313606 -76.853481 
L 226.109229 -78.617071 
L 226.855895 -80.401668 
L 227.675115 -82.155197 
L 228.3111 -83.984123 
L 229.061527 -85.767334 
L 229.764829 -87.570136 
L 230.343637 -89.416844 
L 230.945063 -91.255064 
L 231.500246 -93.107741 
L 232.009491 -94.973379 
L 232.581678 -96.822456 
L 233.070948 -98.694706 
L 233.446566 -100.593535 
L 233.905415 -102.473854 
L 234.249216 -104.37815 
L 234.495418 -106.29846 
L 234.842248 -108.201115 
L 235.154101 -110.110551 
L 235.321596 -112.03854 
L 235.595393 -113.954476 
L 235.64258 -115.891359 
L 235.840196 -117.815373 
L 235.97149 -119.745069 
L 236.068338 -121.677309 
L 235.997331 -123.612627 
L 236.05186 -125.545973 
L 236.045034 -127.480206 
L 236.004341 -129.41449 
L 235.795326 -131.340008 
L 235.716006 -133.272544 
L 235.60464 -135.204539 
L 235.24467 -137.11082 
z
" style="stroke: #ffee9c"/>
    </defs>
    <g clip-path="url(#pf9f9940c64)">
     <use xlink:href="#mc167e3faa3" x="0" y="249.158125" style="fill: #ffee9c; stroke: #ffee9c"/>
    </g>
   </g>
   <g id="matplotlib.axis_1">
    <g id="xtick_1">
     <g id="line2d_1">
      <path d="M 125.254844 124.579062 
L 125.254844 13.699062 
" clip-path="url(#pf9f9940c64)" style="fill: none; stroke: #b0b0b0; stroke-width: 0.8; stroke-linecap: square"/>
     </g>
     <g id="text_1">
      <!-- N -->
      <g transform="translate(121.070469 7.958437) scale(0.1 -0.1)">
       <defs>
        <path id="DejaVuSans-Bold-4e" d="M 588 4666 
L 1931 4666 
L 3628 1466 
L 3628 4666 
L 4769 4666 
L 4769 0 
L 3425 0 
L 1728 3200 
L 1728 0 
L 588 0 
L 588 4666 
z
" transform="scale(0.015625)"/>
       </defs>
       <use xlink:href="#DejaVuSans-Bold-4e"/>
      </g>
     </g>
    </g>
    <g id="xtick_2">
     <g id="line2d_2">
      <path d="M 125.254844 124.579062 
L 203.658844 46.175063 
" clip-path="url(#pf9f9940c64)" style="fill: none; stroke: #b0b0b0; stroke-width: 0.8; stroke-linecap: square"/>
     </g>
    </g>
    <g id="xtick_3">
     <g id="line2d_3">
      <path d="M 125.254844 124.579062 
L 236.134844 124.579062 
" clip-path="url(#pf9f9940c64)" style="fill: none; stroke: #b0b0b0; stroke-width: 0.8; stroke-linecap: square"/>
     </g>
     <g id="text_2">
      <!-- E -->
      <g transform="translate(241.219219 127.338437) scale(0.1 -0.1)">
       <defs>
        <path id="DejaVuSans-Bold-45" d="M 588 4666 
L 3834 4666 
L 3834 3756 
L 1791 3756 
L 1791 2888 
L 3713 2888 
L 3713 1978 
L 1791 1978 
L 1791 909 
L 3903 909 
L 3903 0 
L 588 0 
L 588 4666 
z
" transform="scale(0.015625)"/>
       </defs>
       <use xlink:href="#DejaVuSans-Bold-45"/>
      </g>
     </g>
    </g>
    <g id="xtick_4">
     <g id="line2d_4">
      <path d="M 125.254844 124.579062 
L 203.658844 202.983062 
" clip-path="url(#pf9f9940c64)" style="fill: none; stroke: #b0b0b0; stroke-width: 0.8; stroke-linecap: square"/>
     </g>
    </g>
    <g id="xtick_5">
     <g id="line2d_5">
      <path d="M 125.254844 124.579062 
L 125.254844 235.459063 
" clip-path="url(#pf9f9940c64)" style="fill: none; stroke: #b0b0b0; stroke-width: 0.8; stroke-linecap: square"/>
     </g>
     <g id="text_3">
      <!-- S -->
      <g transform="translate(121.654062 246.718437) scale(0.1 -0.1)">
       <defs>
        <path id="DejaVuSans-Bold-53" d="M 3834 4519 
L 3834 3531 
Q 3450 3703 3084 3790 
Q 2719 3878 2394 3878 
Q 1963 3878 1756 3759 
Q 1550 3641 1550 3391 
Q 1550 3203 1689 3098 
Q 1828 2994 2194 2919 
L 2706 2816 
Q 3484 2659 3812 2340 
Q 4141 2022 4141 1434 
Q 4141 663 3683 286 
Q 3225 -91 2284 -91 
Q 1841 -91 1394 -6 
Q 947 78 500 244 
L 500 1259 
Q 947 1022 1364 901 
Q 1781 781 2169 781 
Q 2563 781 2772 912 
Q 2981 1044 2981 1288 
Q 2981 1506 2839 1625 
Q 2697 1744 2272 1838 
L 1806 1941 
Q 1106 2091 782 2419 
Q 459 2747 459 3303 
Q 459 4000 909 4375 
Q 1359 4750 2203 4750 
Q 2588 4750 2994 4692 
Q 3400 4634 3834 4519 
z
" transform="scale(0.015625)"/>
       </defs>
       <use xlink:href="#DejaVuSans-Bold-53"/>
      </g>
     </g>
    </g>
    <g id="xtick_6">
     <g id="line2d_6">
      <path d="M 125.254844 124.579062 
L 46.850844 202.983062 
" clip-path="url(#pf9f9940c64)" style="fill: none; stroke: #b0b0b0; stroke-width: 0.8; stroke-linecap: square"/>
     </g>
    </g>
    <g id="xtick_7">
     <g id="line2d_7">
      <path d="M 125.254844 124.579062 
L 14.374844 124.579063 
" clip-path="url(#pf9f9940c64)" style="fill: none; stroke: #b0b0b0; stroke-width: 0.8; stroke-linecap: square"/>
     </g>
     <g id="text_4">
      <!-- W -->
      <g transform="translate(0.36 127.338438) scale(0.1 -0.1)">
       <defs>
        <path id="DejaVuSans-Bold-57" d="M 191 4666 
L 1344 4666 
L 2150 1275 
L 2950 4666 
L 4109 4666 
L 4909 1275 
L 5716 4666 
L 6859 4666 
L 5759 0 
L 4372 0 
L 3525 3547 
L 2688 0 
L 1300 0 
L 191 4666 
z
" transform="scale(0.015625)"/>
       </defs>
       <use xlink:href="#DejaVuSans-Bold-57"/>
      </g>
     </g>
    </g>
    <g id="xtick_8">
     <g id="line2d_8">
      <path d="M 125.254844 124.579062 
L 46.850844 46.175063 
" clip-path="url(#pf9f9940c64)" style="fill: none; stroke: #b0b0b0; stroke-width: 0.8; stroke-linecap: square"/>
     </g>
    </g>
   </g>
   <g id="matplotlib.axis_2"/>
   <g id="patch_3">
    <path d="M 125.254844 124.579062 
C 125.254844 124.579062 125.254844 124.579062 125.254844 124.579062 
C 125.254844 124.579062 125.254844 124.579062 125.254844 124.579062 
L 125.254844 124.579062 
C 125.254844 124.579062 125.254844 124.579062 125.254844 124.579062 
C 125.254844 124.579062 125.254844 124.579062 125.254844 124.579062 
z
" clip-path="url(#pf9f9940c64)" style="fill: #d9d9d9"/>
   </g>
   <g id="patch_4">
    <path d="M 125.254844 124.579062 
C 125.254844 124.579062 125.254844 124.579062 125.254844 124.579062 
C 125.254844 124.579062 125.254844 124.579062 125.254844 124.579062 
L 125.254844 124.579062 
C 125.254844 124.579062 125.254844 124.579062 125.254844 124.579062 
C 125.254844 124.579062 125.254844 124.579062 125.254844 124.579062 
z
" clip-path="url(#pf9f9940c64)" style="fill: #d9d9d9"/>
   </g>
   <g id="patch_5">
    <path d="M 125.254844 124.579062 
C 125.254844 124.579062 125.254844 124.579062 125.254844 124.579062 
C 125.254844 124.579062 125.254844 124.579062 125.254844 124.579062 
L 127.302901 120.747417 
C 127.177486 120.680381 127.048854 120.619543 126.917472 120.565123 
C 126.78609 120.510702 126.652115 120.462765 126.516031 120.421485 
z
" clip-path="url(#pf9f9940c64)" style="fill: #d9d9d9"/>
   </g>
   <g id="patch_6">
    <path d="M 125.254844 124.579062 
C 125.254844 124.579062 125.254844 124.579062 125.254844 124.579062 
C 125.254844 124.579062 125.254844 124.579062 125.254844 124.579062 
L 125.254844 124.579062 
C 125.254844 124.579062 125.254844 124.579062 125.254844 124.579062 
C 125.254844 124.579062 125.254844 124.579062 125.254844 124.579062 
z
" clip-path="url(#pf9f9940c64)" style="fill: #d9d9d9"/>
   </g>
   <g id="patch_7">
    <path d="M 125.254844 124.579062 
C 125.254844 124.579062 125.254844 124.579062 125.254844 124.579062 
C 125.254844 124.579062 125.254844 124.579062 125.254844 124.579062 
L 127.947607 122.369169 
C 127.875274 122.281031 127.798657 122.196497 127.718033 122.115873 
C 127.637409 122.03525 127.552875 121.958633 127.464737 121.8863 
z
" clip-path="url(#pf9f9940c64)" style="fill: #d9d9d9"/>
   </g>
   <g id="patch_8">
    <path d="M 125.254844 124.579062 
C 125.254844 124.579062 125.254844 124.579062 125.254844 124.579062 
C 125.254844 124.579062 125.254844 124.579062 125.254844 124.579062 
L 129.834536 122.131166 
C 129.754413 121.981266 129.666978 121.83539 129.572548 121.694065 
C 129.478118 121.55274 129.376806 121.416136 129.268978 121.284748 
z
" clip-path="url(#pf9f9940c64)" style="fill: #d9d9d9"/>
   </g>
   <g id="patch_9">
    <path d="M 125.254844 124.579062 
C 125.254844 124.579062 125.254844 124.579062 125.254844 124.579062 
C 125.254844 124.579062 125.254844 124.579062 125.254844 124.579062 
L 129.768395 123.209892 
C 129.72358 123.062157 129.671538 122.916711 129.612458 122.774079 
C 129.553379 122.631448 129.487332 122.491804 129.414556 122.35565 
z
" clip-path="url(#pf9f9940c64)" style="fill: #d9d9d9"/>
   </g>
   <g id="patch_10">
    <path d="M 125.254844 124.579062 
C 125.254844 124.579062 125.254844 124.579062 125.254844 124.579062 
C 125.254844 124.579062 125.254844 124.579062 125.254844 124.579062 
L 125.254844 124.579062 
C 125.254844 124.579062 125.254844 124.579062 125.254844 124.579062 
C 125.254844 124.579062 125.254844 124.579062 125.254844 124.579062 
z
" clip-path="url(#pf9f9940c64)" style="fill: #d9d9d9"/>
   </g>
   <g id="patch_11">
    <path d="M 125.254844 124.579062 
C 125.254844 124.579062 125.254844 124.579062 125.254844 124.579062 
C 125.254844 124.579062 125.254844 124.579062 125.254844 124.579062 
L 127.838771 124.833557 
C 127.847101 124.748981 127.851273 124.664048 127.851273 124.579062 
C 127.851273 124.494077 127.847101 124.409144 127.838771 124.324568 
z
" clip-path="url(#pf9f9940c64)" style="fill: #d9d9d9"/>
   </g>
   <g id="patch_12">
    <path d="M 125.254844 124.579062 
C 125.254844 124.579062 125.254844 124.579062 125.254844 124.579062 
C 125.254844 124.579062 125.254844 124.579062 125.254844 124.579062 
L 126.82626 125.055747 
C 126.841863 125.004312 126.854931 124.952142 126.865417 124.899425 
C 126.875903 124.846709 126.883794 124.793509 126.889063 124.740019 
z
" clip-path="url(#pf9f9940c64)" style="fill: #d9d9d9"/>
   </g>
   <g id="patch_13">
    <path d="M 125.254844 124.579062 
C 125.254844 124.579062 125.254844 124.579062 125.254844 124.579062 
C 125.254844 124.579062 125.254844 124.579062 125.254844 124.579062 
L 127.302945 125.673795 
C 127.338777 125.606758 127.371296 125.538002 127.400385 125.467775 
C 127.429474 125.397548 127.455097 125.325935 127.477163 125.253196 
z
" clip-path="url(#pf9f9940c64)" style="fill: #d9d9d9"/>
   </g>
   <g id="patch_14">
    <path d="M 125.254844 124.579062 
C 125.254844 124.579062 125.254844 124.579062 125.254844 124.579062 
C 125.254844 124.579062 125.254844 124.579062 125.254844 124.579062 
L 125.254844 124.579062 
C 125.254844 124.579062 125.254844 124.579062 125.254844 124.579062 
C 125.254844 124.579062 125.254844 124.579062 125.254844 124.579062 
z
" clip-path="url(#pf9f9940c64)" style="fill: #d9d9d9"/>
   </g>
   <g id="patch_15">
    <path d="M 125.254844 124.579062 
C 125.254844 124.579062 125.254844 124.579062 125.254844 124.579062 
C 125.254844 124.579062 125.254844 124.579062 125.254844 124.579062 
L 125.254844 124.579062 
C 125.254844 124.579062 125.254844 124.579062 125.254844 124.579062 
C 125.254844 124.579062 125.254844 124.579062 125.254844 124.579062 
z
" clip-path="url(#pf9f9940c64)" style="fill: #d9d9d9"/>
   </g>
   <g id="patch_16">
    <path d="M 125.254844 124.579062 
C 125.254844 124.579062 125.254844 124.579062 125.254844 124.579062 
C 125.254844 124.579062 125.254844 124.579062 125.254844 124.579062 
L 125.254844 124.579062 
C 125.254844 124.579062 125.254844 124.579062 125.254844 124.579062 
C 125.254844 124.579062 125.254844 124.579062 125.254844 124.579062 
z
" clip-path="url(#pf9f9940c64)" style="fill: #d9d9d9"/>
   </g>
   <g id="patch_17">
    <path d="M 125.254844 124.579062 
C 125.254844 124.579062 125.254844 124.579062 125.254844 124.579062 
C 125.254844 124.579062 125.254844 124.579062 125.254844 124.579062 
L 125.254844 124.579062 
C 125.254844 124.579062 125.254844 124.579062 125.254844 124.579062 
C 125.254844 124.579062 125.254844 124.579062 125.254844 124.579062 
z
" clip-path="url(#pf9f9940c64)" style="fill: #d9d9d9"/>
   </g>
   <g id="patch_18">
    <path d="M 125.254844 124.579062 
C 125.254844 124.579062 125.254844 124.579062 125.254844 124.579062 
C 125.254844 124.579062 125.254844 124.579062 125.254844 124.579062 
L 125.254844 124.579062 
C 125.254844 124.579062 125.254844 124.579062 125.254844 124.579062 
C 125.254844 124.579062 125.254844 124.579062 125.254844 124.579062 
z
" clip-path="url(#pf9f9940c64)" style="fill: #d9d9d9"/>
   </g>
   <g id="patch_19">
    <path d="M 125.254844 124.579062 
C 125.254844 124.579062 125.254844 124.579062 125.254844 124.579062 
C 125.254844 124.579062 125.254844 124.579062 125.254844 124.579062 
L 124.987928 127.289108 
C 125.076631 127.297844 125.165711 127.302221 125.254844 127.302221 
C 125.343977 127.302221 125.433056 127.297844 125.52176 127.289108 
z
" clip-path="url(#pf9f9940c64)" style="fill: #d9d9d9"/>
   </g>
   <g id="patch_20">
    <path d="M 125.254844 124.579062 
C 125.254844 124.579062 125.254844 124.579062 125.254844 124.579062 
C 125.254844 124.579062 125.254844 124.579062 125.254844 124.579062 
L 125.254844 124.579062 
C 125.254844 124.579062 125.254844 124.579062 125.254844 124.579062 
C 125.254844 124.579062 125.254844 124.579062 125.254844 124.579062 
z
" clip-path="url(#pf9f9940c64)" style="fill: #d9d9d9"/>
   </g>
   <g id="patch_21">
    <path d="M 125.254844 124.579062 
C 125.254844 124.579062 125.254844 124.579062 125.254844 124.579062 
C 125.254844 124.579062 125.254844 124.579062 125.254844 124.579062 
L 125.254844 124.579062 
C 125.254844 124.579062 125.254844 124.579062 125.254844 124.579062 
C 125.254844 124.579062 125.254844 124.579062 125.254844 124.579062 
z
" clip-path="url(#pf9f9940c64)" style="fill: #d9d9d9"/>
   </g>
   <g id="patch_22">
    <path d="M 125.254844 124.579062 
C 125.254844 124.579062 125.254844 124.579062 125.254844 124.579062 
C 125.254844 124.579062 125.254844 124.579062 125.254844 124.579062 
L 125.254844 124.579062 
C 125.254844 124.579062 125.254844 124.579062 125.254844 124.579062 
C 125.254844 124.579062 125.254844 124.579062 125.254844 124.579062 
z
" clip-path="url(#pf9f9940c64)" style="fill: #d9d9d9"/>
   </g>
   <g id="patch_23">
    <path d="M 125.254844 124.579062 
C 125.254844 124.579062 125.254844 124.579062 125.254844 124.579062 
C 125.254844 124.579062 125.254844 124.579062 125.254844 124.579062 
L 125.254844 124.579062 
C 125.254844 124.579062 125.254844 124.579062 125.254844 124.579062 
C 125.254844 124.579062 125.254844 124.579062 125.254844 124.579062 
z
" clip-path="url(#pf9f9940c64)" style="fill: #d9d9d9"/>
   </g>
   <g id="patch_24">
    <path d="M 125.254844 124.579062 
C 125.254844 124.579062 125.254844 124.579062 125.254844 124.579062 
C 125.254844 124.579062 125.254844 124.579062 125.254844 124.579062 
L 125.254844 124.579062 
C 125.254844 124.579062 125.254844 124.579062 125.254844 124.579062 
C 125.254844 124.579062 125.254844 124.579062 125.254844 124.579062 
z
" clip-path="url(#pf9f9940c64)" style="fill: #d9d9d9"/>
   </g>
   <g id="patch_25">
    <path d="M 125.254844 124.579062 
C 125.254844 124.579062 125.254844 124.579062 125.254844 124.579062 
C 125.254844 124.579062 125.254844 124.579062 125.254844 124.579062 
L 125.254844 124.579062 
C 125.254844 124.579062 125.254844 124.579062 125.254844 124.579062 
C 125.254844 124.579062 125.254844 124.579062 125.254844 124.579062 
z
" clip-path="url(#pf9f9940c64)" style="fill: #d9d9d9"/>
   </g>
   <g id="patch_26">
    <path d="M 125.254844 124.579062 
C 125.254844 124.579062 125.254844 124.579062 125.254844 124.579062 
C 125.254844 124.579062 125.254844 124.579062 125.254844 124.579062 
L 125.254844 124.579062 
C 125.254844 124.579062 125.254844 124.579062 125.254844 124.579062 
C 125.254844 124.579062 125.254844 124.579062 125.254844 124.579062 
z
" clip-path="url(#pf9f9940c64)" style="fill: #d9d9d9"/>
   </g>
   <g id="patch_27">
    <path d="M 125.254844 124.579062 
C 125.254844 124.579062 125.254844 124.579062 125.254844 124.579062 
C 125.254844 124.579062 125.254844 124.579062 125.254844 124.579062 
L 125.254844 124.579062 
C 125.254844 124.579062 125.254844 124.579062 125.254844 124.579062 
C 125.254844 124.579062 125.254844 124.579062 125.254844 124.579062 
z
" clip-path="url(#pf9f9940c64)" style="fill: #d9d9d9"/>
   </g>
   <g id="patch_28">
    <path d="M 125.254844 124.579062 
C 125.254844 124.579062 125.254844 124.579062 125.254844 124.579062 
C 125.254844 124.579062 125.254844 124.579062 125.254844 124.579062 
L 125.254844 124.579062 
C 125.254844 124.579062 125.254844 124.579062 125.254844 124.579062 
C 125.254844 124.579062 125.254844 124.579062 125.254844 124.579062 
z
" clip-path="url(#pf9f9940c64)" style="fill: #d9d9d9"/>
   </g>
   <g id="patch_29">
    <path d="M 125.254844 124.579062 
C 125.254844 124.579062 125.254844 124.579062 125.254844 124.579062 
C 125.254844 124.579062 125.254844 124.579062 125.254844 124.579062 
L 125.254844 124.579062 
C 125.254844 124.579062 125.254844 124.579062 125.254844 124.579062 
C 125.254844 124.579062 125.254844 124.579062 125.254844 124.579062 
z
" clip-path="url(#pf9f9940c64)" style="fill: #d9d9d9"/>
   </g>
   <g id="patch_30">
    <path d="M 125.254844 124.579062 
C 125.254844 124.579062 125.254844 124.579062 125.254844 124.579062 
C 125.254844 124.579062 125.254844 124.579062 125.254844 124.579062 
L 125.254844 124.579062 
C 125.254844 124.579062 125.254844 124.579062 125.254844 124.579062 
C 125.254844 124.579062 125.254844 124.579062 125.254844 124.579062 
z
" clip-path="url(#pf9f9940c64)" style="fill: #d9d9d9"/>
   </g>
   <g id="patch_31">
    <path d="M 125.254844 124.579062 
C 125.254844 124.579062 125.254844 124.579062 125.254844 124.579062 
C 125.254844 124.579062 125.254844 124.579062 125.254844 124.579062 
L 125.254844 124.579062 
C 125.254844 124.579062 125.254844 124.579062 125.254844 124.579062 
C 125.254844 124.579062 125.254844 124.579062 125.254844 124.579062 
z
" clip-path="url(#pf9f9940c64)" style="fill: #d9d9d9"/>
   </g>
   <g id="patch_32">
    <path d="M 125.254844 124.579062 
C 125.254844 124.579062 125.254844 124.579062 125.254844 124.579062 
C 125.254844 124.579062 125.254844 124.579062 125.254844 124.579062 
L 125.254844 124.579062 
C 125.254844 124.579062 125.254844 124.579062 125.254844 124.579062 
C 125.254844 124.579062 125.254844 124.579062 125.254844 124.579062 
z
" clip-path="url(#pf9f9940c64)" style="fill: #d9d9d9"/>
   </g>
   <g id="patch_33">
    <path d="M 125.254844 124.579062 
C 125.254844 124.579062 125.254844 124.579062 125.254844 124.579062 
C 125.254844 124.579062 125.254844 124.579062 125.254844 124.579062 
L 125.254844 124.579062 
C 125.254844 124.579062 125.254844 124.579062 125.254844 124.579062 
C 125.254844 124.579062 125.254844 124.579062 125.254844 124.579062 
z
" clip-path="url(#pf9f9940c64)" style="fill: #d9d9d9"/>
   </g>
   <g id="patch_34">
    <path d="M 125.254844 124.579062 
C 125.254844 124.579062 125.254844 124.579062 125.254844 124.579062 
C 125.254844 124.579062 125.254844 124.579062 125.254844 124.579062 
L 125.254844 124.579062 
C 125.254844 124.579062 125.254844 124.579062 125.254844 124.579062 
C 125.254844 124.579062 125.254844 124.579062 125.254844 124.579062 
z
" clip-path="url(#pf9f9940c64)" style="fill: #d9d9d9"/>
   </g>
   <g id="patch_35">
    <path d="M 125.254844 124.579062 
C 125.254844 124.579062 125.254844 124.579062 125.254844 124.579062 
C 125.254844 124.579062 125.254844 124.579062 125.254844 124.579062 
L 132.010705 55.985656 
C 129.76554 55.764527 127.510872 55.653762 125.254844 55.653762 
C 122.998816 55.653762 120.744148 55.764527 118.498983 55.985656 
z
" clip-path="url(#pf9f9940c64)" style="fill: #a1a1d8"/>
   </g>
   <g id="patch_36">
    <path d="M 125.254844 124.579062 
C 125.254844 124.579062 125.254844 124.579062 125.254844 124.579062 
C 125.254844 124.579062 125.254844 124.579062 125.254844 124.579062 
L 144.651551 60.636687 
C 142.558622 60.001804 140.435783 59.470061 138.290702 59.043378 
C 136.145621 58.616695 133.980884 58.295586 131.80431 58.081212 
z
" clip-path="url(#pf9f9940c64)" style="fill: #a1a1d8"/>
   </g>
   <g id="patch_37">
    <path d="M 126.516031 120.421485 
C 126.652115 120.462765 126.78609 120.510702 126.917472 120.565123 
C 127.048854 120.619543 127.177486 120.680381 127.302901 120.747417 
L 160.11267 59.364657 
C 157.978105 58.223709 155.788809 57.188249 153.55269 56.262018 
C 151.316571 55.335787 149.036325 54.519902 146.720187 53.817309 
z
" clip-path="url(#pf9f9940c64)" style="fill: #a1a1d8"/>
   </g>
   <g id="patch_38">
    <path d="M 125.254844 124.579062 
C 125.254844 124.579062 125.254844 124.579062 125.254844 124.579062 
C 125.254844 124.579062 125.254844 124.579062 125.254844 124.579062 
L 181.347751 56.229657 
C 179.110573 54.393652 176.784601 52.668594 174.378235 51.060712 
C 171.97187 49.45283 169.488012 47.964063 166.935634 46.599788 
z
" clip-path="url(#pf9f9940c64)" style="fill: #a1a1d8"/>
   </g>
   <g id="patch_39">
    <path d="M 127.464737 121.8863 
C 127.552875 121.958633 127.637409 122.03525 127.718033 122.115873 
C 127.798657 122.196497 127.875274 122.281031 127.947607 122.369169 
L 191.733923 70.021092 
C 189.948159 67.845133 188.056638 65.758161 186.066192 63.767715 
C 184.075745 61.777269 181.988773 59.885747 179.812814 58.099984 
z
" clip-path="url(#pf9f9940c64)" style="fill: #a1a1d8"/>
   </g>
   <g id="patch_40">
    <path d="M 129.268978 121.284748 
C 129.376806 121.416136 129.478118 121.55274 129.572548 121.694065 
C 129.666978 121.83539 129.754413 121.981266 129.834536 122.131166 
L 177.476395 96.666062 
C 176.56276 94.956773 175.565756 93.29337 174.488981 91.681864 
C 173.412207 90.070357 172.256961 88.512688 171.027416 87.014483 
z
" clip-path="url(#pf9f9940c64)" style="fill: #a1a1d8"/>
   </g>
   <g id="patch_41">
    <path d="M 129.414556 122.35565 
C 129.487332 122.491804 129.553379 122.631448 129.612458 122.774079 
C 129.671538 122.916711 129.72358 123.062157 129.768395 123.209892 
L 180.271262 107.890014 
C 179.725005 106.089245 179.090664 104.31638 178.370531 102.577825 
C 177.650397 100.839269 176.84534 99.137118 175.958266 97.477519 
z
" clip-path="url(#pf9f9940c64)" style="fill: #a1a1d8"/>
   </g>
   <g id="patch_42">
    <path d="M 125.254844 124.579062 
C 125.254844 124.579062 125.254844 124.579062 125.254844 124.579062 
C 125.254844 124.579062 125.254844 124.579062 125.254844 124.579062 
L 161.494363 121.009781 
C 161.377535 119.823608 161.202539 118.643885 160.970009 117.474875 
C 160.737478 116.305864 160.447692 115.148974 160.101698 114.008385 
z
" clip-path="url(#pf9f9940c64)" style="fill: #a1a1d8"/>
   </g>
   <g id="patch_43">
    <path d="M 127.838771 124.324568 
C 127.847101 124.409144 127.851273 124.494077 127.851273 124.579062 
C 127.851273 124.664048 127.847101 124.748981 127.838771 124.833557 
L 154.25935 127.435757 
C 154.352854 126.486396 154.399691 125.533017 154.399691 124.579062 
C 154.399691 123.625108 154.352854 122.671729 154.25935 121.722368 
z
" clip-path="url(#pf9f9940c64)" style="fill: #a1a1d8"/>
   </g>
   <g id="patch_44">
    <path d="M 126.889063 124.740019 
C 126.883794 124.793509 126.875903 124.846709 126.865417 124.899425 
C 126.854931 124.952142 126.841863 125.004312 126.82626 125.055747 
L 142.876444 129.924517 
C 143.051409 129.347735 143.19795 128.762711 143.315538 128.171558 
C 143.433125 127.580404 143.521618 126.983834 143.580697 126.384001 
z
" clip-path="url(#pf9f9940c64)" style="fill: #a1a1d8"/>
   </g>
   <g id="patch_45">
    <path d="M 127.477163 125.253196 
C 127.455097 125.325935 127.429474 125.397548 127.400385 125.467775 
C 127.371296 125.538002 127.338777 125.606758 127.302945 125.673795 
L 143.687751 134.431656 
C 144.010241 133.82832 144.302914 133.209514 144.564714 132.577473 
C 144.826514 131.945432 145.057125 131.300918 145.255713 130.64626 
z
" clip-path="url(#pf9f9940c64)" style="fill: #a1a1d8"/>
   </g>
   <g id="patch_46">
    <path d="M 125.254844 124.579062 
C 125.254844 124.579062 125.254844 124.579062 125.254844 124.579062 
C 125.254844 124.579062 125.254844 124.579062 125.254844 124.579062 
L 135.31023 132.831304 
C 135.580338 132.502177 135.834124 132.159986 136.070671 131.805967 
C 136.307219 131.451949 136.526242 131.086531 136.726951 130.711031 
z
" clip-path="url(#pf9f9940c64)" style="fill: #a1a1d8"/>
   </g>
   <g id="patch_47">
    <path d="M 125.254844 124.579062 
C 125.254844 124.579062 125.254844 124.579062 125.254844 124.579062 
C 125.254844 124.579062 125.254844 124.579062 125.254844 124.579062 
L 136.143539 137.846976 
C 136.577817 137.490572 136.994336 137.113062 137.391589 136.715808 
C 137.788843 136.318554 138.166354 135.902036 138.522757 135.467757 
z
" clip-path="url(#pf9f9940c64)" style="fill: #a1a1d8"/>
   </g>
   <g id="patch_48">
    <path d="M 125.254844 124.579062 
C 125.254844 124.579062 125.254844 124.579062 125.254844 124.579062 
C 125.254844 124.579062 125.254844 124.579062 125.254844 124.579062 
L 133.447073 139.905646 
C 133.948735 139.637502 134.43693 139.344889 134.909893 139.028865 
C 135.382857 138.712841 135.840019 138.373786 136.27973 138.012925 
z
" clip-path="url(#pf9f9940c64)" style="fill: #a1a1d8"/>
   </g>
   <g id="patch_49">
    <path d="M 125.254844 124.579062 
C 125.254844 124.579062 125.254844 124.579062 125.254844 124.579062 
C 125.254844 124.579062 125.254844 124.579062 125.254844 124.579062 
L 127.248956 131.15277 
C 127.464123 131.0875 127.675956 131.011705 127.88369 130.925659 
C 128.091424 130.839613 128.294807 130.743419 128.493107 130.637426 
z
" clip-path="url(#pf9f9940c64)" style="fill: #a1a1d8"/>
   </g>
   <g id="patch_50">
    <path d="M 125.254844 124.579062 
C 125.254844 124.579062 125.254844 124.579062 125.254844 124.579062 
C 125.254844 124.579062 125.254844 124.579062 125.254844 124.579062 
L 126.030948 132.45898 
C 126.288869 132.433577 126.545388 132.395526 126.799578 132.344965 
C 127.053767 132.294403 127.305321 132.231392 127.553331 132.15616 
z
" clip-path="url(#pf9f9940c64)" style="fill: #a1a1d8"/>
   </g>
   <g id="patch_51">
    <path d="M 125.52176 127.289108 
C 125.433056 127.297844 125.343977 127.302221 125.254844 127.302221 
C 125.165711 127.302221 125.076631 127.297844 124.987928 127.289108 
L 124.49136 132.330843 
C 124.745087 132.355833 124.999889 132.368351 125.254844 132.368351 
C 125.509799 132.368351 125.7646 132.355833 126.018327 132.330843 
z
" clip-path="url(#pf9f9940c64)" style="fill: #a1a1d8"/>
   </g>
   <g id="patch_52">
    <path d="M 125.254844 124.579062 
C 125.254844 124.579062 125.254844 124.579062 125.254844 124.579062 
C 125.254844 124.579062 125.254844 124.579062 125.254844 124.579062 
L 123.363063 130.815429 
C 123.567188 130.87735 123.774231 130.929212 123.983443 130.970826 
C 124.192655 131.012441 124.403784 131.043759 124.616067 131.064667 
z
" clip-path="url(#pf9f9940c64)" style="fill: #a1a1d8"/>
   </g>
   <g id="patch_53">
    <path d="M 125.254844 124.579062 
C 125.254844 124.579062 125.254844 124.579062 125.254844 124.579062 
C 125.254844 124.579062 125.254844 124.579062 125.254844 124.579062 
L 124.030895 126.868909 
C 124.105846 126.90897 124.182717 126.945328 124.261233 126.97785 
C 124.339749 127.010373 124.419815 127.039021 124.50114 127.06369 
z
" clip-path="url(#pf9f9940c64)" style="fill: #a1a1d8"/>
   </g>
   <g id="patch_54">
    <path d="M 125.254844 124.579062 
C 125.254844 124.579062 125.254844 124.579062 125.254844 124.579062 
C 125.254844 124.579062 125.254844 124.579062 125.254844 124.579062 
L 125.254844 124.579062 
C 125.254844 124.579062 125.254844 124.579062 125.254844 124.579062 
C 125.254844 124.579062 125.254844 124.579062 125.254844 124.579062 
z
" clip-path="url(#pf9f9940c64)" style="fill: #a1a1d8"/>
   </g>
   <g id="patch_55">
    <path d="M 125.254844 124.579062 
C 125.254844 124.579062 125.254844 124.579062 125.254844 124.579062 
C 125.254844 124.579062 125.254844 124.579062 125.254844 124.579062 
L 118.907941 129.787831 
C 119.078431 129.995575 119.259019 130.194823 119.449051 130.384855 
C 119.639083 130.574887 119.838331 130.755475 120.046075 130.925966 
z
" clip-path="url(#pf9f9940c64)" style="fill: #a1a1d8"/>
   </g>
   <g id="patch_56">
    <path d="M 125.254844 124.579062 
C 125.254844 124.579062 125.254844 124.579062 125.254844 124.579062 
C 125.254844 124.579062 125.254844 124.579062 125.254844 124.579062 
L 116.841411 129.076136 
C 116.988607 129.35152 117.149235 129.619511 117.322715 129.879142 
C 117.496194 130.138772 117.682316 130.389729 117.880409 130.631105 
z
" clip-path="url(#pf9f9940c64)" style="fill: #a1a1d8"/>
   </g>
   <g id="patch_57">
    <path d="M 125.254844 124.579062 
C 125.254844 124.579062 125.254844 124.579062 125.254844 124.579062 
C 125.254844 124.579062 125.254844 124.579062 125.254844 124.579062 
L 115.826343 127.439167 
C 115.919959 127.747776 116.02867 128.051602 116.152083 128.349549 
C 116.275497 128.647496 116.413465 128.939204 116.565488 129.22362 
z
" clip-path="url(#pf9f9940c64)" style="fill: #a1a1d8"/>
   </g>
   <g id="patch_58">
    <path d="M 125.254844 124.579062 
C 125.254844 124.579062 125.254844 124.579062 125.254844 124.579062 
C 125.254844 124.579062 125.254844 124.579062 125.254844 124.579062 
L 110.433821 126.038806 
C 110.481601 126.52392 110.553169 127.006396 110.648268 127.484491 
C 110.743367 127.962586 110.861882 128.435724 111.003385 128.902195 
z
" clip-path="url(#pf9f9940c64)" style="fill: #a1a1d8"/>
   </g>
   <g id="patch_59">
    <path d="M 125.254844 124.579062 
C 125.254844 124.579062 125.254844 124.579062 125.254844 124.579062 
C 125.254844 124.579062 125.254844 124.579062 125.254844 124.579062 
L 101.856391 122.274516 
C 101.78096 123.040382 101.743176 123.809491 101.743176 124.579062 
C 101.743176 125.348634 101.78096 126.117743 101.856391 126.883609 
z
" clip-path="url(#pf9f9940c64)" style="fill: #a1a1d8"/>
   </g>
   <g id="patch_60">
    <path d="M 125.254844 124.579062 
C 125.254844 124.579062 125.254844 124.579062 125.254844 124.579062 
C 125.254844 124.579062 125.254844 124.579062 125.254844 124.579062 
L 101.867644 117.484633 
C 101.635433 118.250131 101.440945 119.026568 101.284884 119.811141 
C 101.128823 120.595714 101.011376 121.387475 100.932968 122.183567 
z
" clip-path="url(#pf9f9940c64)" style="fill: #a1a1d8"/>
   </g>
   <g id="patch_61">
    <path d="M 125.254844 124.579062 
C 125.254844 124.579062 125.254844 124.579062 125.254844 124.579062 
C 125.254844 124.579062 125.254844 124.579062 125.254844 124.579062 
L 102.482672 112.407083 
C 102.084265 113.15245 101.722693 113.916929 101.399263 114.697758 
C 101.075833 115.478586 100.790935 116.274824 100.545597 117.083595 
z
" clip-path="url(#pf9f9940c64)" style="fill: #a1a1d8"/>
   </g>
   <g id="patch_62">
    <path d="M 125.254844 124.579062 
C 125.254844 124.579062 125.254844 124.579062 125.254844 124.579062 
C 125.254844 124.579062 125.254844 124.579062 125.254844 124.579062 
L 105.743922 108.566863 
C 105.219819 109.205485 104.727386 109.869453 104.268403 110.556371 
C 103.809419 111.243288 103.384438 111.952327 102.994994 112.680925 
z
" clip-path="url(#pf9f9940c64)" style="fill: #a1a1d8"/>
   </g>
   <g id="patch_63">
    <path d="M 125.254844 124.579062 
C 125.254844 124.579062 125.254844 124.579062 125.254844 124.579062 
C 125.254844 124.579062 125.254844 124.579062 125.254844 124.579062 
L 102.712246 97.110828 
C 101.81317 97.848681 100.950862 98.630231 100.128437 99.452656 
C 99.306012 100.275081 98.524462 101.137388 97.786609 102.036465 
z
" clip-path="url(#pf9f9940c64)" style="fill: #a1a1d8"/>
   </g>
   <g id="patch_64">
    <path d="M 125.254844 124.579062 
C 125.254844 124.579062 125.254844 124.579062 125.254844 124.579062 
C 125.254844 124.579062 125.254844 124.579062 125.254844 124.579062 
L 109.095945 94.347889 
C 108.106434 94.876794 107.143486 95.453963 106.210581 96.07731 
C 105.277676 96.700657 104.375938 97.369431 103.508624 98.081218 
z
" clip-path="url(#pf9f9940c64)" style="fill: #a1a1d8"/>
   </g>
   <g id="patch_65">
    <path d="M 125.254844 124.579062 
C 125.254844 124.579062 125.254844 124.579062 125.254844 124.579062 
C 125.254844 124.579062 125.254844 124.579062 125.254844 124.579062 
L 113.58095 86.095392 
C 112.321322 86.477496 111.081213 86.921214 109.865104 87.424943 
C 108.648994 87.928672 107.458349 88.491805 106.297469 89.112309 
z
" clip-path="url(#pf9f9940c64)" style="fill: #a1a1d8"/>
   </g>
   <g id="patch_66">
    <path d="M 125.254844 124.579062 
C 125.254844 124.579062 125.254844 124.579062 125.254844 124.579062 
C 125.254844 124.579062 125.254844 124.579062 125.254844 124.579062 
L 120.604482 77.363147 
C 119.059035 77.51536 117.521992 77.743359 115.998906 78.046319 
C 114.47582 78.34928 112.968526 78.726838 111.482469 79.177628 
z
" clip-path="url(#pf9f9940c64)" style="fill: #a1a1d8"/>
   </g>
   <g id="patch_67">
    <path d="M 118.498983 55.985656 
C 120.744148 55.764527 122.998816 55.653762 125.254844 55.653762 
C 127.510872 55.653762 129.76554 55.764527 132.010705 55.985656 
L 133.515144 40.710829 
C 130.770011 40.440457 128.013259 40.305027 125.254844 40.305027 
C 122.496429 40.305027 119.739676 40.440457 116.994544 40.710829 
z
" clip-path="url(#pf9f9940c64)" style="fill: #ff8c8e"/>
   </g>
   <g id="patch_68">
    <path d="M 131.80431 58.081212 
C 133.980884 58.295586 136.145621 58.616695 138.290702 59.043378 
C 140.435783 59.470061 142.558622 60.001804 144.651551 60.636687 
L 150.115642 42.623994 
C 147.43313 41.810263 144.712283 41.128726 141.962929 40.581846 
C 139.213575 40.034965 136.439027 39.6234 133.649308 39.348636 
z
" clip-path="url(#pf9f9940c64)" style="fill: #ff8c8e"/>
   </g>
   <g id="patch_69">
    <path d="M 146.720187 53.817309 
C 149.036325 54.519902 151.316571 55.335787 153.55269 56.262018 
C 155.788809 57.188249 157.978105 58.223709 160.11267 59.364657 
L 169.115934 42.520735 
C 166.430042 41.085096 163.675283 39.782192 160.861608 38.61673 
C 158.047932 37.451267 155.178732 36.424651 152.264369 35.540589 
z
" clip-path="url(#pf9f9940c64)" style="fill: #ff8c8e"/>
   </g>
   <g id="patch_70">
    <path d="M 166.935634 46.599788 
C 169.488012 47.964063 171.97187 49.45283 174.378235 51.060712 
C 176.784601 52.668594 179.110573 54.393652 181.347751 56.229657 
L 191.727392 43.582028 
C 189.076239 41.406282 186.319859 39.362012 183.468211 37.456601 
C 180.616563 35.551191 177.673083 33.786937 174.648403 32.170212 
z
" clip-path="url(#pf9f9940c64)" style="fill: #ff8c8e"/>
   </g>
   <g id="patch_71">
    <path d="M 179.812814 58.099984 
C 181.988773 59.885747 184.075745 61.777269 186.066192 63.767715 
C 188.056638 65.758161 189.948159 67.845133 191.733923 70.021092 
L 200.846968 62.54221 
C 198.816409 60.067967 196.665595 57.69491 194.402296 55.43161 
C 192.138997 53.168311 189.76594 51.017497 187.291697 48.986939 
z
" clip-path="url(#pf9f9940c64)" style="fill: #ff8c8e"/>
   </g>
   <g id="patch_72">
    <path d="M 171.027416 87.014483 
C 172.256961 88.512688 173.412207 90.070357 174.488981 91.681864 
C 175.565756 93.29337 176.56276 94.956773 177.476395 96.666062 
L 182.34508 94.063696 
C 181.346266 92.195047 180.256309 90.376563 179.079146 88.614814 
C 177.901982 86.853064 176.639031 85.150171 175.294854 83.512287 
z
" clip-path="url(#pf9f9940c64)" style="fill: #ff8c8e"/>
   </g>
   <g id="patch_73">
    <path d="M 175.958266 97.477519 
C 176.84534 99.137118 177.650397 100.839269 178.370531 102.577825 
C 179.090664 104.31638 179.725005 106.089245 180.271262 107.890014 
L 183.418493 106.935312 
C 182.840987 105.031529 182.170358 103.157247 181.40903 101.319237 
C 180.647701 99.481227 179.79659 97.681703 178.85877 95.927167 
z
" clip-path="url(#pf9f9940c64)" style="fill: #ff8c8e"/>
   </g>
   <g id="patch_74">
    <path d="M 160.101698 114.008385 
C 160.447692 115.148974 160.737478 116.305864 160.970009 117.474875 
C 161.202539 118.643885 161.377535 119.823608 161.494363 121.009781 
L 165.159578 120.648789 
C 165.030935 119.342648 164.838241 118.043609 164.582192 116.756367 
C 164.326144 115.469124 164.007049 114.195228 163.626062 112.939281 
z
" clip-path="url(#pf9f9940c64)" style="fill: #ff8c8e"/>
   </g>
   <g id="patch_75">
    <path d="M 154.25935 121.722368 
C 154.352854 122.671729 154.399691 123.625108 154.399691 124.579062 
C 154.399691 125.533017 154.352854 126.486396 154.25935 127.435757 
L 156.529967 127.659393 
C 156.63079 126.635712 156.681294 125.607697 156.681294 124.579062 
C 156.681294 123.550428 156.63079 122.522413 156.529967 121.498732 
z
" clip-path="url(#pf9f9940c64)" style="fill: #ff8c8e"/>
   </g>
   <g id="patch_76">
    <path d="M 143.580697 126.384001 
C 143.521618 126.983834 143.433125 127.580404 143.315538 128.171558 
C 143.19795 128.762711 143.051409 129.347735 142.876444 129.924517 
L 144.771434 130.499355 
C 144.965214 129.860548 145.127514 129.212612 145.257746 128.557887 
C 145.387979 127.903162 145.485988 127.242438 145.55142 126.578101 
z
" clip-path="url(#pf9f9940c64)" style="fill: #ff8c8e"/>
   </g>
   <g id="patch_77">
    <path d="M 145.255713 130.64626 
C 145.057125 131.300918 144.826514 131.945432 144.564714 132.577473 
C 144.302914 133.209514 144.010241 133.82832 143.687751 134.431656 
L 146.316451 135.836726 
C 146.684931 135.147348 147.019342 134.440294 147.318477 133.718119 
C 147.617612 132.995943 147.88111 132.259516 148.108019 131.511497 
z
" clip-path="url(#pf9f9940c64)" style="fill: #ff8c8e"/>
   </g>
   <g id="patch_78">
    <path d="M 136.726951 130.711031 
C 136.526242 131.086531 136.307219 131.451949 136.070671 131.805967 
C 135.834124 132.159986 135.580338 132.502177 135.31023 132.831304 
L 137.330651 134.489421 
C 137.655032 134.094162 137.959811 133.683215 138.243888 133.258064 
C 138.527964 132.832913 138.790996 132.394071 139.032033 131.943123 
z
" clip-path="url(#pf9f9940c64)" style="fill: #ff8c8e"/>
   </g>
   <g id="patch_79">
    <path d="M 138.522757 135.467757 
C 138.166354 135.902036 137.788843 136.318554 137.391589 136.715808 
C 136.994336 137.113062 136.577817 137.490572 136.143539 137.846976 
L 138.737408 141.007615 
C 139.275139 140.56631 139.790879 140.098871 140.282766 139.606984 
C 140.774652 139.115098 141.242092 138.599358 141.683396 138.061627 
z
" clip-path="url(#pf9f9940c64)" style="fill: #ff8c8e"/>
   </g>
   <g id="patch_80">
    <path d="M 136.27973 138.012925 
C 135.840019 138.373786 135.382857 138.712841 134.909893 139.028865 
C 134.43693 139.344889 133.948735 139.637502 133.447073 139.905646 
L 133.447073 139.905646 
C 133.948735 139.637502 134.43693 139.344889 134.909893 139.028865 
C 135.382857 138.712841 135.840019 138.373786 136.27973 138.012925 
z
" clip-path="url(#pf9f9940c64)" style="fill: #ff8c8e"/>
   </g>
   <g id="patch_81">
    <path d="M 128.493107 130.637426 
C 128.294807 130.743419 128.091424 130.839613 127.88369 130.925659 
C 127.675956 131.011705 127.464123 131.0875 127.248956 131.15277 
L 127.60224 132.317392 
C 127.855528 132.240559 128.10489 132.151335 128.349426 132.050045 
C 128.593962 131.948755 128.833378 131.835519 129.066809 131.710748 
z
" clip-path="url(#pf9f9940c64)" style="fill: #ff8c8e"/>
   </g>
   <g id="patch_82">
    <path d="M 127.553331 132.15616 
C 127.305321 132.231392 127.053767 132.294403 126.799578 132.344965 
C 126.545388 132.395526 126.288869 132.433577 126.030948 132.45898 
L 126.117877 133.341585 
C 126.404687 133.313336 126.689938 133.271024 126.972599 133.214799 
C 127.255259 133.158574 127.534989 133.088506 127.810777 133.004846 
z
" clip-path="url(#pf9f9940c64)" style="fill: #ff8c8e"/>
   </g>
   <g id="patch_83">
    <path d="M 126.018327 132.330843 
C 125.7646 132.355833 125.509799 132.368351 125.254844 132.368351 
C 124.999889 132.368351 124.745087 132.355833 124.49136 132.330843 
L 124.49136 132.330843 
C 124.745087 132.355833 124.999889 132.368351 125.254844 132.368351 
C 125.509799 132.368351 125.7646 132.355833 126.018327 132.330843 
z
" clip-path="url(#pf9f9940c64)" style="fill: #ff8c8e"/>
   </g>
   <g id="patch_84">
    <path d="M 124.616067 131.064667 
C 124.403784 131.043759 124.192655 131.012441 123.983443 130.970826 
C 123.774231 130.929212 123.567188 130.87735 123.363063 130.815429 
L 122.895378 132.357178 
C 123.149967 132.434407 123.408195 132.49909 123.669128 132.550993 
C 123.930061 132.602896 124.193386 132.641956 124.45815 132.668033 
z
" clip-path="url(#pf9f9940c64)" style="fill: #ff8c8e"/>
   </g>
   <g id="patch_85">
    <path d="M 124.50114 127.06369 
C 124.419815 127.039021 124.339749 127.010373 124.261233 126.97785 
C 124.182717 126.945328 124.105846 126.90897 124.030895 126.868909 
L 122.601387 129.543331 
C 122.763875 129.630183 122.930529 129.709004 123.100748 129.779511 
C 123.270966 129.850018 123.444543 129.912125 123.620853 129.965608 
z
" clip-path="url(#pf9f9940c64)" style="fill: #ff8c8e"/>
   </g>
   <g id="patch_86">
    <path d="M 125.254844 124.579062 
C 125.254844 124.579062 125.254844 124.579062 125.254844 124.579062 
C 125.254844 124.579062 125.254844 124.579062 125.254844 124.579062 
L 124.518213 125.47665 
C 124.547592 125.500761 124.578137 125.523415 124.609739 125.544531 
C 124.64134 125.565646 124.673959 125.585197 124.707477 125.603113 
z
" clip-path="url(#pf9f9940c64)" style="fill: #ff8c8e"/>
   </g>
   <g id="patch_87">
    <path d="M 120.046075 130.925966 
C 119.838331 130.755475 119.639083 130.574887 119.449051 130.384855 
C 119.259019 130.194823 119.078431 129.995575 118.907941 129.787831 
L 115.525226 132.563954 
C 115.786583 132.882419 116.063419 133.18786 116.354733 133.479174 
C 116.646046 133.770488 116.951488 134.047323 117.269952 134.308681 
z
" clip-path="url(#pf9f9940c64)" style="fill: #ff8c8e"/>
   </g>
   <g id="patch_88">
    <path d="M 117.880409 130.631105 
C 117.682316 130.389729 117.496194 130.138772 117.322715 129.879142 
C 117.149235 129.619511 116.988607 129.35152 116.841411 129.076136 
L 116.210676 129.413271 
C 116.368907 129.7093 116.541576 129.997382 116.728061 130.276476 
C 116.914546 130.555571 117.114621 130.825341 117.327564 131.084813 
z
" clip-path="url(#pf9f9940c64)" style="fill: #ff8c8e"/>
   </g>
   <g id="patch_89">
    <path d="M 116.565488 129.22362 
C 116.413465 128.939204 116.275497 128.647496 116.152083 128.349549 
C 116.02867 128.051602 115.919959 127.747776 115.826343 127.439167 
L 108.293731 129.72416 
C 108.462138 130.279322 108.6577 130.825882 108.879711 131.361864 
C 109.101723 131.897847 109.349915 132.422606 109.623393 132.934247 
z
" clip-path="url(#pf9f9940c64)" style="fill: #ff8c8e"/>
   </g>
   <g id="patch_90">
    <path d="M 111.003385 128.902195 
C 110.861882 128.435724 110.743367 127.962586 110.648268 127.484491 
C 110.553169 127.006396 110.481601 126.52392 110.433821 126.038806 
L 105.918506 126.483526 
C 105.980842 127.116433 106.074214 127.745898 106.198285 128.369648 
C 106.322357 128.993397 106.476978 129.610679 106.66159 130.219264 
z
" clip-path="url(#pf9f9940c64)" style="fill: #ff8c8e"/>
   </g>
   <g id="patch_91">
    <path d="M 101.856391 126.883609 
C 101.78096 126.117743 101.743176 125.348634 101.743176 124.579062 
C 101.743176 123.809491 101.78096 123.040382 101.856391 122.274516 
L 96.726139 121.76923 
C 96.634169 122.703017 96.5881 123.640757 96.5881 124.579062 
C 96.5881 125.517368 96.634169 126.455108 96.726139 127.388895 
z
" clip-path="url(#pf9f9940c64)" style="fill: #ff8c8e"/>
   </g>
   <g id="patch_92">
    <path d="M 100.932968 122.183567 
C 101.011376 121.387475 101.128823 120.595714 101.284884 119.811141 
C 101.440945 119.026568 101.635433 118.250131 101.867644 117.484633 
L 97.799986 116.250722 
C 97.527387 117.149361 97.299073 118.060842 97.115868 118.981872 
C 96.932664 119.902903 96.79479 120.832373 96.702745 121.766926 
z
" clip-path="url(#pf9f9940c64)" style="fill: #ff8c8e"/>
   </g>
   <g id="patch_93">
    <path d="M 100.545597 117.083595 
C 100.790935 116.274824 101.075833 115.478586 101.399263 114.697758 
C 101.722693 113.916929 102.084265 113.15245 102.482672 112.407083 
L 93.641695 107.681482 
C 93.088611 108.716228 92.586665 109.777505 92.137668 110.861479 
C 91.688671 111.945454 91.293165 113.05082 90.952578 114.173584 
z
" clip-path="url(#pf9f9940c64)" style="fill: #ff8c8e"/>
   </g>
   <g id="patch_94">
    <path d="M 102.994994 112.680925 
C 103.384438 111.952327 103.809419 111.243288 104.268403 110.556371 
C 104.727386 109.869453 105.219819 109.205485 105.743922 108.566863 
L 96.813918 101.238198 
C 96.049936 102.169112 95.332121 103.136974 94.663064 104.138289 
C 93.994007 105.139603 93.374515 106.173163 92.806825 107.235235 
z
" clip-path="url(#pf9f9940c64)" style="fill: #ff8c8e"/>
   </g>
   <g id="patch_95">
    <path d="M 97.786609 102.036465 
C 98.524462 101.137388 99.306012 100.275081 100.128437 99.452656 
C 100.950862 98.630231 101.81317 97.848681 102.712246 97.110828 
L 88.957536 80.350665 
C 87.509874 81.53873 86.121416 82.797155 84.797176 84.121395 
C 83.472936 85.445635 82.214511 86.834093 81.026446 88.281755 
z
" clip-path="url(#pf9f9940c64)" style="fill: #ff8c8e"/>
   </g>
   <g id="patch_96">
    <path d="M 103.508624 98.081218 
C 104.375938 97.369431 105.277676 96.700657 106.210581 96.07731 
C 107.143486 95.453963 108.106434 94.876794 109.095945 94.347889 
L 101.015723 79.230857 
C 99.531408 80.024239 98.086941 80.89002 96.687539 81.82507 
C 95.288137 82.760121 93.935487 83.763314 92.634475 84.831028 
z
" clip-path="url(#pf9f9940c64)" style="fill: #ff8c8e"/>
   </g>
   <g id="patch_97">
    <path d="M 106.297469 89.112309 
C 107.458349 88.491805 108.648994 87.928672 109.865104 87.424943 
C 111.081213 86.921214 112.321322 86.477496 113.58095 86.095392 
L 107.498762 66.045107 
C 105.582859 66.62629 103.696644 67.301188 101.846932 68.067364 
C 99.99722 68.83354 98.186239 69.69007 96.420532 70.63386 
z
" clip-path="url(#pf9f9940c64)" style="fill: #ff8c8e"/>
   </g>
   <g id="patch_98">
    <path d="M 111.482469 79.177628 
C 112.968526 78.726838 114.47582 78.34928 115.998906 78.046319 
C 117.521992 77.743359 119.059035 77.51536 120.604482 77.363147 
L 119.117355 62.264089 
C 117.077692 62.464978 115.049123 62.765888 113.038973 63.165732 
C 111.028823 63.565576 109.039516 64.063871 107.078237 64.658819 
z
" clip-path="url(#pf9f9940c64)" style="fill: #ff8c8e"/>
   </g>
   <g id="patch_99">
    <path d="M 116.994544 40.710829 
C 119.739676 40.440457 122.496429 40.305027 125.254844 40.305027 
C 128.013259 40.305027 130.770011 40.440457 133.515144 40.710829 
L 134.295314 32.789629 
C 131.290909 32.493721 128.273786 32.345499 125.254844 32.345499 
C 122.235901 32.345499 119.218779 32.493721 116.214374 32.789629 
z
" clip-path="url(#pf9f9940c64)" style="fill: #828282"/>
   </g>
   <g id="patch_100">
    <path d="M 133.649308 39.348636 
C 136.439027 39.6234 139.213575 40.034965 141.962929 40.581846 
C 144.712283 41.128726 147.43313 41.810263 150.115642 42.623994 
L 151.368255 38.494681 
C 148.550585 37.63995 145.692648 36.924074 142.804767 36.349639 
C 139.916887 35.775203 137.002543 35.342901 134.072264 35.054294 
z
" clip-path="url(#pf9f9940c64)" style="fill: #828282"/>
   </g>
   <g id="patch_101">
    <path d="M 152.264369 35.540589 
C 155.178732 36.424651 158.047932 37.451267 160.861608 38.61673 
C 163.675283 39.782192 166.430042 41.085096 169.115934 42.520735 
L 174.307541 32.80792 
C 171.303735 31.202352 168.22291 29.74523 165.076194 28.441818 
C 161.929479 27.138406 158.720666 25.990274 155.461346 25.00157 
z
" clip-path="url(#pf9f9940c64)" style="fill: #828282"/>
   </g>
   <g id="patch_102">
    <path d="M 174.648403 32.170212 
C 177.673083 33.786937 180.616563 35.551191 183.468211 37.456601 
C 186.319859 39.362012 189.076239 41.406282 191.727392 43.582028 
L 195.596374 38.86766 
C 192.790912 36.565277 189.8741 34.402021 186.856474 32.385708 
C 183.838848 30.369395 180.724045 28.502454 177.523316 26.791629 
z
" clip-path="url(#pf9f9940c64)" style="fill: #828282"/>
   </g>
   <g id="patch_103">
    <path d="M 187.291697 48.986939 
C 189.76594 51.017497 192.138997 53.168311 194.402296 55.43161 
C 196.665595 57.69491 198.816409 60.067967 200.846968 62.54221 
L 208.098344 56.591159 
C 205.872999 53.879567 203.515863 51.278868 201.03545 48.798456 
C 198.555038 46.318044 195.954339 43.960908 193.242748 41.735562 
z
" clip-path="url(#pf9f9940c64)" style="fill: #828282"/>
   </g>
   <g id="patch_104">
    <path d="M 175.294854 83.512287 
C 176.639031 85.150171 177.901982 86.853064 179.079146 88.614814 
C 180.256309 90.376563 181.346266 92.195047 182.34508 94.063696 
L 185.903359 92.161756 
C 184.842292 90.176639 183.684401 88.244815 182.433868 86.37326 
C 181.183335 84.501705 179.841668 82.692676 178.413712 80.952707 
z
" clip-path="url(#pf9f9940c64)" style="fill: #828282"/>
   </g>
   <g id="patch_105">
    <path d="M 178.85877 95.927167 
C 179.79659 97.681703 180.647701 99.481227 181.40903 101.319237 
C 182.170358 103.157247 182.840987 105.031529 183.418493 106.935312 
L 196.767254 102.88601 
C 196.057208 100.545302 195.232667 98.240866 194.296611 95.981026 
C 193.360555 93.721186 192.31411 91.508666 191.161058 89.351457 
z
" clip-path="url(#pf9f9940c64)" style="fill: #828282"/>
   </g>
   <g id="patch_106">
    <path d="M 163.626062 112.939281 
C 164.007049 114.195228 164.326144 115.469124 164.582192 116.756367 
C 164.838241 118.043609 165.030935 119.342648 165.159578 120.648789 
L 171.708073 120.003819 
C 171.558318 118.483335 171.334002 116.971121 171.035936 115.472637 
C 170.737869 113.974154 170.36641 112.491208 169.922901 111.029155 
z
" clip-path="url(#pf9f9940c64)" style="fill: #828282"/>
   </g>
   <g id="patch_107">
    <path d="M 156.529967 121.498732 
C 156.63079 122.522413 156.681294 123.550428 156.681294 124.579062 
C 156.681294 125.607697 156.63079 126.635712 156.529967 127.659393 
L 156.529967 127.659393 
C 156.63079 126.635712 156.681294 125.607697 156.681294 124.579062 
C 156.681294 123.550428 156.63079 122.522413 156.529967 121.498732 
z
" clip-path="url(#pf9f9940c64)" style="fill: #828282"/>
   </g>
   <g id="patch_108">
    <path d="M 145.55142 126.578101 
C 145.485988 127.242438 145.387979 127.903162 145.257746 128.557887 
C 145.127514 129.212612 144.965214 129.860548 144.771434 130.499355 
L 144.771434 130.499355 
C 144.965214 129.860548 145.127514 129.212612 145.257746 128.557887 
C 145.387979 127.903162 145.485988 127.242438 145.55142 126.578101 
z
" clip-path="url(#pf9f9940c64)" style="fill: #828282"/>
   </g>
   <g id="patch_109">
    <path d="M 148.108019 131.511497 
C 147.88111 132.259516 147.617612 132.995943 147.318477 133.718119 
C 147.019342 134.440294 146.684931 135.147348 146.316451 135.836726 
L 146.316451 135.836726 
C 146.684931 135.147348 147.019342 134.440294 147.318477 133.718119 
C 147.617612 132.995943 147.88111 132.259516 148.108019 131.511497 
z
" clip-path="url(#pf9f9940c64)" style="fill: #828282"/>
   </g>
   <g id="patch_110">
    <path d="M 139.032033 131.943123 
C 138.790996 132.394071 138.527964 132.832913 138.243888 133.258064 
C 137.959811 133.683215 137.655032 134.094162 137.330651 134.489421 
L 137.330651 134.489421 
C 137.655032 134.094162 137.959811 133.683215 138.243888 133.258064 
C 138.527964 132.832913 138.790996 132.394071 139.032033 131.943123 
z
" clip-path="url(#pf9f9940c64)" style="fill: #828282"/>
   </g>
   <g id="patch_111">
    <path d="M 141.683396 138.061627 
C 141.242092 138.599358 140.774652 139.115098 140.282766 139.606984 
C 139.790879 140.098871 139.275139 140.56631 138.737408 141.007615 
L 138.737408 141.007615 
C 139.275139 140.56631 139.790879 140.098871 140.282766 139.606984 
C 140.774652 139.115098 141.242092 138.599358 141.683396 138.061627 
z
" clip-path="url(#pf9f9940c64)" style="fill: #828282"/>
   </g>
   <g id="patch_112">
    <path d="M 136.27973 138.012925 
C 135.840019 138.373786 135.382857 138.712841 134.909893 139.028865 
C 134.43693 139.344889 133.948735 139.637502 133.447073 139.905646 
L 133.447073 139.905646 
C 133.948735 139.637502 134.43693 139.344889 134.909893 139.028865 
C 135.382857 138.712841 135.840019 138.373786 136.27973 138.012925 
z
" clip-path="url(#pf9f9940c64)" style="fill: #828282"/>
   </g>
   <g id="patch_113">
    <path d="M 129.066809 131.710748 
C 128.833378 131.835519 128.593962 131.948755 128.349426 132.050045 
C 128.10489 132.151335 127.855528 132.240559 127.60224 132.317392 
L 127.60224 132.317392 
C 127.855528 132.240559 128.10489 132.151335 128.349426 132.050045 
C 128.593962 131.948755 128.833378 131.835519 129.066809 131.710748 
z
" clip-path="url(#pf9f9940c64)" style="fill: #828282"/>
   </g>
   <g id="patch_114">
    <path d="M 127.810777 133.004846 
C 127.534989 133.088506 127.255259 133.158574 126.972599 133.214799 
C 126.689938 133.271024 126.404687 133.313336 126.117877 133.341585 
L 126.117877 133.341585 
C 126.404687 133.313336 126.689938 133.271024 126.972599 133.214799 
C 127.255259 133.158574 127.534989 133.088506 127.810777 133.004846 
z
" clip-path="url(#pf9f9940c64)" style="fill: #828282"/>
   </g>
   <g id="patch_115">
    <path d="M 126.018327 132.330843 
C 125.7646 132.355833 125.509799 132.368351 125.254844 132.368351 
C 124.999889 132.368351 124.745087 132.355833 124.49136 132.330843 
L 124.49136 132.330843 
C 124.745087 132.355833 124.999889 132.368351 125.254844 132.368351 
C 125.509799 132.368351 125.7646 132.355833 126.018327 132.330843 
z
" clip-path="url(#pf9f9940c64)" style="fill: #828282"/>
   </g>
   <g id="patch_116">
    <path d="M 124.45815 132.668033 
C 124.193386 132.641956 123.930061 132.602896 123.669128 132.550993 
C 123.408195 132.49909 123.149967 132.434407 122.895378 132.357178 
L 121.884179 135.690657 
C 122.247878 135.800983 122.616774 135.893387 122.989536 135.967534 
C 123.362298 136.041681 123.738475 136.097482 124.116709 136.134735 
z
" clip-path="url(#pf9f9940c64)" style="fill: #828282"/>
   </g>
   <g id="patch_117">
    <path d="M 123.620853 129.965608 
C 123.444543 129.912125 123.270966 129.850018 123.100748 129.779511 
C 122.930529 129.709004 122.763875 129.630183 122.601387 129.543331 
L 120.14935 134.130769 
C 120.461992 134.297879 120.78265 134.449539 121.110166 134.585201 
C 121.437682 134.720862 121.771661 134.840362 122.110896 134.943268 
z
" clip-path="url(#pf9f9940c64)" style="fill: #828282"/>
   </g>
   <g id="patch_118">
    <path d="M 124.707477 125.603113 
C 124.673959 125.585197 124.64134 125.565646 124.609739 125.544531 
C 124.578137 125.523415 124.547592 125.500761 124.518213 125.47665 
L 122.043943 128.491556 
C 122.172005 128.596654 122.305149 128.695401 122.442896 128.78744 
C 122.580642 128.879479 122.722825 128.9647 122.868929 129.042795 
z
" clip-path="url(#pf9f9940c64)" style="fill: #828282"/>
   </g>
   <g id="patch_119">
    <path d="M 117.269952 134.308681 
C 116.951488 134.047323 116.646046 133.770488 116.354733 133.479174 
C 116.063419 133.18786 115.786583 132.882419 115.525226 132.563954 
L 115.525226 132.563954 
C 115.786583 132.882419 116.063419 133.18786 116.354733 133.479174 
C 116.646046 133.770488 116.951488 134.047323 117.269952 134.308681 
z
" clip-path="url(#pf9f9940c64)" style="fill: #828282"/>
   </g>
   <g id="patch_120">
    <path d="M 117.327564 131.084813 
C 117.114621 130.825341 116.914546 130.555571 116.728061 130.276476 
C 116.541576 129.997382 116.368907 129.7093 116.210676 129.413271 
L 115.539849 129.771835 
C 115.709816 130.089822 115.895293 130.399271 116.09561 130.699067 
C 116.295927 130.998862 116.510842 131.288642 116.73958 131.567359 
z
" clip-path="url(#pf9f9940c64)" style="fill: #828282"/>
   </g>
   <g id="patch_121">
    <path d="M 109.623393 132.934247 
C 109.349915 132.422606 109.101723 131.897847 108.879711 131.361864 
C 108.6577 130.825882 108.462138 130.279322 108.293731 129.72416 
L 107.563315 129.945729 
C 107.738974 130.524799 107.942958 131.094896 108.17453 131.65396 
C 108.406102 132.213024 108.664983 132.760382 108.950238 133.294056 
z
" clip-path="url(#pf9f9940c64)" style="fill: #828282"/>
   </g>
   <g id="patch_122">
    <path d="M 106.66159 130.219264 
C 106.476978 129.610679 106.322357 128.993397 106.198285 128.369648 
C 106.074214 127.745898 105.980842 127.116433 105.918506 126.483526 
L 103.283867 126.743015 
C 103.354696 127.462158 103.460791 128.17739 103.601768 128.886127 
C 103.742744 129.594865 103.918433 130.296253 104.128199 130.98776 
z
" clip-path="url(#pf9f9940c64)" style="fill: #828282"/>
   </g>
   <g id="patch_123">
    <path d="M 96.726139 127.388895 
C 96.634169 126.455108 96.5881 125.517368 96.5881 124.579062 
C 96.5881 123.640757 96.634169 122.703017 96.726139 121.76923 
L 92.754837 121.378091 
C 92.650065 122.441865 92.597584 123.510142 92.597584 124.579062 
C 92.597584 125.647983 92.650065 126.71626 92.754837 127.780034 
z
" clip-path="url(#pf9f9940c64)" style="fill: #828282"/>
   </g>
   <g id="patch_124">
    <path d="M 96.702745 121.766926 
C 96.79479 120.832373 96.932664 119.902903 97.115868 118.981872 
C 97.299073 118.060842 97.527387 117.149361 97.799986 116.250722 
L 91.670981 114.391509 
C 91.337528 115.490759 91.058245 116.605718 90.834142 117.732359 
C 90.610039 118.859 90.441386 119.995965 90.328793 121.139147 
z
" clip-path="url(#pf9f9940c64)" style="fill: #828282"/>
   </g>
   <g id="patch_125">
    <path d="M 90.952578 114.173584 
C 91.293165 113.05082 91.688671 111.945454 92.137668 110.861479 
C 92.586665 109.777505 93.088611 108.716228 93.641695 107.681482 
L 93.641695 107.681482 
C 93.088611 108.716228 92.586665 109.777505 92.137668 110.861479 
C 91.688671 111.945454 91.293165 113.05082 90.952578 114.173584 
z
" clip-path="url(#pf9f9940c64)" style="fill: #828282"/>
   </g>
   <g id="patch_126">
    <path d="M 92.806825 107.235235 
C 93.374515 106.173163 93.994007 105.139603 94.663064 104.138289 
C 95.332121 103.136974 96.049936 102.169112 96.813918 101.238198 
L 96.79268 101.220768 
C 96.028128 102.152377 95.309776 103.120962 94.64022 104.123025 
C 93.970663 105.125087 93.350708 106.159419 92.782595 107.222284 
z
" clip-path="url(#pf9f9940c64)" style="fill: #828282"/>
   </g>
   <g id="patch_127">
    <path d="M 81.026446 88.281755 
C 82.214511 86.834093 83.472936 85.445635 84.797176 84.121395 
C 86.121416 82.797155 87.509874 81.53873 88.957536 80.350665 
L 88.957536 80.350665 
C 87.509874 81.53873 86.121416 82.797155 84.797176 84.121395 
C 83.472936 85.445635 82.214511 86.834093 81.026446 88.281755 
z
" clip-path="url(#pf9f9940c64)" style="fill: #828282"/>
   </g>
   <g id="patch_128">
    <path d="M 92.634475 84.831028 
C 93.935487 83.763314 95.288137 82.760121 96.687539 81.82507 
C 98.086941 80.89002 99.531408 80.024239 101.015723 79.230857 
L 100.950916 79.109612 
C 99.462633 79.905116 98.014304 80.773211 96.611161 81.710762 
C 95.208017 82.648312 93.851751 83.654188 92.54726 84.724756 
z
" clip-path="url(#pf9f9940c64)" style="fill: #828282"/>
   </g>
   <g id="patch_129">
    <path d="M 96.420532 70.63386 
C 98.186239 69.69007 99.99722 68.83354 101.846932 68.067364 
C 103.696644 67.301188 105.582859 66.62629 107.498762 66.045107 
L 106.56664 62.972311 
C 104.550159 63.584004 102.564926 64.294332 100.618111 65.100729 
C 98.671297 65.907126 96.765247 66.80862 94.906848 67.801955 
z
" clip-path="url(#pf9f9940c64)" style="fill: #828282"/>
   </g>
   <g id="patch_130">
    <path d="M 107.078237 64.658819 
C 109.039516 64.063871 111.028823 63.565576 113.038973 63.165732 
C 115.049123 62.765888 117.077692 62.464978 119.117355 62.264089 
L 118.735112 58.383113 
C 116.56842 58.596514 114.413511 58.916164 112.278168 59.34091 
C 110.142826 59.765656 108.029625 60.294986 105.946198 60.926986 
z
" clip-path="url(#pf9f9940c64)" style="fill: #828282"/>
   </g>
   <g id="patch_131">
    <path d="M 125.254844 124.579062 
C 125.254844 124.579062 125.254844 124.579062 125.254844 124.579062 
C 125.254844 124.579062 125.254844 124.579062 125.254844 124.579062 
L 134.295314 32.789629 
C 131.290909 32.493721 128.273786 32.345499 125.254844 32.345499 
C 122.235901 32.345499 119.218779 32.493721 116.214374 32.789629 
L 125.254844 124.579062 
z
" clip-path="url(#pf9f9940c64)" style="fill: none; stroke: #292929; stroke-width: 0.5; stroke-linejoin: miter"/>
   </g>
   <g id="patch_132">
    <path d="M 125.254844 124.579062 
C 125.254844 124.579062 125.254844 124.579062 125.254844 124.579062 
C 125.254844 124.579062 125.254844 124.579062 125.254844 124.579062 
L 151.368255 38.494681 
C 148.550585 37.63995 145.692648 36.924074 142.804767 36.349639 
C 139.916887 35.775203 137.002543 35.342901 134.072264 35.054294 
L 125.254844 124.579062 
z
" clip-path="url(#pf9f9940c64)" style="fill: none; stroke: #292929; stroke-width: 0.5; stroke-linejoin: miter"/>
   </g>
   <g id="patch_133">
    <path d="M 125.254844 124.579062 
C 125.254844 124.579062 125.254844 124.579062 125.254844 124.579062 
C 125.254844 124.579062 125.254844 124.579062 125.254844 124.579062 
L 174.307541 32.80792 
C 171.303735 31.202352 168.22291 29.74523 165.076194 28.441818 
C 161.929479 27.138406 158.720666 25.990274 155.461346 25.00157 
L 125.254844 124.579062 
z
" clip-path="url(#pf9f9940c64)" style="fill: none; stroke: #292929; stroke-width: 0.5; stroke-linejoin: miter"/>
   </g>
   <g id="patch_134">
    <path d="M 125.254844 124.579062 
C 125.254844 124.579062 125.254844 124.579062 125.254844 124.579062 
C 125.254844 124.579062 125.254844 124.579062 125.254844 124.579062 
L 195.596374 38.86766 
C 192.790912 36.565277 189.8741 34.402021 186.856474 32.385708 
C 183.838848 30.369395 180.724045 28.502454 177.523316 26.791629 
L 125.254844 124.579062 
z
" clip-path="url(#pf9f9940c64)" style="fill: none; stroke: #292929; stroke-width: 0.5; stroke-linejoin: miter"/>
   </g>
   <g id="patch_135">
    <path d="M 125.254844 124.579062 
C 125.254844 124.579062 125.254844 124.579062 125.254844 124.579062 
C 125.254844 124.579062 125.254844 124.579062 125.254844 124.579062 
L 208.098344 56.591159 
C 205.872999 53.879567 203.515863 51.278868 201.03545 48.798456 
C 198.555038 46.318044 195.954339 43.960908 193.242748 41.735562 
L 125.254844 124.579062 
z
" clip-path="url(#pf9f9940c64)" style="fill: none; stroke: #292929; stroke-width: 0.5; stroke-linejoin: miter"/>
   </g>
   <g id="patch_136">
    <path d="M 125.254844 124.579062 
C 125.254844 124.579062 125.254844 124.579062 125.254844 124.579062 
C 125.254844 124.579062 125.254844 124.579062 125.254844 124.579062 
L 185.903359 92.161756 
C 184.842292 90.176639 183.684401 88.244815 182.433868 86.37326 
C 181.183335 84.501705 179.841668 82.692676 178.413712 80.952707 
L 125.254844 124.579062 
z
" clip-path="url(#pf9f9940c64)" style="fill: none; stroke: #292929; stroke-width: 0.5; stroke-linejoin: miter"/>
   </g>
   <g id="patch_137">
    <path d="M 125.254844 124.579062 
C 125.254844 124.579062 125.254844 124.579062 125.254844 124.579062 
C 125.254844 124.579062 125.254844 124.579062 125.254844 124.579062 
L 196.767254 102.88601 
C 196.057208 100.545302 195.232667 98.240866 194.296611 95.981026 
C 193.360555 93.721186 192.31411 91.508666 191.161058 89.351457 
L 125.254844 124.579062 
z
" clip-path="url(#pf9f9940c64)" style="fill: none; stroke: #292929; stroke-width: 0.5; stroke-linejoin: miter"/>
   </g>
   <g id="patch_138">
    <path d="M 125.254844 124.579062 
C 125.254844 124.579062 125.254844 124.579062 125.254844 124.579062 
C 125.254844 124.579062 125.254844 124.579062 125.254844 124.579062 
L 171.708073 120.003819 
C 171.558318 118.483335 171.334002 116.971121 171.035936 115.472637 
C 170.737869 113.974154 170.36641 112.491208 169.922901 111.029155 
L 125.254844 124.579062 
z
" clip-path="url(#pf9f9940c64)" style="fill: none; stroke: #292929; stroke-width: 0.5; stroke-linejoin: miter"/>
   </g>
   <g id="patch_139">
    <path d="M 125.254844 124.579062 
C 125.254844 124.579062 125.254844 124.579062 125.254844 124.579062 
C 125.254844 124.579062 125.254844 124.579062 125.254844 124.579062 
L 156.529967 127.659393 
C 156.63079 126.635712 156.681294 125.607697 156.681294 124.579062 
C 156.681294 123.550428 156.63079 122.522413 156.529967 121.498732 
L 125.254844 124.579062 
z
" clip-path="url(#pf9f9940c64)" style="fill: none; stroke: #292929; stroke-width: 0.5; stroke-linejoin: miter"/>
   </g>
   <g id="patch_140">
    <path d="M 125.254844 124.579062 
C 125.254844 124.579062 125.254844 124.579062 125.254844 124.579062 
C 125.254844 124.579062 125.254844 124.579062 125.254844 124.579062 
L 144.771434 130.499355 
C 144.965214 129.860548 145.127514 129.212612 145.257746 128.557887 
C 145.387979 127.903162 145.485988 127.242438 145.55142 126.578101 
L 125.254844 124.579062 
z
" clip-path="url(#pf9f9940c64)" style="fill: none; stroke: #292929; stroke-width: 0.5; stroke-linejoin: miter"/>
   </g>
   <g id="patch_141">
    <path d="M 125.254844 124.579062 
C 125.254844 124.579062 125.254844 124.579062 125.254844 124.579062 
C 125.254844 124.579062 125.254844 124.579062 125.254844 124.579062 
L 146.316451 135.836726 
C 146.684931 135.147348 147.019342 134.440294 147.318477 133.718119 
C 147.617612 132.995943 147.88111 132.259516 148.108019 131.511497 
L 125.254844 124.579062 
z
" clip-path="url(#pf9f9940c64)" style="fill: none; stroke: #292929; stroke-width: 0.5; stroke-linejoin: miter"/>
   </g>
   <g id="patch_142">
    <path d="M 125.254844 124.579062 
C 125.254844 124.579062 125.254844 124.579062 125.254844 124.579062 
C 125.254844 124.579062 125.254844 124.579062 125.254844 124.579062 
L 137.330651 134.489421 
C 137.655032 134.094162 137.959811 133.683215 138.243888 133.258064 
C 138.527964 132.832913 138.790996 132.394071 139.032033 131.943123 
L 125.254844 124.579062 
z
" clip-path="url(#pf9f9940c64)" style="fill: none; stroke: #292929; stroke-width: 0.5; stroke-linejoin: miter"/>
   </g>
   <g id="patch_143">
    <path d="M 125.254844 124.579062 
C 125.254844 124.579062 125.254844 124.579062 125.254844 124.579062 
C 125.254844 124.579062 125.254844 124.579062 125.254844 124.579062 
L 138.737408 141.007615 
C 139.275139 140.56631 139.790879 140.098871 140.282766 139.606984 
C 140.774652 139.115098 141.242092 138.599358 141.683396 138.061627 
L 125.254844 124.579062 
z
" clip-path="url(#pf9f9940c64)" style="fill: none; stroke: #292929; stroke-width: 0.5; stroke-linejoin: miter"/>
   </g>
   <g id="patch_144">
    <path d="M 125.254844 124.579062 
C 125.254844 124.579062 125.254844 124.579062 125.254844 124.579062 
C 125.254844 124.579062 125.254844 124.579062 125.254844 124.579062 
L 133.447073 139.905646 
C 133.948735 139.637502 134.43693 139.344889 134.909893 139.028865 
C 135.382857 138.712841 135.840019 138.373786 136.27973 138.012925 
L 125.254844 124.579062 
z
" clip-path="url(#pf9f9940c64)" style="fill: none; stroke: #292929; stroke-width: 0.5; stroke-linejoin: miter"/>
   </g>
   <g id="patch_145">
    <path d="M 125.254844 124.579062 
C 125.254844 124.579062 125.254844 124.579062 125.254844 124.579062 
C 125.254844 124.579062 125.254844 124.579062 125.254844 124.579062 
L 127.60224 132.317392 
C 127.855528 132.240559 128.10489 132.151335 128.349426 132.050045 
C 128.593962 131.948755 128.833378 131.835519 129.066809 131.710748 
L 125.254844 124.579062 
z
" clip-path="url(#pf9f9940c64)" style="fill: none; stroke: #292929; stroke-width: 0.5; stroke-linejoin: miter"/>
   </g>
   <g id="patch_146">
    <path d="M 125.254844 124.579062 
C 125.254844 124.579062 125.254844 124.579062 125.254844 124.579062 
C 125.254844 124.579062 125.254844 124.579062 125.254844 124.579062 
L 126.117877 133.341585 
C 126.404687 133.313336 126.689938 133.271024 126.972599 133.214799 
C 127.255259 133.158574 127.534989 133.088506 127.810777 133.004846 
L 125.254844 124.579062 
z
" clip-path="url(#pf9f9940c64)" style="fill: none; stroke: #292929; stroke-width: 0.5; stroke-linejoin: miter"/>
   </g>
   <g id="patch_147">
    <path d="M 125.254844 124.579062 
C 125.254844 124.579062 125.254844 124.579062 125.254844 124.579062 
C 125.254844 124.579062 125.254844 124.579062 125.254844 124.579062 
L 124.49136 132.330843 
C 124.745087 132.355833 124.999889 132.368351 125.254844 132.368351 
C 125.509799 132.368351 125.7646 132.355833 126.018327 132.330843 
L 125.254844 124.579062 
z
" clip-path="url(#pf9f9940c64)" style="fill: none; stroke: #292929; stroke-width: 0.5; stroke-linejoin: miter"/>
   </g>
   <g id="patch_148">
    <path d="M 125.254844 124.579062 
C 125.254844 124.579062 125.254844 124.579062 125.254844 124.579062 
C 125.254844 124.579062 125.254844 124.579062 125.254844 124.579062 
L 121.884179 135.690657 
C 122.247878 135.800983 122.616774 135.893387 122.989536 135.967534 
C 123.362298 136.041681 123.738475 136.097482 124.116709 136.134735 
L 125.254844 124.579062 
z
" clip-path="url(#pf9f9940c64)" style="fill: none; stroke: #292929; stroke-width: 0.5; stroke-linejoin: miter"/>
   </g>
   <g id="patch_149">
    <path d="M 125.254844 124.579062 
C 125.254844 124.579062 125.254844 124.579062 125.254844 124.579062 
C 125.254844 124.579062 125.254844 124.579062 125.254844 124.579062 
L 120.14935 134.130769 
C 120.461992 134.297879 120.78265 134.449539 121.110166 134.585201 
C 121.437682 134.720862 121.771661 134.840362 122.110896 134.943268 
L 125.254844 124.579062 
z
" clip-path="url(#pf9f9940c64)" style="fill: none; stroke: #292929; stroke-width: 0.5; stroke-linejoin: miter"/>
   </g>
   <g id="patch_150">
    <path d="M 125.254844 124.579062 
C 125.254844 124.579062 125.254844 124.579062 125.254844 124.579062 
C 125.254844 124.579062 125.254844 124.579062 125.254844 124.579062 
L 122.043943 128.491556 
C 122.172005 128.596654 122.305149 128.695401 122.442896 128.78744 
C 122.580642 128.879479 122.722825 128.9647 122.868929 129.042795 
L 125.254844 124.579062 
z
" clip-path="url(#pf9f9940c64)" style="fill: none; stroke: #292929; stroke-width: 0.5; stroke-linejoin: miter"/>
   </g>
   <g id="patch_151">
    <path d="M 125.254844 124.579062 
C 125.254844 124.579062 125.254844 124.579062 125.254844 124.579062 
C 125.254844 124.579062 125.254844 124.579062 125.254844 124.579062 
L 115.525226 132.563954 
C 115.786583 132.882419 116.063419 133.18786 116.354733 133.479174 
C 116.646046 133.770488 116.951488 134.047323 117.269952 134.308681 
L 125.254844 124.579062 
z
" clip-path="url(#pf9f9940c64)" style="fill: none; stroke: #292929; stroke-width: 0.5; stroke-linejoin: miter"/>
   </g>
   <g id="patch_152">
    <path d="M 125.254844 124.579062 
C 125.254844 124.579062 125.254844 124.579062 125.254844 124.579062 
C 125.254844 124.579062 125.254844 124.579062 125.254844 124.579062 
L 115.539849 129.771835 
C 115.709816 130.089822 115.895293 130.399271 116.09561 130.699067 
C 116.295927 130.998862 116.510842 131.288642 116.73958 131.567359 
L 125.254844 124.579062 
z
" clip-path="url(#pf9f9940c64)" style="fill: none; stroke: #292929; stroke-width: 0.5; stroke-linejoin: miter"/>
   </g>
   <g id="patch_153">
    <path d="M 125.254844 124.579062 
C 125.254844 124.579062 125.254844 124.579062 125.254844 124.579062 
C 125.254844 124.579062 125.254844 124.579062 125.254844 124.579062 
L 107.563315 129.945729 
C 107.738974 130.524799 107.942958 131.094896 108.17453 131.65396 
C 108.406102 132.213024 108.664983 132.760382 108.950238 133.294056 
L 125.254844 124.579062 
z
" clip-path="url(#pf9f9940c64)" style="fill: none; stroke: #292929; stroke-width: 0.5; stroke-linejoin: miter"/>
   </g>
   <g id="patch_154">
    <path d="M 125.254844 124.579062 
C 125.254844 124.579062 125.254844 124.579062 125.254844 124.579062 
C 125.254844 124.579062 125.254844 124.579062 125.254844 124.579062 
L 103.283867 126.743015 
C 103.354696 127.462158 103.460791 128.17739 103.601768 128.886127 
C 103.742744 129.594865 103.918433 130.296253 104.128199 130.98776 
L 125.254844 124.579062 
z
" clip-path="url(#pf9f9940c64)" style="fill: none; stroke: #292929; stroke-width: 0.5; stroke-linejoin: miter"/>
   </g>
   <g id="patch_155">
    <path d="M 125.254844 124.579062 
C 125.254844 124.579062 125.254844 124.579062 125.254844 124.579062 
C 125.254844 124.579062 125.254844 124.579062 125.254844 124.579062 
L 92.754837 121.378091 
C 92.650065 122.441865 92.597584 123.510142 92.597584 124.579062 
C 92.597584 125.647983 92.650065 126.71626 92.754837 127.780034 
L 125.254844 124.579062 
z
" clip-path="url(#pf9f9940c64)" style="fill: none; stroke: #292929; stroke-width: 0.5; stroke-linejoin: miter"/>
   </g>
   <g id="patch_156">
    <path d="M 125.254844 124.579062 
C 125.254844 124.579062 125.254844 124.579062 125.254844 124.579062 
C 125.254844 124.579062 125.254844 124.579062 125.254844 124.579062 
L 91.670981 114.391509 
C 91.337528 115.490759 91.058245 116.605718 90.834142 117.732359 
C 90.610039 118.859 90.441386 119.995965 90.328793 121.139147 
L 125.254844 124.579062 
z
" clip-path="url(#pf9f9940c64)" style="fill: none; stroke: #292929; stroke-width: 0.5; stroke-linejoin: miter"/>
   </g>
   <g id="patch_157">
    <path d="M 125.254844 124.579062 
C 125.254844 124.579062 125.254844 124.579062 125.254844 124.579062 
C 125.254844 124.579062 125.254844 124.579062 125.254844 124.579062 
L 93.641695 107.681482 
C 93.088611 108.716228 92.586665 109.777505 92.137668 110.861479 
C 91.688671 111.945454 91.293165 113.05082 90.952578 114.173584 
L 125.254844 124.579062 
z
" clip-path="url(#pf9f9940c64)" style="fill: none; stroke: #292929; stroke-width: 0.5; stroke-linejoin: miter"/>
   </g>
   <g id="patch_158">
    <path d="M 125.254844 124.579062 
C 125.254844 124.579062 125.254844 124.579062 125.254844 124.579062 
C 125.254844 124.579062 125.254844 124.579062 125.254844 124.579062 
L 96.79268 101.220768 
C 96.028128 102.152377 95.309776 103.120962 94.64022 104.123025 
C 93.970663 105.125087 93.350708 106.159419 92.782595 107.222284 
L 125.254844 124.579062 
z
" clip-path="url(#pf9f9940c64)" style="fill: none; stroke: #292929; stroke-width: 0.5; stroke-linejoin: miter"/>
   </g>
   <g id="patch_159">
    <path d="M 125.254844 124.579062 
C 125.254844 124.579062 125.254844 124.579062 125.254844 124.579062 
C 125.254844 124.579062 125.254844 124.579062 125.254844 124.579062 
L 88.957536 80.350665 
C 87.509874 81.53873 86.121416 82.797155 84.797176 84.121395 
C 83.472936 85.445635 82.214511 86.834093 81.026446 88.281755 
L 125.254844 124.579062 
z
" clip-path="url(#pf9f9940c64)" style="fill: none; stroke: #292929; stroke-width: 0.5; stroke-linejoin: miter"/>
   </g>
   <g id="patch_160">
    <path d="M 125.254844 124.579062 
C 125.254844 124.579062 125.254844 124.579062 125.254844 124.579062 
C 125.254844 124.579062 125.254844 124.579062 125.254844 124.579062 
L 100.950916 79.109612 
C 99.462633 79.905116 98.014304 80.773211 96.611161 81.710762 
C 95.208017 82.648312 93.851751 83.654188 92.54726 84.724756 
L 125.254844 124.579062 
z
" clip-path="url(#pf9f9940c64)" style="fill: none; stroke: #292929; stroke-width: 0.5; stroke-linejoin: miter"/>
   </g>
   <g id="patch_161">
    <path d="M 125.254844 124.579062 
C 125.254844 124.579062 125.254844 124.579062 125.254844 124.579062 
C 125.254844 124.579062 125.254844 124.579062 125.254844 124.579062 
L 106.56664 62.972311 
C 104.550159 63.584004 102.564926 64.294332 100.618111 65.100729 
C 98.671297 65.907126 96.765247 66.80862 94.906848 67.801955 
L 125.254844 124.579062 
z
" clip-path="url(#pf9f9940c64)" style="fill: none; stroke: #292929; stroke-width: 0.5; stroke-linejoin: miter"/>
   </g>
   <g id="patch_162">
    <path d="M 125.254844 124.579062 
C 125.254844 124.579062 125.254844 124.579062 125.254844 124.579062 
C 125.254844 124.579062 125.254844 124.579062 125.254844 124.579062 
L 118.735112 58.383113 
C 116.56842 58.596514 114.413511 58.916164 112.278168 59.34091 
C 110.142826 59.765656 108.029625 60.294986 105.946198 60.926986 
L 125.254844 124.579062 
z
" clip-path="url(#pf9f9940c64)" style="fill: none; stroke: #292929; stroke-width: 0.5; stroke-linejoin: miter"/>
   </g>
   <g id="PathCollection_1">
    <defs>
     <path id="m78cbd261e5" d="M 0.193618 7.414054 
L 0.193618 7.414054 
C 0.054922 7.414054 -0.078235 7.358899 -0.176308 7.260826 
C -0.274381 7.162753 -0.329536 7.029596 -0.329536 6.890901 
L -0.329536 5.365008 
L -1.528416 6.56393 
L -1.528416 6.56393 
C -1.577018 6.612704 -1.634775 6.651408 -1.698366 6.677814 
C -1.761958 6.704221 -1.830141 6.717815 -1.898997 6.717815 
C -1.967853 6.717815 -2.036037 6.704221 -2.099628 6.677814 
C -2.163219 6.651408 -2.220976 6.612704 -2.269578 6.56393 
L -2.269578 6.56393 
C -2.318353 6.515327 -2.357056 6.457571 -2.383463 6.393979 
C -2.409869 6.330388 -2.423463 6.262205 -2.423463 6.193348 
C -2.423463 6.124492 -2.409869 6.056309 -2.383463 5.992718 
C -2.357056 5.929126 -2.318353 5.87137 -2.269578 5.822767 
L -0.329536 3.884106 
L -0.329536 0.820937 
L -2.98067 2.351538 
L -3.691824 5.001416 
L -3.691824 5.001416 
C -3.727584 5.135411 -3.815199 5.249836 -3.93523 5.319305 
C -4.055261 5.388775 -4.198123 5.407741 -4.332122 5.371997 
L -4.332122 5.371997 
C -4.466126 5.336237 -4.580558 5.248616 -4.650029 5.128576 
C -4.719499 5.008535 -4.73846 4.865662 -4.702703 4.731657 
L -4.262647 3.092721 
L -5.585535 3.855668 
L -5.585535 3.855668 
C -5.645013 3.890144 -5.710708 3.912561 -5.778854 3.921634 
C -5.847001 3.930706 -5.916272 3.926258 -5.982698 3.908543 
C -6.049125 3.890828 -6.111412 3.860192 -6.165991 3.818391 
C -6.220571 3.77659 -6.266379 3.724437 -6.300791 3.664922 
L -6.300791 3.664922 
C -6.335212 3.605364 -6.35755 3.539597 -6.366524 3.471396 
C -6.375498 3.403194 -6.370933 3.333888 -6.35309 3.267452 
C -6.335248 3.201017 -6.304476 3.138749 -6.26254 3.08422 
C -6.220605 3.029692 -6.168323 2.983966 -6.108695 2.949666 
L -4.785807 2.186762 
L -6.424743 1.746706 
L -6.424743 1.746706 
C -6.558747 1.710946 -6.673179 1.623325 -6.74265 1.503284 
C -6.81212 1.383244 -6.831081 1.240371 -6.795324 1.106366 
L -6.795324 1.106366 
C -6.777471 1.039969 -6.746703 0.977739 -6.704784 0.923241 
C -6.662864 0.868744 -6.61061 0.823041 -6.551015 0.788752 
C -6.491421 0.754464 -6.425647 0.732257 -6.357465 0.723406 
C -6.289282 0.714554 -6.220019 0.71923 -6.153645 0.737166 
L -3.505232 1.44698 
L -0.852424 -0.08496 
L -3.503767 -1.615666 
L -6.153645 -0.905851 
L -6.153645 -0.905851 
C -6.22011 -0.887939 -6.289462 -0.883321 -6.357716 -0.892262 
C -6.42597 -0.901202 -6.491793 -0.923527 -6.551403 -0.957953 
C -6.611013 -0.992379 -6.663247 -1.038234 -6.705103 -1.092883 
C -6.746958 -1.147533 -6.777619 -1.209911 -6.795324 -1.276432 
L -6.795324 -1.276432 
C -6.831068 -1.410431 -6.812101 -1.553293 -6.742632 -1.673324 
C -6.673162 -1.793355 -6.558738 -1.88097 -6.424743 -1.91673 
L -4.785807 -2.355447 
L -6.108695 -3.119732 
L -6.108695 -3.119732 
C -6.228699 -3.188976 -6.316415 -3.303132 -6.352417 -3.436921 
C -6.388419 -3.57071 -6.369839 -3.713469 -6.300791 -3.833586 
L -6.300791 -3.833586 
C -6.266491 -3.893214 -6.220765 -3.945496 -6.166237 -3.987431 
C -6.111708 -4.029367 -6.04944 -4.060139 -5.983005 -4.077981 
C -5.91657 -4.095823 -5.847263 -4.100389 -5.779062 -4.091415 
C -5.71086 -4.082441 -5.645094 -4.060102 -5.585535 -4.025682 
L -4.262647 -3.261396 
L -4.702703 -4.900332 
L -4.702703 -4.900332 
C -4.73846 -5.034337 -4.719499 -5.17721 -4.650029 -5.29725 
C -4.580558 -5.417291 -4.466126 -5.504912 -4.332122 -5.540672 
L -4.332122 -5.540672 
C -4.19831 -5.576464 -4.055613 -5.557686 -3.935617 -5.488496 
C -3.81562 -5.419305 -3.727882 -5.305212 -3.691824 -5.171472 
L -2.982009 -2.521594 
L -0.329411 -0.990302 
L -0.329411 -4.051588 
L -2.269453 -5.991589 
L -2.269453 -5.991589 
C -2.318227 -6.040191 -2.356931 -6.097947 -2.383337 -6.161539 
C -2.409744 -6.22513 -2.423338 -6.293314 -2.423338 -6.36217 
C -2.423338 -6.431026 -2.409744 -6.499209 -2.383337 -6.5628 
C -2.356931 -6.626392 -2.318227 -6.684149 -2.269453 -6.732751 
L -2.269453 -6.732751 
C -2.22085 -6.781526 -2.163094 -6.820229 -2.099502 -6.846635 
C -2.035911 -6.873042 -1.967728 -6.886636 -1.898871 -6.886636 
C -1.830015 -6.886636 -1.761832 -6.873042 -1.698241 -6.846635 
C -1.634649 -6.820229 -1.576893 -6.781526 -1.52829 -6.732751 
L -0.329411 -5.533829 
L -0.329411 -7.059722 
L -0.329411 -7.059722 
C -0.329411 -7.198418 -0.274255 -7.331575 -0.176182 -7.429647 
C -0.07811 -7.52772 0.055047 -7.582875 0.193743 -7.582875 
L 0.193743 -7.582875 
C 0.332439 -7.582875 0.465596 -7.52772 0.563669 -7.429647 
C 0.661741 -7.331575 0.716897 -7.198418 0.716897 -7.059722 
L 0.716897 -5.533829 
L 1.915777 -6.732751 
L 1.915777 -6.732751 
C 1.964379 -6.781526 2.022136 -6.820229 2.085727 -6.846635 
C 2.149318 -6.873042 2.217502 -6.886636 2.286358 -6.886636 
C 2.355214 -6.886636 2.423397 -6.873042 2.486989 -6.846635 
C 2.55058 -6.820229 2.608337 -6.781526 2.656939 -6.732751 
L 2.656939 -6.732751 
C 2.705714 -6.684149 2.744417 -6.626392 2.770823 -6.5628 
C 2.79723 -6.499209 2.810824 -6.431026 2.810824 -6.36217 
C 2.810824 -6.293314 2.79723 -6.22513 2.770823 -6.161539 
C 2.744417 -6.097947 2.705714 -6.040191 2.656939 -5.991589 
L 0.716897 -4.051588 
L 0.716897 -0.991139 
L 3.369495 -2.522954 
L 4.07931 -5.171367 
L 4.07931 -5.171367 
C 4.115368 -5.305107 4.203106 -5.4192 4.323103 -5.488391 
C 4.4431 -5.557582 4.585797 -5.576359 4.719608 -5.540567 
L 4.719608 -5.540567 
C 4.853612 -5.504807 4.968045 -5.417186 5.037515 -5.297146 
C 5.106986 -5.177105 5.125946 -5.034232 5.090189 -4.900227 
L 4.650133 -3.262673 
L 5.973022 -4.025577 
L 5.973022 -4.025577 
C 6.03258 -4.059998 6.098346 -4.082336 6.166548 -4.09131 
C 6.234749 -4.100284 6.304056 -4.095719 6.370491 -4.077876 
C 6.436926 -4.060034 6.499194 -4.029262 6.553723 -3.987327 
C 6.608252 -3.945391 6.653978 -3.893109 6.688277 -3.833481 
L 6.688277 -3.833481 
C 6.757325 -3.713365 6.775905 -3.570605 6.739903 -3.436816 
C 6.703901 -3.303027 6.616186 -3.188871 6.496181 -3.119628 
L 5.173293 -2.355342 
L 6.812229 -1.916625 
L 6.812229 -1.916625 
C 6.946224 -1.880865 7.060649 -1.79325 7.130118 -1.67322 
C 7.199588 -1.553189 7.218554 -1.410326 7.18281 -1.276327 
L 7.18281 -1.276327 
C 7.165106 -1.209806 7.134445 -1.147429 7.092589 -1.092779 
C 7.050733 -1.038129 6.998499 -0.992274 6.938889 -0.957848 
C 6.879279 -0.923422 6.813456 -0.901098 6.745202 -0.892157 
C 6.676949 -0.883217 6.607597 -0.887835 6.541131 -0.905746 
L 3.891253 -1.615561 
L 1.239492 -0.084604 
L 3.892718 1.447085 
L 6.541131 0.73727 
L 6.541131 0.73727 
C 6.674948 0.701466 6.817656 0.720237 6.937662 0.789429 
C 7.057669 0.858621 7.145413 0.972721 7.181471 1.10647 
L 7.181471 1.10647 
C 7.217274 1.240293 7.198497 1.383006 7.129297 1.503014 
C 7.060096 1.623021 6.945986 1.710762 6.812229 1.74681 
L 5.173293 2.186866 
L 6.496181 2.949771 
L 6.496181 2.949771 
C 6.555697 2.984183 6.607849 3.029991 6.649651 3.08457 
C 6.691452 3.13915 6.722088 3.201437 6.739803 3.267863 
C 6.757517 3.33429 6.761966 3.403561 6.752893 3.471707 
C 6.743821 3.539854 6.721404 3.605549 6.686927 3.665026 
L 6.686927 3.665026 
C 6.617458 3.784813 6.503196 3.87225 6.369416 3.907994 
C 6.235636 3.943739 6.092989 3.924946 5.973032 3.855772 
L 4.650144 3.091487 
L 5.08886 4.731783 
L 5.08886 4.731783 
C 5.124664 4.865606 5.105887 5.008319 5.036686 5.128326 
C 4.967486 5.248334 4.853376 5.336074 4.719619 5.372123 
L 4.719619 5.372123 
C 4.585619 5.407867 4.442757 5.3889 4.322726 5.319431 
C 4.202695 5.249961 4.115081 5.135537 4.07932 5.001542 
L 3.368166 2.351664 
L 0.717033 0.821063 
L 0.717033 3.884232 
L 2.657075 5.822893 
L 2.657075 5.822893 
C 2.70585 5.871495 2.744553 5.929252 2.770959 5.992843 
C 2.797366 6.056435 2.81096 6.124618 2.81096 6.193474 
C 2.81096 6.26233 2.797366 6.330514 2.770959 6.394105 
C 2.744553 6.457696 2.70585 6.515453 2.657075 6.564055 
L 2.657075 6.564055 
C 2.608473 6.61283 2.550716 6.651533 2.487125 6.67794 
C 2.423533 6.704346 2.35535 6.71794 2.286494 6.71794 
C 2.217638 6.71794 2.149454 6.704346 2.085863 6.67794 
C 2.022272 6.651533 1.964515 6.61283 1.915913 6.564055 
L 0.717033 5.365133 
L 0.717033 6.891026 
L 0.717033 6.891026 
C 0.717033 7.029722 0.661877 7.162879 0.563805 7.260952 
C 0.465732 7.359024 0.332575 7.41418 0.193879 7.41418 
L 0.193618 7.414054 
z
"/>
    </defs>
    <g clip-path="url(#pf9f9940c64)">
     <use xlink:href="#m78cbd261e5" x="153.834325" y="45.715085" style="fill: #9e2096; fill-opacity: 0.7"/>
    </g>
   </g>
   <g id="patch_163">
    <path d="M 125.254844 13.699062 
C 110.694216 13.699062 96.275171 16.567189 82.822905 22.1393 
C 69.370638 27.711411 57.146763 35.879144 46.850844 46.175063 
C 36.554925 56.470982 28.387192 68.694857 22.815081 82.147124 
C 17.24297 95.59939 14.374844 110.018434 14.374844 124.579063 
C 14.374844 139.139691 17.24297 153.558735 22.815081 167.011001 
C 28.387192 180.463268 36.554925 192.687143 46.850844 202.983062 
C 57.146763 213.278981 69.370638 221.446714 82.822905 227.018825 
C 96.275171 232.590936 110.694216 235.459063 125.254844 235.459063 
C 139.815472 235.459063 154.234516 232.590936 167.686783 227.018825 
C 181.139049 221.446714 193.362925 213.278981 203.658844 202.983062 
C 213.954763 192.687143 222.122495 180.463268 227.694606 167.011001 
C 233.266717 153.558735 236.134844 139.139691 236.134844 124.579062 
C 236.134844 110.018434 233.266717 95.59939 227.694606 82.147124 
C 222.122495 68.694857 213.954763 56.470982 203.658844 46.175063 
C 193.362925 35.879144 181.139049 27.711411 167.686783 22.1393 
C 154.234516 16.567189 139.815472 13.699062 125.254844 13.699062 
" style="fill: none; stroke: #000000; stroke-width: 0.8; stroke-linejoin: miter; stroke-linecap: square"/>
   </g>
  </g>
 </g>
 <defs>
  <clipPath id="pf9f9940c64">
   <path d="M 236.134844 124.579063 
C 236.134844 110.018434 233.266717 95.59939 227.694606 82.147124 
C 222.122495 68.694857 213.954763 56.470982 203.658844 46.175063 
C 193.362925 35.879144 181.139049 27.711411 167.686783 22.1393 
C 154.234516 16.567189 139.815472 13.699062 125.254844 13.699062 
C 110.694216 13.699062 96.275171 16.567189 82.822905 22.1393 
C 69.370638 27.711411 57.146763 35.879144 46.850844 46.175063 
C 36.554925 56.470982 28.387192 68.694857 22.815081 82.147124 
C 17.24297 95.59939 14.374844 110.018434 14.374844 124.579062 
C 14.374844 139.139691 17.24297 153.558735 22.815081 167.011001 
C 28.387192 180.463268 36.554925 192.687143 46.850844 202.983062 
C 57.146763 213.278981 69.370638 221.446714 82.822905 227.018825 
C 96.275171 232.590936 110.694216 235.459063 125.254844 235.459063 
C 139.815472 235.459063 154.234516 232.590936 167.686783 227.018825 
C 181.139049 221.446714 193.362925 213.278981 203.658844 202.983062 
C 213.954763 192.687143 222.122495 180.463268 227.694606 167.011001 
C 233.266717 153.558735 236.134844 139.139691 236.134844 124.579063 
M 125.254844 124.579063 
C 125.254844 124.579063 125.254844 124.579063 125.254844 124.579063 
C 125.254844 124.579063 125.254844 124.579063 125.254844 124.579063 
C 125.254844 124.579063 125.254844 124.579063 125.254844 124.579063 
C 125.254844 124.579063 125.254844 124.579063 125.254844 124.579063 
C 125.254844 124.579063 125.254844 124.579063 125.254844 124.579063 
C 125.254844 124.579063 125.254844 124.579063 125.254844 124.579063 
C 125.254844 124.579063 125.254844 124.579063 125.254844 124.579063 
C 125.254844 124.579063 125.254844 124.579063 125.254844 124.579063 
C 125.254844 124.579063 125.254844 124.579063 125.254844 124.579063 
C 125.254844 124.579063 125.254844 124.579063 125.254844 124.579063 
C 125.254844 124.579063 125.254844 124.579063 125.254844 124.579063 
C 125.254844 124.579063 125.254844 124.579063 125.254844 124.579063 
C 125.254844 124.579063 125.254844 124.579063 125.254844 124.579063 
C 125.254844 124.579063 125.254844 124.579063 125.254844 124.579063 
C 125.254844 124.579063 125.254844 124.579063 125.254844 124.579063 
C 125.254844 124.579063 125.254844 124.579063 125.254844 124.579063 
z
"/>
  </clipPath>
 </defs>
</svg>
