<?xml version="1.0" encoding="utf-8" standalone="no"?>
<!DOCTYPE svg PUBLIC "-//W3C//DTD SVG 1.1//EN"
  "http://www.w3.org/Graphics/SVG/1.1/DTD/svg11.dtd">
<svg xmlns:xlink="http://www.w3.org/1999/xlink" width="248.410469pt" height="249.158125pt" viewBox="0 0 248.410469 249.158125" xmlns="http://www.w3.org/2000/svg" version="1.1">
 <title>Ski Rose for Serre-Chevalier</title>
 <metadata>
  <rdf:RDF xmlns:dc="http://purl.org/dc/elements/1.1/" xmlns:cc="http://creativecommons.org/ns#" xmlns:rdf="http://www.w3.org/1999/02/22-rdf-syntax-ns#">
   <cc:Work>
    <dc:type rdf:resource="http://purl.org/dc/dcmitype/StillImage"/>
    <dc:title>Ski Rose for Serre-Chevalier</dc:title>
    <dc:date>2026-03-14T10:37:43.713578</dc:date>
    <dc:description>A 32-bin stacked histogram of downhill ski run orientations colored by difficulty.</dc:description>
    <dc:format>image/svg+xml</dc:format>
    <dc:source>https://openskimap.org/?obj=94cb050e1e20e04e822c14216840885aea2eafcc</dc:source>
    <dc:creator>
     <cc:Agent>
      <dc:title>https://github.com/dhimmel/openskistats</dc:title>
     </cc:Agent>
    </dc:creator>
    <dc:rights>
     <cc:Agent>
      <dc:title>https://creativecommons.org/licenses/by/4.0/</dc:title>
     </cc:Agent>
    </dc:rights>
   </cc:Work>
  </rdf:RDF>
 </metadata>
 <defs>
  <style type="text/css">*{stroke-linejoin: round; stroke-linecap: butt}</style>
 </defs>
 <g id="figure_1">
  <g id="patch_1">
   <path d="M 0 249.158125 
L 248.410469 249.158125 
L 248.410469 0 
L 0 0 
z
" style="fill: #ffffff"/>
  </g>
  <g id="axes_1">
   <g id="patch_2">
    <path d="M 236.134844 124.579063 
C 236.134844 110.018434 233.266717 95.59939 227.694606 82.147124 
C 222.122495 68.694857 213.954763 56.470982 203.658844 46.175063 
C 193.362925 35.879144 181.139049 27.711411 167.686783 22.1393 
C 154.234516 16.567189 139.815472 13.699063 125.254844 13.699063 
C 110.694216 13.699063 96.275171 16.567189 82.822905 22.1393 
C 69.370638 27.711411 57.146763 35.879144 46.850844 46.175063 
C 36.554925 56.470982 28.387192 68.694857 22.815081 82.147124 
C 17.24297 95.59939 14.374844 110.018434 14.374844 124.579062 
C 14.374844 139.139691 17.24297 153.558735 22.815081 167.011001 
C 28.387192 180.463268 36.554925 192.687143 46.850844 202.983062 
C 57.146763 213.278981 69.370638 221.446714 82.822905 227.018825 
C 96.275171 232.590936 110.694216 235.459063 125.254844 235.459063 
C 139.815472 235.459063 154.234516 232.590936 167.686783 227.018825 
C 181.139049 221.446714 193.362925 213.278981 203.658844 202.983062 
C 213.954763 192.687143 222.122495 180.463268 227.694606 167.011001 
C 233.266717 153.558735 236.134844 139.139691 236.134844 124.579063 
M 125.254844 124.579063 
C 125.254844 124.579063 125.254844 124.579063 125.254844 124.579063 
C 125.254844 124.579063 125.254844 124.579063 125.254844 124.579063 
C 125.254844 124.579063 125.254844 124.579063 125.254844 124.579063 
C 125.254844 124.579063 125.254844 124.579063 125.254844 124.579063 
C 125.254844 124.579063 125.254844 124.579063 125.254844 124.579063 
C 125.254844 124.579063 125.254844 124.579063 125.254844 124.579063 
C 125.254844 124.579063 125.254844 124.579063 125.254844 124.579063 
C 125.254844 124.579063 125.254844 124.579063 125.254844 124.579063 
C 125.254844 124.579063 125.254844 124.579063 125.254844 124.579063 
C 125.254844 124.579063 125.254844 124.579063 125.254844 124.579063 
C 125.254844 124.579063 125.254844 124.579063 125.254844 124.579063 
C 125.254844 124.579063 125.254844 124.579063 125.254844 124.579063 
C 125.254844 124.579063 125.254844 124.579063 125.254844 124.579063 
C 125.254844 124.579063 125.254844 124.579063 125.254844 124.579063 
C 125.254844 124.579063 125.254844 124.579063 125.254844 124.579063 
C 125.254844 124.579063 125.254844 124.579063 125.254844 124.579063 
z
" style="fill: #ffffff"/>
   </g>
   <g id="FillBetweenPolyCollection_1">
    <defs>
     <path id="mf3532b2602" d="M 235.272803 -137.114026 
L 235.086316 -137.092778 
L 234.132085 -135.062748 
L 233.089365 -133.065823 
L 231.977337 -131.10649 
L 231.021755 -129.196946 
L 229.809387 -127.31692 
L 228.555298 -125.480552 
L 227.479325 -123.686963 
L 226.15408 -121.936923 
L 224.797145 -120.232952 
L 223.626832 -118.562374 
L 222.21324 -116.948271 
L 220.989502 -115.360863 
L 219.526789 -113.838131 
L 218.256146 -112.335209 
L 216.751306 -110.904825 
L 215.439973 -109.487248 
L 213.899738 -108.149702 
L 212.553777 -106.817894 
L 211.192006 -105.527252 
L 209.815779 -104.277778 
L 208.222528 -103.12216 
L 206.823294 -101.958129 
L 205.413759 -100.83491 
L 203.995252 -99.752307 
L 202.569096 -98.710076 
L 201.136606 -97.707921 
L 199.699088 -96.7455 
L 198.446132 -95.748247 
L 196.999719 -94.861362 
L 195.552013 -94.012984 
L 194.104276 -93.202569 
L 192.834796 -92.345079 
L 191.387546 -91.606514 
L 190.114776 -90.815119 
L 188.672422 -90.146127 
L 187.400307 -89.418851 
L 186.128358 -88.721822 
L 184.857426 -88.054553 
L 183.43373 -87.515024 
L 182.170736 -86.907255 
L 180.91127 -86.32746 
L 179.656102 -85.775022 
L 178.405979 -85.249291 
L 177.161626 -84.749588 
L 176.056732 -84.169416 
L 174.822165 -83.718916 
L 173.595331 -83.292386 
L 172.37685 -82.889033 
L 171.285226 -82.399988 
L 170.081186 -82.040452 
L 168.997541 -81.593234 
L 167.809911 -81.274711 
L 166.735997 -80.867047 
L 165.566526 -80.586581 
L 164.503898 -80.216077 
L 163.354092 -79.970574 
L 162.304097 -79.634724 
L 161.259074 -79.315541 
L 160.219286 -79.012515 
L 159.108191 -78.828889 
L 158.083085 -78.555566 
L 157.063841 -78.296685 
L 156.050626 -78.051711 
L 155.043582 -77.82011 
L 154.042827 -77.601344 
L 153.048455 -77.394873 
L 152.060537 -77.20016 
L 151.079116 -77.01667 
L 150.104212 -76.84387 
L 149.135822 -76.68123 
L 148.173916 -76.528228 
L 147.21844 -76.384349 
L 146.269316 -76.249084 
L 145.358033 -76.045671 
L 144.418563 -75.929126 
L 143.485163 -75.819858 
L 142.557665 -75.717401 
L 141.63588 -75.621306 
L 140.738982 -75.469649 
L 139.825749 -75.388512 
L 138.917646 -75.31259 
L 138.027844 -75.189535 
L 137.127306 -75.126699 
L 136.231165 -75.068075 
L 135.347593 -74.971616 
L 134.457776 -74.924482 
L 133.571492 -74.880733 
L 132.692999 -74.809203 
L 131.811585 -74.775665 
L 130.932732 -74.744874 
L 130.057941 -74.696996 
L 129.18234 -74.675489 
L 128.308251 -74.656302 
L 127.435614 -74.631215 
L 126.563048 -74.62076 
L 125.690903 -74.611584 
L 124.818791 -74.612418 
L 123.946656 -74.621393 
L 123.074129 -74.63248 
L 122.20154 -74.657987 
L 121.327529 -74.677802 
L 120.453902 -74.719379 
L 119.577337 -74.748227 
L 118.698625 -74.779637 
L 117.821962 -74.844489 
L 116.93903 -74.885721 
L 116.052948 -74.930074 
L 115.171801 -75.019325 
L 114.27998 -75.074651 
L 113.3841 -75.133858 
L 112.49723 -75.249031 
L 111.594288 -75.320691 
L 110.686504 -75.397173 
L 109.792934 -75.540151 
L 108.877004 -75.630859 
L 107.955592 -75.727484 
L 107.028488 -75.830459 
L 106.124294 -76.013333 
L 105.187972 -76.133349 
L 104.245544 -76.260981 
L 103.296884 -76.396717 
L 102.341889 -76.541054 
L 101.380482 -76.6945 
L 100.412607 -76.85757 
L 99.487215 -77.120993 
L 98.509574 -77.306958 
L 97.525506 -77.503989 
L 96.535052 -77.712622 
L 95.538275 -77.933392 
L 94.469629 -78.067676 
L 93.45704 -78.312971 
L 92.438437 -78.572157 
L 91.413986 -78.845769 
L 90.383877 -79.134334 
L 89.348321 -79.438377 
L 88.220262 -79.652523 
L 87.17098 -79.988588 
L 86.117024 -80.341804 
L 84.960154 -80.605125 
L 83.894232 -80.994072 
L 82.718438 -81.293701 
L 81.641994 -81.720834 
L 80.448894 -82.059803 
L 79.363574 -82.527462 
L 78.155019 -82.908658 
L 76.937538 -83.312185 
L 75.840719 -83.845202 
L 74.611008 -84.295137 
L 73.374173 -84.769623 
L 72.130886 -85.269402 
L 70.881848 -85.795181 
L 69.627781 -86.347642 
L 68.369435 -86.927432 
L 67.107578 -87.535169 
L 65.843001 -88.171439 
L 64.576516 -88.836796 
L 63.144728 -89.43885 
L 61.873822 -90.165976 
L 60.603632 -90.923772 
L 59.161398 -91.626086 
L 57.892456 -92.448852 
L 56.447456 -93.221729 
L 55.183762 -94.111289 
L 53.740465 -94.956837 
L 52.29837 -95.840743 
L 50.858748 -96.763502 
L 49.615738 -97.79385 
L 48.187296 -98.792622 
L 46.765094 -99.83134 
L 45.350447 -100.910302 
L 43.944675 -102.029757 
L 42.345679 -103.137295 
L 40.959911 -104.34164 
L 39.587152 -105.586992 
L 38.228748 -106.873403 
L 36.676286 -108.161997 
L 35.349439 -109.534058 
L 34.041157 -110.947086 
L 32.539703 -112.372883 
L 31.271879 -113.871056 
L 29.81229 -115.38899 
L 28.591107 -116.971461 
L 27.180326 -118.580568 
L 26.012241 -120.246037 
L 24.657695 -121.944833 
L 23.334527 -123.689617 
L 22.259961 -125.477885 
L 21.007009 -127.308888 
L 19.794882 -129.183544 
L 18.838362 -131.087773 
L 17.723096 -133.041995 
L 16.67326 -135.03428 
L 15.897299 -137.038781 
L 15.097947 -137.129856 
L 15.097947 -137.129856 
L 14.982455 -135.197086 
L 14.764168 -133.274867 
L 14.715108 -131.339962 
L 14.512012 -129.414199 
L 14.528131 -127.478544 
L 14.389442 -125.54657 
L 14.523444 -123.612724 
L 14.449286 -121.677517 
L 14.593627 -119.747489 
L 14.582412 -117.810047 
L 14.788201 -115.885149 
L 14.898179 -113.952924 
L 15.165763 -112.035996 
L 15.34059 -110.108576 
L 15.605876 -108.191914 
L 15.961787 -106.289677 
L 16.232263 -104.372922 
L 16.648693 -102.482891 
L 17.094129 -100.600409 
L 17.460691 -98.699976 
L 17.966678 -96.832456 
L 18.431048 -94.954202 
L 18.994505 -93.103316 
L 19.587322 -91.262221 
L 20.113302 -89.399195 
L 20.767198 -87.578047 
L 21.45072 -85.768291 
L 22.092863 -83.942478 
L 22.837031 -82.156215 
L 23.612097 -80.383539 
L 24.418604 -78.625341 
L 25.192417 -76.851733 
L 26.066303 -75.12548 
L 26.916869 -73.387553 
L 27.859566 -71.697741 
L 28.753014 -69.980954 
L 29.743556 -68.318615 
L 30.721059 -66.648685 
L 31.744809 -65.0066 
L 32.796301 -63.382088 
L 34.18945 -61.991552 
L 36.007321 -60.919423 
L 37.918258 -59.953389 
L 39.780952 -58.992639 
L 41.64838 -58.075478 
L 43.523011 -57.204539 
L 45.393737 -56.371234 
L 47.203346 -55.52493 
L 49.072315 -54.770637 
L 50.876255 -53.996417 
L 52.729644 -53.308747 
L 54.523063 -52.60188 
L 56.364216 -51.983488 
L 58.143458 -51.339837 
L 59.915412 -50.726269 
L 61.679442 -50.141831 
L 63.434975 -49.585565 
L 65.137227 -49.00086 
L 66.876129 -48.49844 
L 68.605134 -48.021373 
L 70.288672 -47.519332 
L 71.998627 -47.090787 
L 73.662525 -46.631571 
L 75.352332 -46.24781 
L 77.002549 -45.838473 
L 78.641385 -45.445113 
L 80.275336 -45.078052 
L 81.897748 -44.725225 
L 83.514922 -44.397419 
L 85.120553 -44.082129 
L 86.720724 -43.790601 
L 88.309503 -43.509911 
L 89.892725 -43.251757 
L 91.449976 -42.966891 
L 93.015297 -42.734205 
L 94.575099 -42.522358 
L 96.113314 -42.285922 
L 97.656251 -42.095563 
L 99.182798 -41.889096 
L 100.714302 -41.73158 
L 102.229734 -41.553198 
L 103.746506 -41.41249 
L 105.251779 -41.260299 
L 106.75273 -41.121419 
L 108.249575 -40.995498 
L 109.747014 -40.906298 
L 111.235646 -40.803642 
L 112.720977 -40.713003 
L 114.203283 -40.634127 
L 115.682854 -40.566784 
L 117.160696 -40.518127 
L 118.635428 -40.471405 
L 120.108413 -40.43567 
L 121.579978 -40.410801 
L 123.050451 -40.396703 
L 124.520166 -40.393309 
L 125.989496 -40.3962 
L 127.45926 -40.395816 
L 128.929767 -40.409472 
L 130.401382 -40.433901 
L 131.874434 -40.469198 
L 133.349246 -40.515485 
L 134.826136 -40.572913 
L 136.305413 -40.641656 
L 137.789269 -40.709267 
L 139.274732 -40.799515 
L 140.76351 -40.901787 
L 142.255867 -41.016362 
L 143.75821 -41.115769 
L 145.259358 -41.254263 
L 146.764841 -41.406075 
L 148.281735 -41.546775 
L 149.797388 -41.72482 
L 151.317967 -41.917395 
L 152.85609 -42.087634 
L 154.388124 -42.309216 
L 155.937616 -42.514259 
L 157.497923 -42.725237 
L 159.048668 -42.993554 
L 160.620877 -43.242755 
L 162.204691 -43.500022 
L 163.793526 -43.781036 
L 165.370548 -44.119408 
L 166.978367 -44.42892 
L 168.59085 -44.764067 
L 170.215594 -45.111206 
L 171.875026 -45.433699 
L 173.513823 -45.827566 
L 175.16487 -46.236014 
L 176.81941 -46.673501 
L 178.518897 -47.079384 
L 180.19457 -47.556408 
L 181.913744 -48.008954 
L 183.643185 -48.485895 
L 185.337622 -49.044658 
L 187.08455 -49.573631 
L 188.840493 -50.129832 
L 190.604932 -50.714224 
L 192.377292 -51.327764 
L 194.156938 -51.971405 
L 195.999291 -52.58899 
L 197.79313 -53.295887 
L 199.59187 -54.035859 
L 201.450422 -54.758679 
L 203.320657 -55.512265 
L 205.130628 -56.358698 
L 207.000777 -57.192916 
L 208.876627 -58.063293 
L 210.743364 -58.981414 
L 212.607081 -59.941807 
L 214.449557 -60.957092 
L 216.334737 -61.981586 
L 217.712401 -63.38274 
L 218.766612 -65.005496 
L 219.758014 -66.667445 
L 220.786188 -68.3068 
L 221.735164 -69.993124 
L 222.673776 -71.684898 
L 223.569877 -73.399496 
L 224.465447 -75.114481 
L 225.314647 -76.852985 
L 226.104936 -78.619027 
L 226.848061 -80.405074 
L 227.660419 -82.161284 
L 228.402322 -83.94819 
L 229.038208 -85.776053 
L 229.736416 -87.580197 
L 230.387678 -89.402108 
L 230.992196 -91.240203 
L 231.550212 -93.09294 
L 232.062016 -94.958812 
L 232.593744 -96.819335 
L 233.009058 -98.709564 
L 233.50247 -100.581141 
L 233.886487 -102.477705 
L 234.170891 -104.392666 
L 234.594983 -106.281798 
L 234.795257 -108.208138 
L 235.102265 -110.117375 
L 235.409269 -112.028551 
L 235.491546 -113.964475 
L 235.720949 -115.885191 
L 235.884749 -117.812648 
L 236.013963 -119.743215 
L 235.97353 -121.679792 
L 236.057329 -123.612104 
L 236.105894 -125.546445 
L 236.096076 -127.481542 
L 235.889175 -129.409462 
L 235.836508 -131.342527 
L 235.751161 -133.275311 
L 235.607912 -135.204854 
L 235.272803 -137.114026 
z
" style="stroke: #ffee9c"/>
    </defs>
    <g clip-path="url(#p11e9426817)">
     <use xlink:href="#mf3532b2602" x="0" y="249.158125" style="fill: #ffee9c; stroke: #ffee9c"/>
    </g>
   </g>
   <g id="matplotlib.axis_1">
    <g id="xtick_1">
     <g id="line2d_1">
      <path d="M 125.254844 124.579063 
L 125.254844 13.699063 
" clip-path="url(#p11e9426817)" style="fill: none; stroke: #b0b0b0; stroke-width: 0.8; stroke-linecap: square"/>
     </g>
     <g id="text_1">
      <!-- N -->
      <g transform="translate(121.070469 7.958438) scale(0.1 -0.1)">
       <defs>
        <path id="DejaVuSans-Bold-4e" d="M 588 4666 
L 1931 4666 
L 3628 1466 
L 3628 4666 
L 4769 4666 
L 4769 0 
L 3425 0 
L 1728 3200 
L 1728 0 
L 588 0 
L 588 4666 
z
" transform="scale(0.015625)"/>
       </defs>
       <use xlink:href="#DejaVuSans-Bold-4e"/>
      </g>
     </g>
    </g>
    <g id="xtick_2">
     <g id="line2d_2">
      <path d="M 125.254844 124.579063 
L 203.658844 46.175063 
" clip-path="url(#p11e9426817)" style="fill: none; stroke: #b0b0b0; stroke-width: 0.8; stroke-linecap: square"/>
     </g>
    </g>
    <g id="xtick_3">
     <g id="line2d_3">
      <path d="M 125.254844 124.579063 
L 236.134844 124.579063 
" clip-path="url(#p11e9426817)" style="fill: none; stroke: #b0b0b0; stroke-width: 0.8; stroke-linecap: square"/>
     </g>
     <g id="text_2">
      <!-- E -->
      <g transform="translate(241.219219 127.338438) scale(0.1 -0.1)">
       <defs>
        <path id="DejaVuSans-Bold-45" d="M 588 4666 
L 3834 4666 
L 3834 3756 
L 1791 3756 
L 1791 2888 
L 3713 2888 
L 3713 1978 
L 1791 1978 
L 1791 909 
L 3903 909 
L 3903 0 
L 588 0 
L 588 4666 
z
" transform="scale(0.015625)"/>
       </defs>
       <use xlink:href="#DejaVuSans-Bold-45"/>
      </g>
     </g>
    </g>
    <g id="xtick_4">
     <g id="line2d_4">
      <path d="M 125.254844 124.579063 
L 203.658844 202.983062 
" clip-path="url(#p11e9426817)" style="fill: none; stroke: #b0b0b0; stroke-width: 0.8; stroke-linecap: square"/>
     </g>
    </g>
    <g id="xtick_5">
     <g id="line2d_5">
      <path d="M 125.254844 124.579063 
L 125.254844 235.459063 
" clip-path="url(#p11e9426817)" style="fill: none; stroke: #b0b0b0; stroke-width: 0.8; stroke-linecap: square"/>
     </g>
     <g id="text_3">
      <!-- S -->
      <g transform="translate(121.654062 246.718438) scale(0.1 -0.1)">
       <defs>
        <path id="DejaVuSans-Bold-53" d="M 3834 4519 
L 3834 3531 
Q 3450 3703 3084 3790 
Q 2719 3878 2394 3878 
Q 1963 3878 1756 3759 
Q 1550 3641 1550 3391 
Q 1550 3203 1689 3098 
Q 1828 2994 2194 2919 
L 2706 2816 
Q 3484 2659 3812 2340 
Q 4141 2022 4141 1434 
Q 4141 663 3683 286 
Q 3225 -91 2284 -91 
Q 1841 -91 1394 -6 
Q 947 78 500 244 
L 500 1259 
Q 947 1022 1364 901 
Q 1781 781 2169 781 
Q 2563 781 2772 912 
Q 2981 1044 2981 1288 
Q 2981 1506 2839 1625 
Q 2697 1744 2272 1838 
L 1806 1941 
Q 1106 2091 782 2419 
Q 459 2747 459 3303 
Q 459 4000 909 4375 
Q 1359 4750 2203 4750 
Q 2588 4750 2994 4692 
Q 3400 4634 3834 4519 
z
" transform="scale(0.015625)"/>
       </defs>
       <use xlink:href="#DejaVuSans-Bold-53"/>
      </g>
     </g>
    </g>
    <g id="xtick_6">
     <g id="line2d_6">
      <path d="M 125.254844 124.579063 
L 46.850844 202.983062 
" clip-path="url(#p11e9426817)" style="fill: none; stroke: #b0b0b0; stroke-width: 0.8; stroke-linecap: square"/>
     </g>
    </g>
    <g id="xtick_7">
     <g id="line2d_7">
      <path d="M 125.254844 124.579063 
L 14.374844 124.579063 
" clip-path="url(#p11e9426817)" style="fill: none; stroke: #b0b0b0; stroke-width: 0.8; stroke-linecap: square"/>
     </g>
     <g id="text_4">
      <!-- W -->
      <g transform="translate(0.36 127.338438) scale(0.1 -0.1)">
       <defs>
        <path id="DejaVuSans-Bold-57" d="M 191 4666 
L 1344 4666 
L 2150 1275 
L 2950 4666 
L 4109 4666 
L 4909 1275 
L 5716 4666 
L 6859 4666 
L 5759 0 
L 4372 0 
L 3525 3547 
L 2688 0 
L 1300 0 
L 191 4666 
z
" transform="scale(0.015625)"/>
       </defs>
       <use xlink:href="#DejaVuSans-Bold-57"/>
      </g>
     </g>
    </g>
    <g id="xtick_8">
     <g id="line2d_8">
      <path d="M 125.254844 124.579063 
L 46.850844 46.175063 
" clip-path="url(#p11e9426817)" style="fill: none; stroke: #b0b0b0; stroke-width: 0.8; stroke-linecap: square"/>
     </g>
    </g>
   </g>
   <g id="matplotlib.axis_2"/>
   <g id="patch_3">
    <path d="M 125.254844 124.579063 
C 125.254844 124.579063 125.254844 124.579063 125.254844 124.579063 
C 125.254844 124.579063 125.254844 124.579063 125.254844 124.579063 
L 125.254844 124.579063 
C 125.254844 124.579063 125.254844 124.579063 125.254844 124.579063 
C 125.254844 124.579063 125.254844 124.579063 125.254844 124.579063 
z
" clip-path="url(#p11e9426817)" style="fill: #d9d9d9"/>
   </g>
   <g id="patch_4">
    <path d="M 125.254844 124.579063 
C 125.254844 124.579063 125.254844 124.579063 125.254844 124.579063 
C 125.254844 124.579063 125.254844 124.579063 125.254844 124.579063 
L 125.254844 124.579063 
C 125.254844 124.579063 125.254844 124.579063 125.254844 124.579063 
C 125.254844 124.579063 125.254844 124.579063 125.254844 124.579063 
z
" clip-path="url(#p11e9426817)" style="fill: #d9d9d9"/>
   </g>
   <g id="patch_5">
    <path d="M 125.254844 124.579063 
C 125.254844 124.579063 125.254844 124.579063 125.254844 124.579063 
C 125.254844 124.579063 125.254844 124.579063 125.254844 124.579063 
L 125.254844 124.579063 
C 125.254844 124.579063 125.254844 124.579063 125.254844 124.579063 
C 125.254844 124.579063 125.254844 124.579063 125.254844 124.579063 
z
" clip-path="url(#p11e9426817)" style="fill: #d9d9d9"/>
   </g>
   <g id="patch_6">
    <path d="M 125.254844 124.579063 
C 125.254844 124.579063 125.254844 124.579063 125.254844 124.579063 
C 125.254844 124.579063 125.254844 124.579063 125.254844 124.579063 
L 125.254844 124.579063 
C 125.254844 124.579063 125.254844 124.579063 125.254844 124.579063 
C 125.254844 124.579063 125.254844 124.579063 125.254844 124.579063 
z
" clip-path="url(#p11e9426817)" style="fill: #d9d9d9"/>
   </g>
   <g id="patch_7">
    <path d="M 125.254844 124.579063 
C 125.254844 124.579063 125.254844 124.579063 125.254844 124.579063 
C 125.254844 124.579063 125.254844 124.579063 125.254844 124.579063 
L 125.254844 124.579063 
C 125.254844 124.579063 125.254844 124.579063 125.254844 124.579063 
C 125.254844 124.579063 125.254844 124.579063 125.254844 124.579063 
z
" clip-path="url(#p11e9426817)" style="fill: #d9d9d9"/>
   </g>
   <g id="patch_8">
    <path d="M 125.254844 124.579063 
C 125.254844 124.579063 125.254844 124.579063 125.254844 124.579063 
C 125.254844 124.579063 125.254844 124.579063 125.254844 124.579063 
L 125.254844 124.579063 
C 125.254844 124.579063 125.254844 124.579063 125.254844 124.579063 
C 125.254844 124.579063 125.254844 124.579063 125.254844 124.579063 
z
" clip-path="url(#p11e9426817)" style="fill: #d9d9d9"/>
   </g>
   <g id="patch_9">
    <path d="M 125.254844 124.579063 
C 125.254844 124.579063 125.254844 124.579063 125.254844 124.579063 
C 125.254844 124.579063 125.254844 124.579063 125.254844 124.579063 
L 125.254844 124.579063 
C 125.254844 124.579063 125.254844 124.579063 125.254844 124.579063 
C 125.254844 124.579063 125.254844 124.579063 125.254844 124.579063 
z
" clip-path="url(#p11e9426817)" style="fill: #d9d9d9"/>
   </g>
   <g id="patch_10">
    <path d="M 125.254844 124.579063 
C 125.254844 124.579063 125.254844 124.579063 125.254844 124.579063 
C 125.254844 124.579063 125.254844 124.579063 125.254844 124.579063 
L 125.254844 124.579063 
C 125.254844 124.579063 125.254844 124.579063 125.254844 124.579063 
C 125.254844 124.579063 125.254844 124.579063 125.254844 124.579063 
z
" clip-path="url(#p11e9426817)" style="fill: #d9d9d9"/>
   </g>
   <g id="patch_11">
    <path d="M 125.254844 124.579063 
C 125.254844 124.579063 125.254844 124.579063 125.254844 124.579063 
C 125.254844 124.579063 125.254844 124.579063 125.254844 124.579063 
L 125.254844 124.579063 
C 125.254844 124.579063 125.254844 124.579063 125.254844 124.579063 
C 125.254844 124.579063 125.254844 124.579063 125.254844 124.579063 
z
" clip-path="url(#p11e9426817)" style="fill: #d9d9d9"/>
   </g>
   <g id="patch_12">
    <path d="M 125.254844 124.579063 
C 125.254844 124.579063 125.254844 124.579063 125.254844 124.579063 
C 125.254844 124.579063 125.254844 124.579063 125.254844 124.579063 
L 125.254844 124.579063 
C 125.254844 124.579063 125.254844 124.579063 125.254844 124.579063 
C 125.254844 124.579063 125.254844 124.579063 125.254844 124.579063 
z
" clip-path="url(#p11e9426817)" style="fill: #d9d9d9"/>
   </g>
   <g id="patch_13">
    <path d="M 125.254844 124.579063 
C 125.254844 124.579063 125.254844 124.579063 125.254844 124.579063 
C 125.254844 124.579063 125.254844 124.579063 125.254844 124.579063 
L 125.254844 124.579063 
C 125.254844 124.579063 125.254844 124.579063 125.254844 124.579063 
C 125.254844 124.579063 125.254844 124.579063 125.254844 124.579063 
z
" clip-path="url(#p11e9426817)" style="fill: #d9d9d9"/>
   </g>
   <g id="patch_14">
    <path d="M 125.254844 124.579063 
C 125.254844 124.579063 125.254844 124.579063 125.254844 124.579063 
C 125.254844 124.579063 125.254844 124.579063 125.254844 124.579063 
L 125.254844 124.579063 
C 125.254844 124.579063 125.254844 124.579063 125.254844 124.579063 
C 125.254844 124.579063 125.254844 124.579063 125.254844 124.579063 
z
" clip-path="url(#p11e9426817)" style="fill: #d9d9d9"/>
   </g>
   <g id="patch_15">
    <path d="M 125.254844 124.579063 
C 125.254844 124.579063 125.254844 124.579063 125.254844 124.579063 
C 125.254844 124.579063 125.254844 124.579063 125.254844 124.579063 
L 125.254844 124.579063 
C 125.254844 124.579063 125.254844 124.579063 125.254844 124.579063 
C 125.254844 124.579063 125.254844 124.579063 125.254844 124.579063 
z
" clip-path="url(#p11e9426817)" style="fill: #d9d9d9"/>
   </g>
   <g id="patch_16">
    <path d="M 125.254844 124.579063 
C 125.254844 124.579063 125.254844 124.579063 125.254844 124.579063 
C 125.254844 124.579063 125.254844 124.579063 125.254844 124.579063 
L 125.254844 124.579063 
C 125.254844 124.579063 125.254844 124.579063 125.254844 124.579063 
C 125.254844 124.579063 125.254844 124.579063 125.254844 124.579063 
z
" clip-path="url(#p11e9426817)" style="fill: #d9d9d9"/>
   </g>
   <g id="patch_17">
    <path d="M 125.254844 124.579063 
C 125.254844 124.579063 125.254844 124.579063 125.254844 124.579063 
C 125.254844 124.579063 125.254844 124.579063 125.254844 124.579063 
L 125.254844 124.579063 
C 125.254844 124.579063 125.254844 124.579063 125.254844 124.579063 
C 125.254844 124.579063 125.254844 124.579063 125.254844 124.579063 
z
" clip-path="url(#p11e9426817)" style="fill: #d9d9d9"/>
   </g>
   <g id="patch_18">
    <path d="M 125.254844 124.579063 
C 125.254844 124.579063 125.254844 124.579063 125.254844 124.579063 
C 125.254844 124.579063 125.254844 124.579063 125.254844 124.579063 
L 125.254844 124.579063 
C 125.254844 124.579063 125.254844 124.579063 125.254844 124.579063 
C 125.254844 124.579063 125.254844 124.579063 125.254844 124.579063 
z
" clip-path="url(#p11e9426817)" style="fill: #d9d9d9"/>
   </g>
   <g id="patch_19">
    <path d="M 125.254844 124.579063 
C 125.254844 124.579063 125.254844 124.579063 125.254844 124.579063 
C 125.254844 124.579063 125.254844 124.579063 125.254844 124.579063 
L 125.254844 124.579063 
C 125.254844 124.579063 125.254844 124.579063 125.254844 124.579063 
C 125.254844 124.579063 125.254844 124.579063 125.254844 124.579063 
z
" clip-path="url(#p11e9426817)" style="fill: #d9d9d9"/>
   </g>
   <g id="patch_20">
    <path d="M 125.254844 124.579063 
C 125.254844 124.579063 125.254844 124.579063 125.254844 124.579063 
C 125.254844 124.579063 125.254844 124.579063 125.254844 124.579063 
L 125.254844 124.579063 
C 125.254844 124.579063 125.254844 124.579063 125.254844 124.579063 
C 125.254844 124.579063 125.254844 124.579063 125.254844 124.579063 
z
" clip-path="url(#p11e9426817)" style="fill: #d9d9d9"/>
   </g>
   <g id="patch_21">
    <path d="M 125.254844 124.579063 
C 125.254844 124.579063 125.254844 124.579063 125.254844 124.579063 
C 125.254844 124.579063 125.254844 124.579063 125.254844 124.579063 
L 125.254844 124.579063 
C 125.254844 124.579063 125.254844 124.579063 125.254844 124.579063 
C 125.254844 124.579063 125.254844 124.579063 125.254844 124.579063 
z
" clip-path="url(#p11e9426817)" style="fill: #d9d9d9"/>
   </g>
   <g id="patch_22">
    <path d="M 125.254844 124.579063 
C 125.254844 124.579063 125.254844 124.579063 125.254844 124.579063 
C 125.254844 124.579063 125.254844 124.579063 125.254844 124.579063 
L 125.254844 124.579063 
C 125.254844 124.579063 125.254844 124.579063 125.254844 124.579063 
C 125.254844 124.579063 125.254844 124.579063 125.254844 124.579063 
z
" clip-path="url(#p11e9426817)" style="fill: #d9d9d9"/>
   </g>
   <g id="patch_23">
    <path d="M 125.254844 124.579063 
C 125.254844 124.579063 125.254844 124.579063 125.254844 124.579063 
C 125.254844 124.579063 125.254844 124.579063 125.254844 124.579063 
L 125.254844 124.579063 
C 125.254844 124.579063 125.254844 124.579063 125.254844 124.579063 
C 125.254844 124.579063 125.254844 124.579063 125.254844 124.579063 
z
" clip-path="url(#p11e9426817)" style="fill: #d9d9d9"/>
   </g>
   <g id="patch_24">
    <path d="M 125.254844 124.579063 
C 125.254844 124.579063 125.254844 124.579063 125.254844 124.579063 
C 125.254844 124.579063 125.254844 124.579063 125.254844 124.579063 
L 125.254844 124.579063 
C 125.254844 124.579063 125.254844 124.579063 125.254844 124.579063 
C 125.254844 124.579063 125.254844 124.579063 125.254844 124.579063 
z
" clip-path="url(#p11e9426817)" style="fill: #d9d9d9"/>
   </g>
   <g id="patch_25">
    <path d="M 125.254844 124.579063 
C 125.254844 124.579063 125.254844 124.579063 125.254844 124.579063 
C 125.254844 124.579063 125.254844 124.579063 125.254844 124.579063 
L 125.254844 124.579063 
C 125.254844 124.579063 125.254844 124.579063 125.254844 124.579063 
C 125.254844 124.579063 125.254844 124.579063 125.254844 124.579063 
z
" clip-path="url(#p11e9426817)" style="fill: #d9d9d9"/>
   </g>
   <g id="patch_26">
    <path d="M 125.254844 124.579063 
C 125.254844 124.579063 125.254844 124.579063 125.254844 124.579063 
C 125.254844 124.579063 125.254844 124.579063 125.254844 124.579063 
L 125.254844 124.579063 
C 125.254844 124.579063 125.254844 124.579063 125.254844 124.579063 
C 125.254844 124.579063 125.254844 124.579063 125.254844 124.579063 
z
" clip-path="url(#p11e9426817)" style="fill: #d9d9d9"/>
   </g>
   <g id="patch_27">
    <path d="M 125.254844 124.579063 
C 125.254844 124.579063 125.254844 124.579063 125.254844 124.579063 
C 125.254844 124.579063 125.254844 124.579063 125.254844 124.579063 
L 125.254844 124.579063 
C 125.254844 124.579063 125.254844 124.579063 125.254844 124.579063 
C 125.254844 124.579063 125.254844 124.579063 125.254844 124.579063 
z
" clip-path="url(#p11e9426817)" style="fill: #d9d9d9"/>
   </g>
   <g id="patch_28">
    <path d="M 125.254844 124.579063 
C 125.254844 124.579063 125.254844 124.579063 125.254844 124.579063 
C 125.254844 124.579063 125.254844 124.579063 125.254844 124.579063 
L 125.254844 124.579063 
C 125.254844 124.579063 125.254844 124.579063 125.254844 124.579063 
C 125.254844 124.579063 125.254844 124.579063 125.254844 124.579063 
z
" clip-path="url(#p11e9426817)" style="fill: #d9d9d9"/>
   </g>
   <g id="patch_29">
    <path d="M 125.254844 124.579063 
C 125.254844 124.579063 125.254844 124.579063 125.254844 124.579063 
C 125.254844 124.579063 125.254844 124.579063 125.254844 124.579063 
L 125.254844 124.579063 
C 125.254844 124.579063 125.254844 124.579063 125.254844 124.579063 
C 125.254844 124.579063 125.254844 124.579063 125.254844 124.579063 
z
" clip-path="url(#p11e9426817)" style="fill: #d9d9d9"/>
   </g>
   <g id="patch_30">
    <path d="M 125.254844 124.579063 
C 125.254844 124.579063 125.254844 124.579063 125.254844 124.579063 
C 125.254844 124.579063 125.254844 124.579063 125.254844 124.579063 
L 125.254844 124.579063 
C 125.254844 124.579063 125.254844 124.579063 125.254844 124.579063 
C 125.254844 124.579063 125.254844 124.579063 125.254844 124.579063 
z
" clip-path="url(#p11e9426817)" style="fill: #d9d9d9"/>
   </g>
   <g id="patch_31">
    <path d="M 125.254844 124.579063 
C 125.254844 124.579063 125.254844 124.579063 125.254844 124.579063 
C 125.254844 124.579063 125.254844 124.579063 125.254844 124.579063 
L 125.254844 124.579063 
C 125.254844 124.579063 125.254844 124.579063 125.254844 124.579063 
C 125.254844 124.579063 125.254844 124.579063 125.254844 124.579063 
z
" clip-path="url(#p11e9426817)" style="fill: #d9d9d9"/>
   </g>
   <g id="patch_32">
    <path d="M 125.254844 124.579063 
C 125.254844 124.579063 125.254844 124.579063 125.254844 124.579063 
C 125.254844 124.579063 125.254844 124.579063 125.254844 124.579063 
L 125.254844 124.579063 
C 125.254844 124.579063 125.254844 124.579063 125.254844 124.579063 
C 125.254844 124.579063 125.254844 124.579063 125.254844 124.579063 
z
" clip-path="url(#p11e9426817)" style="fill: #d9d9d9"/>
   </g>
   <g id="patch_33">
    <path d="M 125.254844 124.579063 
C 125.254844 124.579063 125.254844 124.579063 125.254844 124.579063 
C 125.254844 124.579063 125.254844 124.579063 125.254844 124.579063 
L 125.254844 124.579063 
C 125.254844 124.579063 125.254844 124.579063 125.254844 124.579063 
C 125.254844 124.579063 125.254844 124.579063 125.254844 124.579063 
z
" clip-path="url(#p11e9426817)" style="fill: #d9d9d9"/>
   </g>
   <g id="patch_34">
    <path d="M 125.254844 124.579063 
C 125.254844 124.579063 125.254844 124.579063 125.254844 124.579063 
C 125.254844 124.579063 125.254844 124.579063 125.254844 124.579063 
L 125.254844 124.579063 
C 125.254844 124.579063 125.254844 124.579063 125.254844 124.579063 
C 125.254844 124.579063 125.254844 124.579063 125.254844 124.579063 
z
" clip-path="url(#p11e9426817)" style="fill: #d9d9d9"/>
   </g>
   <g id="patch_35">
    <path d="M 125.254844 124.579063 
C 125.254844 124.579063 125.254844 124.579063 125.254844 124.579063 
C 125.254844 124.579063 125.254844 124.579063 125.254844 124.579063 
L 130.779746 68.48379 
C 128.943664 68.302952 127.09981 68.212369 125.254844 68.212369 
C 123.409878 68.212369 121.566024 68.302952 119.729942 68.48379 
z
" clip-path="url(#p11e9426817)" style="fill: #a1a1d8"/>
   </g>
   <g id="patch_36">
    <path d="M 125.254844 124.579063 
C 125.254844 124.579063 125.254844 124.579063 125.254844 124.579063 
C 125.254844 124.579063 125.254844 124.579063 125.254844 124.579063 
L 142.171999 68.810676 
C 140.346616 68.256952 138.495148 67.793183 136.62428 67.421044 
C 134.753413 67.048906 132.865403 66.768846 130.967068 66.581876 
z
" clip-path="url(#p11e9426817)" style="fill: #a1a1d8"/>
   </g>
   <g id="patch_37">
    <path d="M 125.254844 124.579063 
C 125.254844 124.579063 125.254844 124.579063 125.254844 124.579063 
C 125.254844 124.579063 125.254844 124.579063 125.254844 124.579063 
L 154.627607 69.626487 
C 152.828927 68.665073 150.984129 67.792548 149.099875 67.012065 
C 147.215621 66.231581 145.294183 65.54408 143.342502 64.952044 
z
" clip-path="url(#p11e9426817)" style="fill: #a1a1d8"/>
   </g>
   <g id="patch_38">
    <path d="M 125.254844 124.579063 
C 125.254844 124.579063 125.254844 124.579063 125.254844 124.579063 
C 125.254844 124.579063 125.254844 124.579063 125.254844 124.579063 
L 165.248841 75.846236 
C 163.653743 74.537173 161.995335 73.307213 160.279607 72.160801 
C 158.563879 71.014388 156.792899 69.952904 154.973065 68.980182 
z
" clip-path="url(#p11e9426817)" style="fill: #a1a1d8"/>
   </g>
   <g id="patch_39">
    <path d="M 125.254844 124.579063 
C 125.254844 124.579063 125.254844 124.579063 125.254844 124.579063 
C 125.254844 124.579063 125.254844 124.579063 125.254844 124.579063 
L 172.46861 85.831726 
C 171.200352 84.286349 169.856984 82.804171 168.44336 81.390547 
C 167.029735 79.976922 165.547557 78.633555 164.00218 77.365296 
z
" clip-path="url(#p11e9426817)" style="fill: #a1a1d8"/>
   </g>
   <g id="patch_40">
    <path d="M 125.254844 124.579063 
C 125.254844 124.579063 125.254844 124.579063 125.254844 124.579063 
C 125.254844 124.579063 125.254844 124.579063 125.254844 124.579063 
L 188.383139 90.836286 
C 187.278688 88.770002 186.073453 86.75919 184.771789 84.811111 
C 183.470124 82.863033 182.073599 80.980037 180.587257 79.168924 
z
" clip-path="url(#p11e9426817)" style="fill: #a1a1d8"/>
   </g>
   <g id="patch_41">
    <path d="M 125.254844 124.579063 
C 125.254844 124.579063 125.254844 124.579063 125.254844 124.579063 
C 125.254844 124.579063 125.254844 124.579063 125.254844 124.579063 
L 189.589288 105.063422 
C 188.950512 102.95766 188.208734 100.884529 187.366633 98.851517 
C 186.524532 96.818506 185.583123 94.828064 184.545807 92.887382 
z
" clip-path="url(#p11e9426817)" style="fill: #a1a1d8"/>
   </g>
   <g id="patch_42">
    <path d="M 125.254844 124.579063 
C 125.254844 124.579063 125.254844 124.579063 125.254844 124.579063 
C 125.254844 124.579063 125.254844 124.579063 125.254844 124.579063 
L 188.085789 118.390755 
C 187.883236 116.334204 187.579835 114.288838 187.176681 112.262043 
C 186.773526 110.235249 186.271105 108.22947 185.671231 106.251952 
z
" clip-path="url(#p11e9426817)" style="fill: #a1a1d8"/>
   </g>
   <g id="patch_43">
    <path d="M 125.254844 124.579063 
C 125.254844 124.579063 125.254844 124.579063 125.254844 124.579063 
C 125.254844 124.579063 125.254844 124.579063 125.254844 124.579063 
L 176.319427 129.608485 
C 176.484047 127.937065 176.566506 126.25857 176.566506 124.579063 
C 176.566506 122.899555 176.484047 121.22106 176.319427 119.54964 
z
" clip-path="url(#p11e9426817)" style="fill: #a1a1d8"/>
   </g>
   <g id="patch_44">
    <path d="M 125.254844 124.579063 
C 125.254844 124.579063 125.254844 124.579063 125.254844 124.579063 
C 125.254844 124.579063 125.254844 124.579063 125.254844 124.579063 
L 176.069915 139.993646 
C 176.574458 138.330393 176.997035 136.64337 177.33612 134.938672 
C 177.675206 133.233975 177.930391 131.513656 178.100754 129.78393 
z
" clip-path="url(#p11e9426817)" style="fill: #a1a1d8"/>
   </g>
   <g id="patch_45">
    <path d="M 125.254844 124.579063 
C 125.254844 124.579063 125.254844 124.579063 125.254844 124.579063 
C 125.254844 124.579063 125.254844 124.579063 125.254844 124.579063 
L 164.380732 145.492285 
C 165.065253 144.211637 165.686485 142.898152 166.242184 141.556575 
C 166.797884 140.214998 167.28738 138.846946 167.708906 137.457362 
z
" clip-path="url(#p11e9426817)" style="fill: #a1a1d8"/>
   </g>
   <g id="patch_46">
    <path d="M 125.254844 124.579063 
C 125.254844 124.579063 125.254844 124.579063 125.254844 124.579063 
C 125.254844 124.579063 125.254844 124.579063 125.254844 124.579063 
L 157.976688 151.433186 
C 158.855663 150.362151 159.681524 149.248607 160.451288 148.096574 
C 161.221051 146.944542 161.933789 145.755411 162.586926 144.533476 
z
" clip-path="url(#p11e9426817)" style="fill: #a1a1d8"/>
   </g>
   <g id="patch_47">
    <path d="M 125.254844 124.579063 
C 125.254844 124.579063 125.254844 124.579063 125.254844 124.579063 
C 125.254844 124.579063 125.254844 124.579063 125.254844 124.579063 
L 155.354645 161.255776 
C 156.555128 160.270565 157.706517 159.227006 158.804652 158.128871 
C 159.902788 157.030736 160.946346 155.879347 161.931557 154.678863 
z
" clip-path="url(#p11e9426817)" style="fill: #a1a1d8"/>
   </g>
   <g id="patch_48">
    <path d="M 125.254844 124.579063 
C 125.254844 124.579063 125.254844 124.579063 125.254844 124.579063 
C 125.254844 124.579063 125.254844 124.579063 125.254844 124.579063 
L 142.753443 157.316638 
C 143.824992 156.743883 144.867776 156.118863 145.878026 155.443835 
C 146.888276 154.768808 147.864775 154.044587 148.803996 153.273788 
z
" clip-path="url(#p11e9426817)" style="fill: #a1a1d8"/>
   </g>
   <g id="patch_49">
    <path d="M 125.254844 124.579063 
C 125.254844 124.579063 125.254844 124.579063 125.254844 124.579063 
C 125.254844 124.579063 125.254844 124.579063 125.254844 124.579063 
L 134.205964 154.086953 
C 135.171802 153.793969 136.122672 153.453742 137.055141 153.067501 
C 137.98761 152.681259 138.900554 152.249469 139.790675 151.77369 
z
" clip-path="url(#p11e9426817)" style="fill: #a1a1d8"/>
   </g>
   <g id="patch_50">
    <path d="M 125.254844 124.579063 
C 125.254844 124.579063 125.254844 124.579063 125.254844 124.579063 
C 125.254844 124.579063 125.254844 124.579063 125.254844 124.579063 
L 128.175709 154.235102 
C 129.146395 154.139497 130.111803 153.996293 131.068444 153.806005 
C 132.025085 153.615717 132.971808 153.378575 133.905191 153.095437 
z
" clip-path="url(#p11e9426817)" style="fill: #a1a1d8"/>
   </g>
   <g id="patch_51">
    <path d="M 125.254844 124.579063 
C 125.254844 124.579063 125.254844 124.579063 125.254844 124.579063 
C 125.254844 124.579063 125.254844 124.579063 125.254844 124.579063 
L 123.254351 144.890405 
C 123.919172 144.955884 124.586806 144.988683 125.254844 144.988683 
C 125.922881 144.988683 126.590516 144.955884 127.255336 144.890405 
z
" clip-path="url(#p11e9426817)" style="fill: #a1a1d8"/>
   </g>
   <g id="patch_52">
    <path d="M 125.254844 124.579063 
C 125.254844 124.579063 125.254844 124.579063 125.254844 124.579063 
C 125.254844 124.579063 125.254844 124.579063 125.254844 124.579063 
L 118.117719 148.107011 
C 118.887824 148.340619 119.668934 148.536277 120.458228 148.693278 
C 121.247522 148.850278 122.044049 148.968432 122.844932 149.047312 
z
" clip-path="url(#p11e9426817)" style="fill: #a1a1d8"/>
   </g>
   <g id="patch_53">
    <path d="M 125.254844 124.579063 
C 125.254844 124.579063 125.254844 124.579063 125.254844 124.579063 
C 125.254844 124.579063 125.254844 124.579063 125.254844 124.579063 
L 118.302494 137.585995 
C 118.72823 137.813555 119.164882 138.020077 119.610873 138.204812 
C 120.056865 138.389548 120.511657 138.552275 120.973608 138.692406 
z
" clip-path="url(#p11e9426817)" style="fill: #a1a1d8"/>
   </g>
   <g id="patch_54">
    <path d="M 125.254844 124.579063 
C 125.254844 124.579063 125.254844 124.579063 125.254844 124.579063 
C 125.254844 124.579063 125.254844 124.579063 125.254844 124.579063 
L 114.086878 138.187268 
C 114.532295 138.552812 114.995391 138.896267 115.474492 139.216393 
C 115.953594 139.536518 116.448124 139.832928 116.956297 140.104552 
z
" clip-path="url(#p11e9426817)" style="fill: #a1a1d8"/>
   </g>
   <g id="patch_55">
    <path d="M 125.254844 124.579063 
C 125.254844 124.579063 125.254844 124.579063 125.254844 124.579063 
C 125.254844 124.579063 125.254844 124.579063 125.254844 124.579063 
L 115.020715 132.977995 
C 115.295625 133.312973 115.586815 133.634252 115.893235 133.940672 
C 116.199654 134.247091 116.520933 134.538281 116.855912 134.813191 
z
" clip-path="url(#p11e9426817)" style="fill: #a1a1d8"/>
   </g>
   <g id="patch_56">
    <path d="M 125.254844 124.579063 
C 125.254844 124.579063 125.254844 124.579063 125.254844 124.579063 
C 125.254844 124.579063 125.254844 124.579063 125.254844 124.579063 
L 101.501781 137.275339 
C 101.917349 138.052812 102.370838 138.809414 102.860611 139.54241 
C 103.350384 140.275407 103.875849 140.983916 104.43511 141.665377 
z
" clip-path="url(#p11e9426817)" style="fill: #a1a1d8"/>
   </g>
   <g id="patch_57">
    <path d="M 125.254844 124.579063 
C 125.254844 124.579063 125.254844 124.579063 125.254844 124.579063 
C 125.254844 124.579063 125.254844 124.579063 125.254844 124.579063 
L 103.212166 131.265636 
C 103.431028 131.987125 103.685181 132.697435 103.973707 133.393998 
C 104.262233 134.090561 104.584784 134.772539 104.940196 135.437468 
z
" clip-path="url(#p11e9426817)" style="fill: #a1a1d8"/>
   </g>
   <g id="patch_58">
    <path d="M 125.254844 124.579063 
C 125.254844 124.579063 125.254844 124.579063 125.254844 124.579063 
C 125.254844 124.579063 125.254844 124.579063 125.254844 124.579063 
L 100.616231 127.005754 
C 100.695661 127.812213 100.814637 128.614285 100.97273 129.409075 
C 101.130824 130.203865 101.327844 130.990414 101.563079 131.765881 
z
" clip-path="url(#p11e9426817)" style="fill: #a1a1d8"/>
   </g>
   <g id="patch_59">
    <path d="M 125.254844 124.579063 
C 125.254844 124.579063 125.254844 124.579063 125.254844 124.579063 
C 125.254844 124.579063 125.254844 124.579063 125.254844 124.579063 
L 99.607614 122.053031 
C 99.524933 122.892503 99.483518 123.735529 99.483518 124.579063 
C 99.483518 125.422596 99.524933 126.265622 99.607614 127.105094 
z
" clip-path="url(#p11e9426817)" style="fill: #a1a1d8"/>
   </g>
   <g id="patch_60">
    <path d="M 125.254844 124.579063 
C 125.254844 124.579063 125.254844 124.579063 125.254844 124.579063 
C 125.254844 124.579063 125.254844 124.579063 125.254844 124.579063 
L 99.415698 116.740843 
C 99.159141 117.586597 98.944263 118.444437 98.77184 119.311266 
C 98.599417 120.178094 98.469657 121.052865 98.383029 121.93242 
z
" clip-path="url(#p11e9426817)" style="fill: #a1a1d8"/>
   </g>
   <g id="patch_61">
    <path d="M 125.254844 124.579063 
C 125.254844 124.579063 125.254844 124.579063 125.254844 124.579063 
C 125.254844 124.579063 125.254844 124.579063 125.254844 124.579063 
L 97.492355 109.739703 
C 97.006641 110.648411 96.565834 111.580418 96.171527 112.532358 
C 95.777221 113.484299 95.429889 114.455025 95.130788 115.44103 
z
" clip-path="url(#p11e9426817)" style="fill: #a1a1d8"/>
   </g>
   <g id="patch_62">
    <path d="M 125.254844 124.579063 
C 125.254844 124.579063 125.254844 124.579063 125.254844 124.579063 
C 125.254844 124.579063 125.254844 124.579063 125.254844 124.579063 
L 96.775311 101.206514 
C 96.010293 102.138692 95.291503 103.107868 94.621537 104.110542 
C 93.951572 105.113215 93.331239 106.148178 92.762779 107.211692 
z
" clip-path="url(#p11e9426817)" style="fill: #a1a1d8"/>
   </g>
   <g id="patch_63">
    <path d="M 125.254844 124.579063 
C 125.254844 124.579063 125.254844 124.579063 125.254844 124.579063 
C 125.254844 124.579063 125.254844 124.579063 125.254844 124.579063 
L 97.532544 90.799343 
C 96.426884 91.706735 95.36644 92.667865 94.355043 93.679262 
C 93.343646 94.690658 92.382516 95.751102 91.475124 96.856763 
z
" clip-path="url(#p11e9426817)" style="fill: #a1a1d8"/>
   </g>
   <g id="patch_64">
    <path d="M 125.254844 124.579063 
C 125.254844 124.579063 125.254844 124.579063 125.254844 124.579063 
C 125.254844 124.579063 125.254844 124.579063 125.254844 124.579063 
L 101.120102 79.426137 
C 99.64218 80.216103 98.203933 81.078155 96.810557 82.009179 
C 95.417181 82.940203 94.070356 83.939077 92.774946 85.002193 
z
" clip-path="url(#p11e9426817)" style="fill: #a1a1d8"/>
   </g>
   <g id="patch_65">
    <path d="M 125.254844 124.579063 
C 125.254844 124.579063 125.254844 124.579063 125.254844 124.579063 
C 125.254844 124.579063 125.254844 124.579063 125.254844 124.579063 
L 110.466262 75.827643 
C 108.870556 76.311695 107.299576 76.873801 105.758999 77.511929 
C 104.218421 78.150057 102.710102 78.863439 101.239491 79.649497 
z
" clip-path="url(#p11e9426817)" style="fill: #a1a1d8"/>
   </g>
   <g id="patch_66">
    <path d="M 125.254844 124.579063 
C 125.254844 124.579063 125.254844 124.579063 125.254844 124.579063 
C 125.254844 124.579063 125.254844 124.579063 125.254844 124.579063 
L 119.172771 62.826743 
C 117.151526 63.025818 115.141272 63.324011 113.149272 63.720245 
C 111.157272 64.116478 109.185927 64.610275 107.242357 65.19985 
z
" clip-path="url(#p11e9426817)" style="fill: #a1a1d8"/>
   </g>
   <g id="patch_67">
    <path d="M 119.729942 68.48379 
C 121.566024 68.302952 123.409878 68.212369 125.254844 68.212369 
C 127.09981 68.212369 128.943664 68.302952 130.779746 68.48379 
L 132.248867 53.56755 
C 129.924554 53.338625 127.590403 53.223955 125.254844 53.223955 
C 122.919285 53.223955 120.585133 53.338625 118.26082 53.56755 
z
" clip-path="url(#p11e9426817)" style="fill: #ff8c8e"/>
   </g>
   <g id="patch_68">
    <path d="M 130.967068 66.581876 
C 132.865403 66.768846 134.753413 67.048906 136.62428 67.421044 
C 138.495148 67.793183 140.346616 68.256952 142.171999 68.810676 
L 151.094217 39.398065 
C 148.306116 38.552304 145.47817 37.843941 142.620595 37.275534 
C 139.76302 36.707127 136.879261 36.279361 133.979732 35.993783 
z
" clip-path="url(#p11e9426817)" style="fill: #ff8c8e"/>
   </g>
   <g id="patch_69">
    <path d="M 143.342502 64.952044 
C 145.294183 65.54408 147.215621 66.231581 149.099875 67.012065 
C 150.984129 67.792548 152.828927 68.665073 154.627607 69.626487 
L 168.582995 43.517793 
C 165.929738 42.099598 163.208452 40.812526 160.428964 39.661224 
C 157.649476 38.509923 154.815138 37.49578 151.936187 36.62246 
z
" clip-path="url(#p11e9426817)" style="fill: #ff8c8e"/>
   </g>
   <g id="patch_70">
    <path d="M 154.973065 68.980182 
C 156.792899 69.952904 158.563879 71.014388 160.279607 72.160801 
C 161.995335 73.307213 163.653743 74.537173 165.248841 75.846236 
L 182.620595 54.678692 
C 180.332652 52.801025 177.953899 51.036822 175.492929 49.392455 
C 173.031959 47.748087 170.491738 46.225537 167.881443 44.830305 
z
" clip-path="url(#p11e9426817)" style="fill: #ff8c8e"/>
   </g>
   <g id="patch_71">
    <path d="M 164.00218 77.365296 
C 165.547557 78.633555 167.029735 79.976922 168.44336 81.390547 
C 169.856984 82.804171 171.200352 84.286349 172.46861 85.831726 
L 192.963553 69.011961 
C 191.144758 66.795754 189.218251 64.670181 187.190988 62.642918 
C 185.163726 60.615656 183.038152 58.689148 180.821945 56.870354 
z
" clip-path="url(#p11e9426817)" style="fill: #ff8c8e"/>
   </g>
   <g id="patch_72">
    <path d="M 180.587257 79.168924 
C 182.073599 80.980037 183.470124 82.863033 184.771789 84.811111 
C 186.073453 86.75919 187.278688 88.770002 188.383139 90.836286 
L 214.4443 76.906305 
C 212.8839 73.987001 211.18111 71.146068 209.342081 68.393767 
C 207.503052 65.641466 205.530002 62.981115 203.430056 60.422324 
z
" clip-path="url(#p11e9426817)" style="fill: #ff8c8e"/>
   </g>
   <g id="patch_73">
    <path d="M 184.545807 92.887382 
C 185.583123 94.828064 186.524532 96.818506 187.366633 98.851517 
C 188.208734 100.884529 188.950512 102.95766 189.589288 105.063422 
L 223.849856 94.670593 
C 222.870907 91.443431 221.734103 88.266277 220.443551 85.150609 
C 219.152999 82.03494 217.710254 78.984512 216.120527 76.010343 
z
" clip-path="url(#p11e9426817)" style="fill: #ff8c8e"/>
   </g>
   <g id="patch_74">
    <path d="M 185.671231 106.251952 
C 186.271105 108.22947 186.773526 110.235249 187.176681 112.262043 
C 187.579835 114.288838 187.883236 116.334204 188.085789 118.390755 
L 213.582986 115.8795 
C 213.298236 112.988388 212.871713 110.112999 212.304956 107.263719 
C 211.738199 104.414439 211.031891 101.594702 210.188585 98.814694 
z
" clip-path="url(#p11e9426817)" style="fill: #ff8c8e"/>
   </g>
   <g id="patch_75">
    <path d="M 176.319427 119.54964 
C 176.484047 121.22106 176.566506 122.899555 176.566506 124.579063 
C 176.566506 126.25857 176.484047 127.937065 176.319427 129.608485 
L 197.129966 131.658144 
C 197.361675 129.305564 197.477739 126.943026 197.477739 124.579063 
C 197.477739 122.215099 197.361675 119.852561 197.129966 117.499981 
z
" clip-path="url(#p11e9426817)" style="fill: #ff8c8e"/>
   </g>
   <g id="patch_76">
    <path d="M 178.100754 129.78393 
C 177.930391 131.513656 177.675206 133.233975 177.33612 134.938672 
C 176.997035 136.64337 176.574458 138.330393 176.069915 139.993646 
L 197.292915 146.431572 
C 198.00818 144.073659 198.607247 141.682049 199.087952 139.265381 
C 199.568657 136.848713 199.930421 134.4099 200.171937 131.957752 
z
" clip-path="url(#p11e9426817)" style="fill: #ff8c8e"/>
   </g>
   <g id="patch_77">
    <path d="M 167.708906 137.457362 
C 167.28738 138.846946 166.797884 140.214998 166.242184 141.556575 
C 165.686485 142.898152 165.065253 144.211637 164.380732 145.492285 
L 184.997718 156.512294 
C 186.04294 154.55682 186.991524 152.551208 187.840044 150.502701 
C 188.688563 148.454194 189.435995 146.365262 190.07964 144.243449 
z
" clip-path="url(#p11e9426817)" style="fill: #ff8c8e"/>
   </g>
   <g id="patch_78">
    <path d="M 162.586926 144.533476 
C 161.933789 145.755411 161.221051 146.944542 160.451288 148.096574 
C 159.681524 149.248607 158.855663 150.362151 157.976688 151.433186 
L 174.000619 164.583687 
C 175.31003 162.988165 176.540317 161.329316 177.687034 159.613132 
C 178.833751 157.896948 179.895518 156.125498 180.868498 154.30518 
z
" clip-path="url(#p11e9426817)" style="fill: #ff8c8e"/>
   </g>
   <g id="patch_79">
    <path d="M 161.931557 154.678863 
C 160.946346 155.879347 159.902788 157.030736 158.804652 158.128871 
C 157.706517 159.227006 156.555128 160.270565 155.354645 161.255776 
L 163.041604 170.622363 
C 164.54867 169.385546 165.994103 168.075482 167.372683 166.696902 
C 168.751263 165.318322 170.061327 163.872889 171.298144 162.365823 
z
" clip-path="url(#p11e9426817)" style="fill: #ff8c8e"/>
   </g>
   <g id="patch_80">
    <path d="M 148.803996 153.273788 
C 147.864775 154.044587 146.888276 154.768808 145.878026 155.443835 
C 144.867776 156.118863 143.824992 156.743883 142.753443 157.316638 
L 146.779023 164.847969 
C 148.097084 164.14345 149.379761 163.374643 150.622421 162.544325 
C 151.865081 161.714006 153.066225 160.823177 154.221516 159.875054 
z
" clip-path="url(#p11e9426817)" style="fill: #ff8c8e"/>
   </g>
   <g id="patch_81">
    <path d="M 139.790675 151.77369 
C 138.900554 152.249469 137.98761 152.681259 137.055141 153.067501 
C 136.122672 153.453742 135.171802 153.793969 134.205964 154.086953 
L 136.083966 160.277894 
C 137.252442 159.923441 138.402811 159.511832 139.530918 159.044555 
C 140.659025 158.577278 141.76351 158.054895 142.840384 157.479294 
z
" clip-path="url(#p11e9426817)" style="fill: #ff8c8e"/>
   </g>
   <g id="patch_82">
    <path d="M 133.905191 153.095437 
C 132.971808 153.378575 132.025085 153.615717 131.068444 153.806005 
C 130.111803 153.996293 129.146395 154.139497 128.175709 154.235102 
L 128.38526 156.362708 
C 129.425586 156.260245 130.460254 156.106766 131.485528 155.902827 
C 132.510801 155.698887 133.525444 155.444732 134.525791 155.14128 
z
" clip-path="url(#p11e9426817)" style="fill: #ff8c8e"/>
   </g>
   <g id="patch_83">
    <path d="M 127.255336 144.890405 
C 126.590516 144.955884 125.922881 144.988683 125.254844 144.988683 
C 124.586806 144.988683 123.919172 144.955884 123.254351 144.890405 
L 122.894911 148.539862 
C 123.679184 148.617106 124.466776 148.655798 125.254844 148.655798 
C 126.042911 148.655798 126.830504 148.617106 127.614777 148.539862 
z
" clip-path="url(#p11e9426817)" style="fill: #ff8c8e"/>
   </g>
   <g id="patch_84">
    <path d="M 122.844932 149.047312 
C 122.044049 148.968432 121.247522 148.850278 120.458228 148.693278 
C 119.668934 148.536277 118.887824 148.340619 118.117719 148.107011 
L 117.453604 150.296303 
C 118.295368 150.551649 119.149161 150.765513 120.0119 150.937122 
C 120.874638 151.108732 121.745283 151.237879 122.620688 151.324099 
z
" clip-path="url(#p11e9426817)" style="fill: #ff8c8e"/>
   </g>
   <g id="patch_85">
    <path d="M 120.973608 138.692406 
C 120.511657 138.552275 120.056865 138.389548 119.610873 138.204812 
C 119.164882 138.020077 118.72823 137.813555 118.302494 137.585995 
L 116.739989 140.509236 
C 117.261407 140.78794 117.796195 141.040876 118.34242 141.26713 
C 118.888645 141.493384 119.44565 141.692683 120.011422 141.864308 
z
" clip-path="url(#p11e9426817)" style="fill: #ff8c8e"/>
   </g>
   <g id="patch_86">
    <path d="M 116.956297 140.104552 
C 116.448124 139.832928 115.953594 139.536518 115.474492 139.216393 
C 114.995391 138.896267 114.532295 138.552812 114.086878 138.187268 
L 111.596367 141.221965 
C 112.141114 141.669027 112.707482 142.089074 113.293426 142.48059 
C 113.87937 142.872105 114.484182 143.234615 115.10568 143.566813 
z
" clip-path="url(#p11e9426817)" style="fill: #ff8c8e"/>
   </g>
   <g id="patch_87">
    <path d="M 116.855912 134.813191 
C 116.520933 134.538281 116.199654 134.247091 115.893235 133.940672 
C 115.586815 133.634252 115.295625 133.312973 115.020715 132.977995 
L 110.554513 136.643312 
C 110.949394 137.124476 111.367661 137.585962 111.807802 138.026104 
C 112.247944 138.466246 112.70943 138.884512 113.190594 139.279393 
z
" clip-path="url(#p11e9426817)" style="fill: #ff8c8e"/>
   </g>
   <g id="patch_88">
    <path d="M 104.43511 141.665377 
C 103.875849 140.983916 103.350384 140.275407 102.860611 139.54241 
C 102.370838 138.809414 101.917349 138.052812 101.501781 137.275339 
L 96.870703 139.750702 
C 97.367293 140.679757 97.909198 141.583872 98.494461 142.459779 
C 99.079723 143.335686 99.707638 144.182331 100.375936 144.996654 
z
" clip-path="url(#p11e9426817)" style="fill: #ff8c8e"/>
   </g>
   <g id="patch_89">
    <path d="M 104.940196 135.437468 
C 104.584784 134.772539 104.262233 134.090561 103.973707 133.393998 
C 103.685181 132.697435 103.431028 131.987125 103.212166 131.265636 
L 97.660403 132.949744 
C 97.934388 133.852952 98.252553 134.742163 98.613749 135.614165 
C 98.974944 136.486168 99.378735 137.339912 99.823662 138.172312 
z
" clip-path="url(#p11e9426817)" style="fill: #ff8c8e"/>
   </g>
   <g id="patch_90">
    <path d="M 101.563079 131.765881 
C 101.327844 130.990414 101.130824 130.203865 100.97273 129.409075 
C 100.814637 128.614285 100.695661 127.812213 100.616231 127.005754 
L 98.509808 127.213219 
C 98.596028 128.088624 98.725175 128.959268 98.896785 129.822006 
C 99.068394 130.684745 99.282258 131.538538 99.537604 132.380302 
z
" clip-path="url(#p11e9426817)" style="fill: #ff8c8e"/>
   </g>
   <g id="patch_91">
    <path d="M 99.607614 127.105094 
C 99.524933 126.265622 99.483518 125.422596 99.483518 124.579063 
C 99.483518 123.735529 99.524933 122.892503 99.607614 122.053031 
L 96.530267 121.749939 
C 96.437665 122.690137 96.391281 123.634315 96.391281 124.579062 
C 96.391281 125.52381 96.437665 126.467988 96.530267 127.408186 
z
" clip-path="url(#p11e9426817)" style="fill: #ff8c8e"/>
   </g>
   <g id="patch_92">
    <path d="M 98.383029 121.93242 
C 98.469657 121.052865 98.599417 120.178094 98.77184 119.311266 
C 98.944263 118.444437 99.159141 117.586597 99.415698 116.740843 
L 98.514597 116.467497 
C 98.249094 117.342746 98.026722 118.230502 97.848286 119.127559 
C 97.669851 120.024617 97.535565 120.929894 97.445916 121.840122 
z
" clip-path="url(#p11e9426817)" style="fill: #ff8c8e"/>
   </g>
   <g id="patch_93">
    <path d="M 95.130788 115.44103 
C 95.429889 114.455025 95.777221 113.484299 96.171527 112.532358 
C 96.565834 111.580418 97.006641 110.648411 97.492355 109.739703 
L 92.050232 106.830828 
C 91.469306 107.917664 90.94209 109.032368 90.47049 110.170911 
C 89.99889 111.309455 89.583473 112.470467 89.22574 113.649753 
z
" clip-path="url(#p11e9426817)" style="fill: #ff8c8e"/>
   </g>
   <g id="patch_94">
    <path d="M 92.762779 107.211692 
C 93.331239 106.148178 93.951572 105.113215 94.621537 104.110542 
C 95.291503 103.107868 96.010293 102.138692 96.775311 101.206514 
L 90.622022 96.15664 
C 89.691713 97.290224 88.817622 98.4688 88.002904 99.688112 
C 87.188186 100.907424 86.433824 102.166001 85.742542 103.459297 
z
" clip-path="url(#p11e9426817)" style="fill: #ff8c8e"/>
   </g>
   <g id="patch_95">
    <path d="M 91.475124 96.856763 
C 92.382516 95.751102 93.343646 94.690658 94.355043 93.679262 
C 95.36644 92.667865 96.426884 91.706735 97.532544 90.799343 
L 86.98756 77.950242 
C 85.461329 79.202788 83.997515 80.529512 82.601404 81.925623 
C 81.205293 83.321733 79.878569 84.785548 78.626024 86.311779 
z
" clip-path="url(#p11e9426817)" style="fill: #ff8c8e"/>
   </g>
   <g id="patch_96">
    <path d="M 92.774946 85.002193 
C 94.070356 83.939077 95.417181 82.940203 96.810557 82.009179 
C 98.203933 81.078155 99.64218 80.216103 101.120102 79.426137 
L 96.320713 70.447111 
C 94.548893 71.394168 92.824639 72.427646 91.154179 73.543812 
C 89.483719 74.659977 87.869067 75.857485 86.316054 77.13201 
z
" clip-path="url(#p11e9426817)" style="fill: #ff8c8e"/>
   </g>
   <g id="patch_97">
    <path d="M 101.239491 79.649497 
C 102.710102 78.863439 104.218421 78.150057 105.758999 77.511929 
C 107.299576 76.873801 108.870556 76.311695 110.466262 75.827643 
L 107.025087 64.483607 
C 105.058073 65.080294 103.12154 65.773196 101.222483 66.559811 
C 99.323426 67.346426 97.464135 68.225806 95.651324 69.194773 
z
" clip-path="url(#p11e9426817)" style="fill: #ff8c8e"/>
   </g>
   <g id="patch_98">
    <path d="M 107.242357 65.19985 
C 109.185927 64.610275 111.157272 64.116478 113.149272 63.720245 
C 115.141272 63.324011 117.151526 63.025818 119.172771 62.826743 
L 117.769346 48.57753 
C 115.281703 48.822541 112.807588 49.189542 110.355938 49.677205 
C 107.904288 50.164869 105.478059 50.772607 103.086014 51.498226 
z
" clip-path="url(#p11e9426817)" style="fill: #ff8c8e"/>
   </g>
   <g id="patch_99">
    <path d="M 118.26082 53.56755 
C 120.585133 53.338625 122.919285 53.223955 125.254844 53.223955 
C 127.590403 53.223955 129.924554 53.338625 132.248867 53.56755 
L 133.258716 43.314381 
C 130.598802 43.052402 127.927628 42.921176 125.254844 42.921176 
C 122.582059 42.921176 119.910886 43.052402 117.250971 43.314381 
z
" clip-path="url(#p11e9426817)" style="fill: #828282"/>
   </g>
   <g id="patch_100">
    <path d="M 133.979732 35.993783 
C 136.879261 36.279361 139.76302 36.707127 142.620595 37.275534 
C 145.47817 37.843941 148.306116 38.552304 151.094217 39.398065 
L 154.575947 27.920337 
C 151.412163 26.960614 148.203166 26.156802 144.960546 25.511805 
C 141.717927 24.866808 138.445595 24.381403 135.155369 24.057344 
z
" clip-path="url(#p11e9426817)" style="fill: #828282"/>
   </g>
   <g id="patch_101">
    <path d="M 151.936187 36.62246 
C 154.815138 37.49578 157.649476 38.509923 160.428964 39.661224 
C 163.208452 40.812526 165.929738 42.099598 168.582995 43.517793 
L 174.839531 31.812637 
C 171.803148 30.189656 168.68891 28.716732 165.508068 27.399183 
C 162.327225 26.081635 159.083612 24.921052 155.788944 23.921625 
z
" clip-path="url(#p11e9426817)" style="fill: #828282"/>
   </g>
   <g id="patch_102">
    <path d="M 167.881443 44.830305 
C 170.491738 46.225537 173.031959 47.748087 175.492929 49.392455 
C 177.953899 51.036822 180.332652 52.801025 182.620595 54.678692 
L 190.001683 45.684811 
C 187.419356 43.56555 184.734536 41.574352 181.95692 39.718408 
C 179.179304 37.862465 176.312241 36.144013 173.366085 34.56926 
z
" clip-path="url(#p11e9426817)" style="fill: #828282"/>
   </g>
   <g id="patch_103">
    <path d="M 180.821945 56.870354 
C 183.038152 58.689148 185.163726 60.615656 187.190988 62.642918 
C 189.218251 64.670181 191.144758 66.795754 192.963553 69.011961 
L 204.534032 59.516314 
C 202.404431 56.921388 200.14871 54.432583 197.775017 52.058889 
C 195.401323 49.685196 192.912519 47.429475 190.317592 45.299874 
z
" clip-path="url(#p11e9426817)" style="fill: #828282"/>
   </g>
   <g id="patch_104">
    <path d="M 203.430056 60.422324 
C 205.530002 62.981115 207.503052 65.641466 209.342081 68.393767 
C 211.18111 71.146068 212.8839 73.987001 214.4443 76.906305 
L 223.04228 72.310589 
C 221.331455 69.10986 219.464514 65.995057 217.4482 62.977431 
C 215.431887 59.959805 213.268632 57.042993 210.966248 54.237531 
z
" clip-path="url(#p11e9426817)" style="fill: #828282"/>
   </g>
   <g id="patch_105">
    <path d="M 216.120527 76.010343 
C 217.710254 78.984512 219.152999 82.03494 220.443551 85.150609 
C 221.734103 88.266277 222.870907 91.443431 223.849856 94.670593 
L 228.625457 93.22193 
C 227.599091 89.838455 226.407225 86.507412 225.054163 83.240831 
C 223.701101 79.97425 222.188474 76.77607 220.521747 73.657842 
z
" clip-path="url(#p11e9426817)" style="fill: #828282"/>
   </g>
   <g id="patch_106">
    <path d="M 210.188585 98.814694 
C 211.031891 101.594702 211.738199 104.414439 212.304956 107.263719 
C 212.871713 110.112999 213.298236 112.988388 213.582986 115.8795 
L 221.231609 115.126176 
C 220.922202 111.984713 220.458744 108.860335 219.84291 105.764326 
C 219.227075 102.668318 218.459607 99.604411 217.543276 96.583673 
z
" clip-path="url(#p11e9426817)" style="fill: #828282"/>
   </g>
   <g id="patch_107">
    <path d="M 197.129966 117.499981 
C 197.361675 119.852561 197.477739 122.215099 197.477739 124.579063 
C 197.477739 126.943026 197.361675 129.305564 197.129966 131.658144 
L 205.470397 132.479605 
C 205.728994 129.85403 205.858526 127.217341 205.858526 124.579063 
C 205.858526 121.940784 205.728994 119.304095 205.470397 116.67852 
z
" clip-path="url(#p11e9426817)" style="fill: #828282"/>
   </g>
   <g id="patch_108">
    <path d="M 200.171937 131.957752 
C 199.930421 134.4099 199.568657 136.848713 199.087952 139.265381 
C 198.607247 141.682049 198.00818 144.073659 197.292915 146.431572 
L 200.035909 147.263651 
C 200.77841 144.815955 201.400288 142.333279 201.899297 139.824592 
C 202.398306 137.315905 202.773844 134.784229 203.024556 132.238711 
z
" clip-path="url(#p11e9426817)" style="fill: #828282"/>
   </g>
   <g id="patch_109">
    <path d="M 190.07964 144.243449 
C 189.435995 146.365262 188.688563 148.454194 187.840044 150.502701 
C 186.991524 152.551208 186.04294 154.55682 184.997718 156.512294 
L 186.460998 157.294433 
C 187.531821 155.291065 188.503638 153.236329 189.37294 151.137648 
C 190.242243 149.038967 191.007981 146.89887 191.667391 144.725088 
z
" clip-path="url(#p11e9426817)" style="fill: #828282"/>
   </g>
   <g id="patch_110">
    <path d="M 180.868498 154.30518 
C 179.895518 156.125498 178.833751 157.896948 177.687034 159.613132 
C 176.540317 161.329316 175.31003 162.988165 174.000619 164.583687 
L 174.531652 165.019494 
C 175.855328 163.406591 177.099017 161.72967 178.258226 159.994791 
C 179.417436 158.259911 180.490769 156.469162 181.474349 154.629014 
z
" clip-path="url(#p11e9426817)" style="fill: #828282"/>
   </g>
   <g id="patch_111">
    <path d="M 171.298144 162.365823 
C 170.061327 163.872889 168.751263 165.318322 167.372683 166.696902 
C 165.994103 168.075482 164.54867 169.385546 163.041604 170.622363 
L 163.120245 170.718187 
C 164.630447 169.478796 166.078889 168.166005 167.460337 166.784556 
C 168.841786 165.403107 170.154577 163.954666 171.393968 162.444463 
z
" clip-path="url(#p11e9426817)" style="fill: #828282"/>
   </g>
   <g id="patch_112">
    <path d="M 154.221516 159.875054 
C 153.066225 160.823177 151.865081 161.714006 150.622421 162.544325 
C 149.379761 163.374643 148.097084 164.14345 146.779023 164.847969 
L 146.800814 164.888737 
C 148.12021 164.183506 149.404185 163.41392 150.648103 162.582761 
C 151.892021 161.751602 153.094381 160.85987 154.250841 159.910788 
z
" clip-path="url(#p11e9426817)" style="fill: #828282"/>
   </g>
   <g id="patch_113">
    <path d="M 142.840384 157.479294 
C 141.76351 158.054895 140.659025 158.577278 139.530918 159.044555 
C 138.402811 159.511832 137.252442 159.923441 136.083966 160.277894 
L 136.083966 160.277894 
C 137.252442 159.923441 138.402811 159.511832 139.530918 159.044555 
C 140.659025 158.577278 141.76351 158.054895 142.840384 157.479294 
z
" clip-path="url(#p11e9426817)" style="fill: #828282"/>
   </g>
   <g id="patch_114">
    <path d="M 134.525791 155.14128 
C 133.525444 155.444732 132.510801 155.698887 131.485528 155.902827 
C 130.460254 156.106766 129.425586 156.260245 128.38526 156.362708 
L 128.38526 156.362708 
C 129.425586 156.260245 130.460254 156.106766 131.485528 155.902827 
C 132.510801 155.698887 133.525444 155.444732 134.525791 155.14128 
z
" clip-path="url(#p11e9426817)" style="fill: #828282"/>
   </g>
   <g id="patch_115">
    <path d="M 127.614777 148.539862 
C 126.830504 148.617106 126.042911 148.655798 125.254844 148.655798 
C 124.466776 148.655798 123.679184 148.617106 122.894911 148.539862 
L 122.894911 148.539862 
C 123.679184 148.617106 124.466776 148.655798 125.254844 148.655798 
C 126.042911 148.655798 126.830504 148.617106 127.614777 148.539862 
z
" clip-path="url(#p11e9426817)" style="fill: #828282"/>
   </g>
   <g id="patch_116">
    <path d="M 122.620688 151.324099 
C 121.745283 151.237879 120.874638 151.108732 120.0119 150.937122 
C 119.149161 150.765513 118.295368 150.551649 117.453604 150.296303 
L 117.453604 150.296303 
C 118.295368 150.551649 119.149161 150.765513 120.0119 150.937122 
C 120.874638 151.108732 121.745283 151.237879 122.620688 151.324099 
z
" clip-path="url(#p11e9426817)" style="fill: #828282"/>
   </g>
   <g id="patch_117">
    <path d="M 120.011422 141.864308 
C 119.44565 141.692683 118.888645 141.493384 118.34242 141.26713 
C 117.796195 141.040876 117.261407 140.78794 116.739989 140.509236 
L 116.739989 140.509236 
C 117.261407 140.78794 117.796195 141.040876 118.34242 141.26713 
C 118.888645 141.493384 119.44565 141.692683 120.011422 141.864308 
z
" clip-path="url(#p11e9426817)" style="fill: #828282"/>
   </g>
   <g id="patch_118">
    <path d="M 115.10568 143.566813 
C 114.484182 143.234615 113.87937 142.872105 113.293426 142.48059 
C 112.707482 142.089074 112.141114 141.669027 111.596367 141.221965 
L 111.596367 141.221965 
C 112.141114 141.669027 112.707482 142.089074 113.293426 142.48059 
C 113.87937 142.872105 114.484182 143.234615 115.10568 143.566813 
z
" clip-path="url(#p11e9426817)" style="fill: #828282"/>
   </g>
   <g id="patch_119">
    <path d="M 113.190594 139.279393 
C 112.70943 138.884512 112.247944 138.466246 111.807802 138.026104 
C 111.367661 137.585962 110.949394 137.124476 110.554513 136.643312 
L 109.528062 137.485698 
C 109.950516 138.000459 110.397988 138.494169 110.868863 138.965044 
C 111.339737 139.435918 111.833447 139.88339 112.348208 140.305844 
z
" clip-path="url(#p11e9426817)" style="fill: #828282"/>
   </g>
   <g id="patch_120">
    <path d="M 100.375936 144.996654 
C 99.707638 144.182331 99.079723 143.335686 98.494461 142.459779 
C 97.909198 141.583872 97.367293 140.679757 96.870703 139.750702 
L 96.870703 139.750702 
C 97.367293 140.679757 97.909198 141.583872 98.494461 142.459779 
C 99.079723 143.335686 99.707638 144.182331 100.375936 144.996654 
z
" clip-path="url(#p11e9426817)" style="fill: #828282"/>
   </g>
   <g id="patch_121">
    <path d="M 99.823662 138.172312 
C 99.378735 137.339912 98.974944 136.486168 98.613749 135.614165 
C 98.252553 134.742163 97.934388 133.852952 97.660403 132.949744 
L 95.46161 133.616741 
C 95.757426 134.591918 96.100943 135.551984 96.49092 136.49347 
C 96.880896 137.434956 97.316862 138.356728 97.797242 139.255456 
z
" clip-path="url(#p11e9426817)" style="fill: #828282"/>
   </g>
   <g id="patch_122">
    <path d="M 99.537604 132.380302 
C 99.282258 131.538538 99.068394 130.684745 98.896785 129.822006 
C 98.725175 128.959268 98.596028 128.088624 98.509808 127.213219 
L 96.339766 127.426949 
C 96.432981 128.373383 96.572608 129.314669 96.758141 130.247409 
C 96.943675 131.180149 97.174891 132.103217 97.450956 133.01328 
z
" clip-path="url(#p11e9426817)" style="fill: #828282"/>
   </g>
   <g id="patch_123">
    <path d="M 96.530267 127.408186 
C 96.437665 126.467988 96.391281 125.52381 96.391281 124.579062 
C 96.391281 123.634315 96.437665 122.690137 96.530267 121.749939 
L 94.254044 121.52575 
C 94.154104 122.540453 94.104044 123.55945 94.104044 124.579062 
C 94.104044 125.598675 94.154104 126.617672 94.254044 127.632375 
z
" clip-path="url(#p11e9426817)" style="fill: #828282"/>
   </g>
   <g id="patch_124">
    <path d="M 97.445916 121.840122 
C 97.535565 120.929894 97.669851 120.024617 97.848286 119.127559 
C 98.026722 118.230502 98.249094 117.342746 98.514597 116.467497 
L 94.385697 115.215009 
C 94.079197 116.225402 93.82249 117.250235 93.616502 118.285805 
C 93.410515 119.321375 93.255495 120.366435 93.152002 121.417209 
z
" clip-path="url(#p11e9426817)" style="fill: #828282"/>
   </g>
   <g id="patch_125">
    <path d="M 89.22574 113.649753 
C 89.583473 112.470467 89.99889 111.309455 90.47049 110.170911 
C 90.94209 109.032368 91.469306 107.917664 92.050232 106.830828 
L 88.700833 105.040536 
C 88.061307 106.237004 87.480911 107.464149 86.96174 108.717539 
C 86.442568 109.97093 85.985248 111.249055 85.59143 112.547298 
z
" clip-path="url(#p11e9426817)" style="fill: #828282"/>
   </g>
   <g id="patch_126">
    <path d="M 85.742542 103.459297 
C 86.433824 102.166001 87.188186 100.907424 88.002904 99.688112 
C 88.817622 98.4688 89.691713 97.290224 90.622022 96.15664 
L 83.043501 89.937109 
C 81.909619 91.318749 80.844254 92.755227 79.851255 94.241355 
C 78.858257 95.727482 77.938822 97.261467 77.096271 98.837769 
z
" clip-path="url(#p11e9426817)" style="fill: #828282"/>
   </g>
   <g id="patch_127">
    <path d="M 78.626024 86.311779 
C 79.878569 84.785548 81.205293 83.321733 82.601404 81.925623 
C 83.997515 80.529512 85.461329 79.202788 86.98756 77.950242 
L 83.257655 73.40534 
C 81.582663 74.779971 79.976171 76.236011 78.443981 77.7682 
C 76.911792 79.30039 75.455752 80.906882 74.081122 82.581874 
z
" clip-path="url(#p11e9426817)" style="fill: #828282"/>
   </g>
   <g id="patch_128">
    <path d="M 86.316054 77.13201 
C 87.869067 75.857485 89.483719 74.659977 91.154179 73.543812 
C 92.824639 72.427646 94.548893 71.394168 96.320713 70.447111 
L 94.19319 66.466796 
C 92.291089 67.48349 90.440051 68.592959 88.646762 69.791196 
C 86.853473 70.989434 85.120096 72.274994 83.45289 73.643234 
z
" clip-path="url(#p11e9426817)" style="fill: #828282"/>
   </g>
   <g id="patch_129">
    <path d="M 95.651324 69.194773 
C 97.464135 68.225806 99.323426 67.346426 101.222483 66.559811 
C 103.12154 65.773196 105.058073 65.080294 107.025087 64.483607 
L 104.79221 57.122798 
C 102.584265 57.792571 100.410536 58.570344 98.278873 59.453307 
C 96.147209 60.336271 94.060182 61.323362 92.025329 62.411013 
z
" clip-path="url(#p11e9426817)" style="fill: #828282"/>
   </g>
   <g id="patch_130">
    <path d="M 103.086014 51.498226 
C 105.478059 50.772607 107.904288 50.164869 110.355938 49.677205 
C 112.807588 49.189542 115.281703 48.822541 117.769346 48.57753 
L 117.121784 42.002726 
C 114.418938 42.268933 111.73079 42.667682 109.067051 43.197532 
C 106.403312 43.727383 103.767193 44.387697 101.168215 45.176088 
z
" clip-path="url(#p11e9426817)" style="fill: #828282"/>
   </g>
   <g id="patch_131">
    <path d="M 125.254844 124.579063 
C 125.254844 124.579063 125.254844 124.579063 125.254844 124.579063 
C 125.254844 124.579063 125.254844 124.579063 125.254844 124.579063 
L 133.258716 43.314381 
C 130.598802 43.052402 127.927628 42.921176 125.254844 42.921176 
C 122.582059 42.921176 119.910886 43.052402 117.250971 43.314381 
L 125.254844 124.579063 
z
" clip-path="url(#p11e9426817)" style="fill: none; stroke: #292929; stroke-width: 0.5; stroke-linejoin: miter"/>
   </g>
   <g id="patch_132">
    <path d="M 125.254844 124.579063 
C 125.254844 124.579063 125.254844 124.579063 125.254844 124.579063 
C 125.254844 124.579063 125.254844 124.579063 125.254844 124.579063 
L 154.575947 27.920337 
C 151.412163 26.960614 148.203166 26.156802 144.960546 25.511805 
C 141.717927 24.866808 138.445595 24.381403 135.155369 24.057344 
L 125.254844 124.579063 
z
" clip-path="url(#p11e9426817)" style="fill: none; stroke: #292929; stroke-width: 0.5; stroke-linejoin: miter"/>
   </g>
   <g id="patch_133">
    <path d="M 125.254844 124.579063 
C 125.254844 124.579063 125.254844 124.579063 125.254844 124.579063 
C 125.254844 124.579063 125.254844 124.579063 125.254844 124.579063 
L 174.839531 31.812637 
C 171.803148 30.189656 168.68891 28.716732 165.508068 27.399183 
C 162.327225 26.081635 159.083612 24.921052 155.788944 23.921625 
L 125.254844 124.579063 
z
" clip-path="url(#p11e9426817)" style="fill: none; stroke: #292929; stroke-width: 0.5; stroke-linejoin: miter"/>
   </g>
   <g id="patch_134">
    <path d="M 125.254844 124.579063 
C 125.254844 124.579063 125.254844 124.579063 125.254844 124.579063 
C 125.254844 124.579063 125.254844 124.579063 125.254844 124.579063 
L 190.001683 45.684811 
C 187.419356 43.56555 184.734536 41.574352 181.95692 39.718408 
C 179.179304 37.862465 176.312241 36.144013 173.366085 34.56926 
L 125.254844 124.579063 
z
" clip-path="url(#p11e9426817)" style="fill: none; stroke: #292929; stroke-width: 0.5; stroke-linejoin: miter"/>
   </g>
   <g id="patch_135">
    <path d="M 125.254844 124.579063 
C 125.254844 124.579063 125.254844 124.579063 125.254844 124.579063 
C 125.254844 124.579063 125.254844 124.579063 125.254844 124.579063 
L 204.534032 59.516314 
C 202.404431 56.921388 200.14871 54.432583 197.775017 52.058889 
C 195.401323 49.685196 192.912519 47.429475 190.317592 45.299874 
L 125.254844 124.579063 
z
" clip-path="url(#p11e9426817)" style="fill: none; stroke: #292929; stroke-width: 0.5; stroke-linejoin: miter"/>
   </g>
   <g id="patch_136">
    <path d="M 125.254844 124.579063 
C 125.254844 124.579063 125.254844 124.579063 125.254844 124.579063 
C 125.254844 124.579063 125.254844 124.579063 125.254844 124.579063 
L 223.04228 72.310589 
C 221.331455 69.10986 219.464514 65.995057 217.4482 62.977431 
C 215.431887 59.959805 213.268632 57.042993 210.966248 54.237531 
L 125.254844 124.579063 
z
" clip-path="url(#p11e9426817)" style="fill: none; stroke: #292929; stroke-width: 0.5; stroke-linejoin: miter"/>
   </g>
   <g id="patch_137">
    <path d="M 125.254844 124.579063 
C 125.254844 124.579063 125.254844 124.579063 125.254844 124.579063 
C 125.254844 124.579063 125.254844 124.579063 125.254844 124.579063 
L 228.625457 93.22193 
C 227.599091 89.838455 226.407225 86.507412 225.054163 83.240831 
C 223.701101 79.97425 222.188474 76.77607 220.521747 73.657842 
L 125.254844 124.579063 
z
" clip-path="url(#p11e9426817)" style="fill: none; stroke: #292929; stroke-width: 0.5; stroke-linejoin: miter"/>
   </g>
   <g id="patch_138">
    <path d="M 125.254844 124.579063 
C 125.254844 124.579063 125.254844 124.579063 125.254844 124.579063 
C 125.254844 124.579063 125.254844 124.579063 125.254844 124.579063 
L 221.231609 115.126176 
C 220.922202 111.984713 220.458744 108.860335 219.84291 105.764326 
C 219.227075 102.668318 218.459607 99.604411 217.543276 96.583673 
L 125.254844 124.579063 
z
" clip-path="url(#p11e9426817)" style="fill: none; stroke: #292929; stroke-width: 0.5; stroke-linejoin: miter"/>
   </g>
   <g id="patch_139">
    <path d="M 125.254844 124.579063 
C 125.254844 124.579063 125.254844 124.579063 125.254844 124.579063 
C 125.254844 124.579063 125.254844 124.579063 125.254844 124.579063 
L 205.470397 132.479605 
C 205.728994 129.85403 205.858526 127.217341 205.858526 124.579063 
C 205.858526 121.940784 205.728994 119.304095 205.470397 116.67852 
L 125.254844 124.579063 
z
" clip-path="url(#p11e9426817)" style="fill: none; stroke: #292929; stroke-width: 0.5; stroke-linejoin: miter"/>
   </g>
   <g id="patch_140">
    <path d="M 125.254844 124.579063 
C 125.254844 124.579063 125.254844 124.579063 125.254844 124.579063 
C 125.254844 124.579063 125.254844 124.579063 125.254844 124.579063 
L 200.035909 147.263651 
C 200.77841 144.815955 201.400288 142.333279 201.899297 139.824592 
C 202.398306 137.315905 202.773844 134.784229 203.024556 132.238711 
L 125.254844 124.579063 
z
" clip-path="url(#p11e9426817)" style="fill: none; stroke: #292929; stroke-width: 0.5; stroke-linejoin: miter"/>
   </g>
   <g id="patch_141">
    <path d="M 125.254844 124.579063 
C 125.254844 124.579063 125.254844 124.579063 125.254844 124.579063 
C 125.254844 124.579063 125.254844 124.579063 125.254844 124.579063 
L 186.460998 157.294433 
C 187.531821 155.291065 188.503638 153.236329 189.37294 151.137648 
C 190.242243 149.038967 191.007981 146.89887 191.667391 144.725088 
L 125.254844 124.579063 
z
" clip-path="url(#p11e9426817)" style="fill: none; stroke: #292929; stroke-width: 0.5; stroke-linejoin: miter"/>
   </g>
   <g id="patch_142">
    <path d="M 125.254844 124.579063 
C 125.254844 124.579063 125.254844 124.579063 125.254844 124.579063 
C 125.254844 124.579063 125.254844 124.579063 125.254844 124.579063 
L 174.531652 165.019494 
C 175.855328 163.406591 177.099017 161.72967 178.258226 159.994791 
C 179.417436 158.259911 180.490769 156.469162 181.474349 154.629014 
L 125.254844 124.579063 
z
" clip-path="url(#p11e9426817)" style="fill: none; stroke: #292929; stroke-width: 0.5; stroke-linejoin: miter"/>
   </g>
   <g id="patch_143">
    <path d="M 125.254844 124.579063 
C 125.254844 124.579063 125.254844 124.579063 125.254844 124.579063 
C 125.254844 124.579063 125.254844 124.579063 125.254844 124.579063 
L 163.120245 170.718187 
C 164.630447 169.478796 166.078889 168.166005 167.460337 166.784556 
C 168.841786 165.403107 170.154577 163.954666 171.393968 162.444463 
L 125.254844 124.579063 
z
" clip-path="url(#p11e9426817)" style="fill: none; stroke: #292929; stroke-width: 0.5; stroke-linejoin: miter"/>
   </g>
   <g id="patch_144">
    <path d="M 125.254844 124.579063 
C 125.254844 124.579063 125.254844 124.579063 125.254844 124.579063 
C 125.254844 124.579063 125.254844 124.579063 125.254844 124.579063 
L 146.800814 164.888737 
C 148.12021 164.183506 149.404185 163.41392 150.648103 162.582761 
C 151.892021 161.751602 153.094381 160.85987 154.250841 159.910788 
L 125.254844 124.579063 
z
" clip-path="url(#p11e9426817)" style="fill: none; stroke: #292929; stroke-width: 0.5; stroke-linejoin: miter"/>
   </g>
   <g id="patch_145">
    <path d="M 125.254844 124.579063 
C 125.254844 124.579063 125.254844 124.579063 125.254844 124.579063 
C 125.254844 124.579063 125.254844 124.579063 125.254844 124.579063 
L 136.083966 160.277894 
C 137.252442 159.923441 138.402811 159.511832 139.530918 159.044555 
C 140.659025 158.577278 141.76351 158.054895 142.840384 157.479294 
L 125.254844 124.579063 
z
" clip-path="url(#p11e9426817)" style="fill: none; stroke: #292929; stroke-width: 0.5; stroke-linejoin: miter"/>
   </g>
   <g id="patch_146">
    <path d="M 125.254844 124.579063 
C 125.254844 124.579063 125.254844 124.579063 125.254844 124.579063 
C 125.254844 124.579063 125.254844 124.579063 125.254844 124.579063 
L 128.38526 156.362708 
C 129.425586 156.260245 130.460254 156.106766 131.485528 155.902827 
C 132.510801 155.698887 133.525444 155.444732 134.525791 155.14128 
L 125.254844 124.579063 
z
" clip-path="url(#p11e9426817)" style="fill: none; stroke: #292929; stroke-width: 0.5; stroke-linejoin: miter"/>
   </g>
   <g id="patch_147">
    <path d="M 125.254844 124.579063 
C 125.254844 124.579063 125.254844 124.579063 125.254844 124.579063 
C 125.254844 124.579063 125.254844 124.579063 125.254844 124.579063 
L 122.894911 148.539862 
C 123.679184 148.617106 124.466776 148.655798 125.254844 148.655798 
C 126.042911 148.655798 126.830504 148.617106 127.614777 148.539862 
L 125.254844 124.579063 
z
" clip-path="url(#p11e9426817)" style="fill: none; stroke: #292929; stroke-width: 0.5; stroke-linejoin: miter"/>
   </g>
   <g id="patch_148">
    <path d="M 125.254844 124.579063 
C 125.254844 124.579063 125.254844 124.579063 125.254844 124.579063 
C 125.254844 124.579063 125.254844 124.579063 125.254844 124.579063 
L 117.453604 150.296303 
C 118.295368 150.551649 119.149161 150.765513 120.0119 150.937122 
C 120.874638 151.108732 121.745283 151.237879 122.620688 151.324099 
L 125.254844 124.579063 
z
" clip-path="url(#p11e9426817)" style="fill: none; stroke: #292929; stroke-width: 0.5; stroke-linejoin: miter"/>
   </g>
   <g id="patch_149">
    <path d="M 125.254844 124.579063 
C 125.254844 124.579063 125.254844 124.579063 125.254844 124.579063 
C 125.254844 124.579063 125.254844 124.579063 125.254844 124.579063 
L 116.739989 140.509236 
C 117.261407 140.78794 117.796195 141.040876 118.34242 141.26713 
C 118.888645 141.493384 119.44565 141.692683 120.011422 141.864308 
L 125.254844 124.579063 
z
" clip-path="url(#p11e9426817)" style="fill: none; stroke: #292929; stroke-width: 0.5; stroke-linejoin: miter"/>
   </g>
   <g id="patch_150">
    <path d="M 125.254844 124.579063 
C 125.254844 124.579063 125.254844 124.579063 125.254844 124.579063 
C 125.254844 124.579063 125.254844 124.579063 125.254844 124.579063 
L 111.596367 141.221965 
C 112.141114 141.669027 112.707482 142.089074 113.293426 142.48059 
C 113.87937 142.872105 114.484182 143.234615 115.10568 143.566813 
L 125.254844 124.579063 
z
" clip-path="url(#p11e9426817)" style="fill: none; stroke: #292929; stroke-width: 0.5; stroke-linejoin: miter"/>
   </g>
   <g id="patch_151">
    <path d="M 125.254844 124.579063 
C 125.254844 124.579063 125.254844 124.579063 125.254844 124.579063 
C 125.254844 124.579063 125.254844 124.579063 125.254844 124.579063 
L 109.528062 137.485698 
C 109.950516 138.000459 110.397988 138.494169 110.868863 138.965044 
C 111.339737 139.435918 111.833447 139.88339 112.348208 140.305844 
L 125.254844 124.579063 
z
" clip-path="url(#p11e9426817)" style="fill: none; stroke: #292929; stroke-width: 0.5; stroke-linejoin: miter"/>
   </g>
   <g id="patch_152">
    <path d="M 125.254844 124.579063 
C 125.254844 124.579063 125.254844 124.579063 125.254844 124.579063 
C 125.254844 124.579063 125.254844 124.579063 125.254844 124.579063 
L 96.870703 139.750702 
C 97.367293 140.679757 97.909198 141.583872 98.494461 142.459779 
C 99.079723 143.335686 99.707638 144.182331 100.375936 144.996654 
L 125.254844 124.579063 
z
" clip-path="url(#p11e9426817)" style="fill: none; stroke: #292929; stroke-width: 0.5; stroke-linejoin: miter"/>
   </g>
   <g id="patch_153">
    <path d="M 125.254844 124.579063 
C 125.254844 124.579063 125.254844 124.579063 125.254844 124.579063 
C 125.254844 124.579063 125.254844 124.579063 125.254844 124.579063 
L 95.46161 133.616741 
C 95.757426 134.591918 96.100943 135.551984 96.49092 136.49347 
C 96.880896 137.434956 97.316862 138.356728 97.797242 139.255456 
L 125.254844 124.579063 
z
" clip-path="url(#p11e9426817)" style="fill: none; stroke: #292929; stroke-width: 0.5; stroke-linejoin: miter"/>
   </g>
   <g id="patch_154">
    <path d="M 125.254844 124.579063 
C 125.254844 124.579063 125.254844 124.579063 125.254844 124.579063 
C 125.254844 124.579063 125.254844 124.579063 125.254844 124.579063 
L 96.339766 127.426949 
C 96.432981 128.373383 96.572608 129.314669 96.758141 130.247409 
C 96.943675 131.180149 97.174891 132.103217 97.450956 133.01328 
L 125.254844 124.579063 
z
" clip-path="url(#p11e9426817)" style="fill: none; stroke: #292929; stroke-width: 0.5; stroke-linejoin: miter"/>
   </g>
   <g id="patch_155">
    <path d="M 125.254844 124.579063 
C 125.254844 124.579063 125.254844 124.579063 125.254844 124.579063 
C 125.254844 124.579063 125.254844 124.579063 125.254844 124.579063 
L 94.254044 121.52575 
C 94.154104 122.540453 94.104044 123.55945 94.104044 124.579062 
C 94.104044 125.598675 94.154104 126.617672 94.254044 127.632375 
L 125.254844 124.579063 
z
" clip-path="url(#p11e9426817)" style="fill: none; stroke: #292929; stroke-width: 0.5; stroke-linejoin: miter"/>
   </g>
   <g id="patch_156">
    <path d="M 125.254844 124.579063 
C 125.254844 124.579063 125.254844 124.579063 125.254844 124.579063 
C 125.254844 124.579063 125.254844 124.579063 125.254844 124.579063 
L 94.385697 115.215009 
C 94.079197 116.225402 93.82249 117.250235 93.616502 118.285805 
C 93.410515 119.321375 93.255495 120.366435 93.152002 121.417209 
L 125.254844 124.579063 
z
" clip-path="url(#p11e9426817)" style="fill: none; stroke: #292929; stroke-width: 0.5; stroke-linejoin: miter"/>
   </g>
   <g id="patch_157">
    <path d="M 125.254844 124.579063 
C 125.254844 124.579063 125.254844 124.579063 125.254844 124.579063 
C 125.254844 124.579063 125.254844 124.579063 125.254844 124.579063 
L 88.700833 105.040536 
C 88.061307 106.237004 87.480911 107.464149 86.96174 108.717539 
C 86.442568 109.97093 85.985248 111.249055 85.59143 112.547298 
L 125.254844 124.579063 
z
" clip-path="url(#p11e9426817)" style="fill: none; stroke: #292929; stroke-width: 0.5; stroke-linejoin: miter"/>
   </g>
   <g id="patch_158">
    <path d="M 125.254844 124.579063 
C 125.254844 124.579063 125.254844 124.579063 125.254844 124.579063 
C 125.254844 124.579063 125.254844 124.579063 125.254844 124.579063 
L 83.043501 89.937109 
C 81.909619 91.318749 80.844254 92.755227 79.851255 94.241355 
C 78.858257 95.727482 77.938822 97.261467 77.096271 98.837769 
L 125.254844 124.579063 
z
" clip-path="url(#p11e9426817)" style="fill: none; stroke: #292929; stroke-width: 0.5; stroke-linejoin: miter"/>
   </g>
   <g id="patch_159">
    <path d="M 125.254844 124.579063 
C 125.254844 124.579063 125.254844 124.579063 125.254844 124.579063 
C 125.254844 124.579063 125.254844 124.579063 125.254844 124.579063 
L 83.257655 73.40534 
C 81.582663 74.779971 79.976171 76.236011 78.443981 77.7682 
C 76.911792 79.30039 75.455752 80.906882 74.081122 82.581874 
L 125.254844 124.579063 
z
" clip-path="url(#p11e9426817)" style="fill: none; stroke: #292929; stroke-width: 0.5; stroke-linejoin: miter"/>
   </g>
   <g id="patch_160">
    <path d="M 125.254844 124.579063 
C 125.254844 124.579063 125.254844 124.579063 125.254844 124.579063 
C 125.254844 124.579063 125.254844 124.579063 125.254844 124.579063 
L 94.19319 66.466796 
C 92.291089 67.48349 90.440051 68.592959 88.646762 69.791196 
C 86.853473 70.989434 85.120096 72.274994 83.45289 73.643234 
L 125.254844 124.579063 
z
" clip-path="url(#p11e9426817)" style="fill: none; stroke: #292929; stroke-width: 0.5; stroke-linejoin: miter"/>
   </g>
   <g id="patch_161">
    <path d="M 125.254844 124.579063 
C 125.254844 124.579063 125.254844 124.579063 125.254844 124.579063 
C 125.254844 124.579063 125.254844 124.579063 125.254844 124.579063 
L 104.79221 57.122798 
C 102.584265 57.792571 100.410536 58.570344 98.278873 59.453307 
C 96.147209 60.336271 94.060182 61.323362 92.025329 62.411013 
L 125.254844 124.579063 
z
" clip-path="url(#p11e9426817)" style="fill: none; stroke: #292929; stroke-width: 0.5; stroke-linejoin: miter"/>
   </g>
   <g id="patch_162">
    <path d="M 125.254844 124.579063 
C 125.254844 124.579063 125.254844 124.579063 125.254844 124.579063 
C 125.254844 124.579063 125.254844 124.579063 125.254844 124.579063 
L 117.121784 42.002726 
C 114.418938 42.268933 111.73079 42.667682 109.067051 43.197532 
C 106.403312 43.727383 103.767193 44.387697 101.168215 45.176088 
L 125.254844 124.579063 
z
" clip-path="url(#p11e9426817)" style="fill: none; stroke: #292929; stroke-width: 0.5; stroke-linejoin: miter"/>
   </g>
   <g id="PathCollection_1">
    <defs>
     <path id="me80a53fd15" d="M 0.193618 7.414054 
L 0.193618 7.414054 
C 0.054922 7.414054 -0.078235 7.358899 -0.176308 7.260826 
C -0.274381 7.162753 -0.329536 7.029596 -0.329536 6.890901 
L -0.329536 5.365008 
L -1.528416 6.56393 
L -1.528416 6.56393 
C -1.577018 6.612704 -1.634775 6.651408 -1.698366 6.677814 
C -1.761958 6.704221 -1.830141 6.717815 -1.898997 6.717815 
C -1.967853 6.717815 -2.036037 6.704221 -2.099628 6.677814 
C -2.163219 6.651408 -2.220976 6.612704 -2.269578 6.56393 
L -2.269578 6.56393 
C -2.318353 6.515327 -2.357056 6.457571 -2.383463 6.393979 
C -2.409869 6.330388 -2.423463 6.262205 -2.423463 6.193348 
C -2.423463 6.124492 -2.409869 6.056309 -2.383463 5.992718 
C -2.357056 5.929126 -2.318353 5.87137 -2.269578 5.822767 
L -0.329536 3.884106 
L -0.329536 0.820937 
L -2.98067 2.351538 
L -3.691824 5.001416 
L -3.691824 5.001416 
C -3.727584 5.135411 -3.815199 5.249836 -3.93523 5.319305 
C -4.055261 5.388775 -4.198123 5.407741 -4.332122 5.371997 
L -4.332122 5.371997 
C -4.466126 5.336237 -4.580558 5.248616 -4.650029 5.128576 
C -4.719499 5.008535 -4.73846 4.865662 -4.702703 4.731657 
L -4.262647 3.092721 
L -5.585535 3.855668 
L -5.585535 3.855668 
C -5.645013 3.890144 -5.710708 3.912561 -5.778854 3.921634 
C -5.847001 3.930706 -5.916272 3.926258 -5.982698 3.908543 
C -6.049125 3.890828 -6.111412 3.860192 -6.165991 3.818391 
C -6.220571 3.77659 -6.266379 3.724437 -6.300791 3.664922 
L -6.300791 3.664922 
C -6.335212 3.605364 -6.35755 3.539597 -6.366524 3.471396 
C -6.375498 3.403194 -6.370933 3.333888 -6.35309 3.267452 
C -6.335248 3.201017 -6.304476 3.138749 -6.26254 3.08422 
C -6.220605 3.029692 -6.168323 2.983966 -6.108695 2.949666 
L -4.785807 2.186762 
L -6.424743 1.746706 
L -6.424743 1.746706 
C -6.558747 1.710946 -6.673179 1.623325 -6.74265 1.503284 
C -6.81212 1.383244 -6.831081 1.240371 -6.795324 1.106366 
L -6.795324 1.106366 
C -6.777471 1.039969 -6.746703 0.977739 -6.704784 0.923241 
C -6.662864 0.868744 -6.61061 0.823041 -6.551015 0.788752 
C -6.491421 0.754464 -6.425647 0.732257 -6.357465 0.723406 
C -6.289282 0.714554 -6.220019 0.71923 -6.153645 0.737166 
L -3.505232 1.44698 
L -0.852424 -0.08496 
L -3.503767 -1.615666 
L -6.153645 -0.905851 
L -6.153645 -0.905851 
C -6.22011 -0.887939 -6.289462 -0.883321 -6.357716 -0.892262 
C -6.42597 -0.901202 -6.491793 -0.923527 -6.551403 -0.957953 
C -6.611013 -0.992379 -6.663247 -1.038234 -6.705103 -1.092883 
C -6.746958 -1.147533 -6.777619 -1.209911 -6.795324 -1.276432 
L -6.795324 -1.276432 
C -6.831068 -1.410431 -6.812101 -1.553293 -6.742632 -1.673324 
C -6.673162 -1.793355 -6.558738 -1.88097 -6.424743 -1.91673 
L -4.785807 -2.355447 
L -6.108695 -3.119732 
L -6.108695 -3.119732 
C -6.228699 -3.188976 -6.316415 -3.303132 -6.352417 -3.436921 
C -6.388419 -3.57071 -6.369839 -3.713469 -6.300791 -3.833586 
L -6.300791 -3.833586 
C -6.266491 -3.893214 -6.220765 -3.945496 -6.166237 -3.987431 
C -6.111708 -4.029367 -6.04944 -4.060139 -5.983005 -4.077981 
C -5.91657 -4.095823 -5.847263 -4.100389 -5.779062 -4.091415 
C -5.71086 -4.082441 -5.645094 -4.060102 -5.585535 -4.025682 
L -4.262647 -3.261396 
L -4.702703 -4.900332 
L -4.702703 -4.900332 
C -4.73846 -5.034337 -4.719499 -5.17721 -4.650029 -5.29725 
C -4.580558 -5.417291 -4.466126 -5.504912 -4.332122 -5.540672 
L -4.332122 -5.540672 
C -4.19831 -5.576464 -4.055613 -5.557686 -3.935617 -5.488496 
C -3.81562 -5.419305 -3.727882 -5.305212 -3.691824 -5.171472 
L -2.982009 -2.521594 
L -0.329411 -0.990302 
L -0.329411 -4.051588 
L -2.269453 -5.991589 
L -2.269453 -5.991589 
C -2.318227 -6.040191 -2.356931 -6.097947 -2.383337 -6.161539 
C -2.409744 -6.22513 -2.423338 -6.293314 -2.423338 -6.36217 
C -2.423338 -6.431026 -2.409744 -6.499209 -2.383337 -6.5628 
C -2.356931 -6.626392 -2.318227 -6.684149 -2.269453 -6.732751 
L -2.269453 -6.732751 
C -2.22085 -6.781526 -2.163094 -6.820229 -2.099502 -6.846635 
C -2.035911 -6.873042 -1.967728 -6.886636 -1.898871 -6.886636 
C -1.830015 -6.886636 -1.761832 -6.873042 -1.698241 -6.846635 
C -1.634649 -6.820229 -1.576893 -6.781526 -1.52829 -6.732751 
L -0.329411 -5.533829 
L -0.329411 -7.059722 
L -0.329411 -7.059722 
C -0.329411 -7.198418 -0.274255 -7.331575 -0.176182 -7.429647 
C -0.07811 -7.52772 0.055047 -7.582875 0.193743 -7.582875 
L 0.193743 -7.582875 
C 0.332439 -7.582875 0.465596 -7.52772 0.563669 -7.429647 
C 0.661741 -7.331575 0.716897 -7.198418 0.716897 -7.059722 
L 0.716897 -5.533829 
L 1.915777 -6.732751 
L 1.915777 -6.732751 
C 1.964379 -6.781526 2.022136 -6.820229 2.085727 -6.846635 
C 2.149318 -6.873042 2.217502 -6.886636 2.286358 -6.886636 
C 2.355214 -6.886636 2.423397 -6.873042 2.486989 -6.846635 
C 2.55058 -6.820229 2.608337 -6.781526 2.656939 -6.732751 
L 2.656939 -6.732751 
C 2.705714 -6.684149 2.744417 -6.626392 2.770823 -6.5628 
C 2.79723 -6.499209 2.810824 -6.431026 2.810824 -6.36217 
C 2.810824 -6.293314 2.79723 -6.22513 2.770823 -6.161539 
C 2.744417 -6.097947 2.705714 -6.040191 2.656939 -5.991589 
L 0.716897 -4.051588 
L 0.716897 -0.991139 
L 3.369495 -2.522954 
L 4.07931 -5.171367 
L 4.07931 -5.171367 
C 4.115368 -5.305107 4.203106 -5.4192 4.323103 -5.488391 
C 4.4431 -5.557582 4.585797 -5.576359 4.719608 -5.540567 
L 4.719608 -5.540567 
C 4.853612 -5.504807 4.968045 -5.417186 5.037515 -5.297146 
C 5.106986 -5.177105 5.125946 -5.034232 5.090189 -4.900227 
L 4.650133 -3.262673 
L 5.973022 -4.025577 
L 5.973022 -4.025577 
C 6.03258 -4.059998 6.098346 -4.082336 6.166548 -4.09131 
C 6.234749 -4.100284 6.304056 -4.095719 6.370491 -4.077876 
C 6.436926 -4.060034 6.499194 -4.029262 6.553723 -3.987327 
C 6.608252 -3.945391 6.653978 -3.893109 6.688277 -3.833481 
L 6.688277 -3.833481 
C 6.757325 -3.713365 6.775905 -3.570605 6.739903 -3.436816 
C 6.703901 -3.303027 6.616186 -3.188871 6.496181 -3.119628 
L 5.173293 -2.355342 
L 6.812229 -1.916625 
L 6.812229 -1.916625 
C 6.946224 -1.880865 7.060649 -1.79325 7.130118 -1.67322 
C 7.199588 -1.553189 7.218554 -1.410326 7.18281 -1.276327 
L 7.18281 -1.276327 
C 7.165106 -1.209806 7.134445 -1.147429 7.092589 -1.092779 
C 7.050733 -1.038129 6.998499 -0.992274 6.938889 -0.957848 
C 6.879279 -0.923422 6.813456 -0.901098 6.745202 -0.892157 
C 6.676949 -0.883217 6.607597 -0.887835 6.541131 -0.905746 
L 3.891253 -1.615561 
L 1.239492 -0.084604 
L 3.892718 1.447085 
L 6.541131 0.73727 
L 6.541131 0.73727 
C 6.674948 0.701466 6.817656 0.720237 6.937662 0.789429 
C 7.057669 0.858621 7.145413 0.972721 7.181471 1.10647 
L 7.181471 1.10647 
C 7.217274 1.240293 7.198497 1.383006 7.129297 1.503014 
C 7.060096 1.623021 6.945986 1.710762 6.812229 1.74681 
L 5.173293 2.186866 
L 6.496181 2.949771 
L 6.496181 2.949771 
C 6.555697 2.984183 6.607849 3.029991 6.649651 3.08457 
C 6.691452 3.13915 6.722088 3.201437 6.739803 3.267863 
C 6.757517 3.33429 6.761966 3.403561 6.752893 3.471707 
C 6.743821 3.539854 6.721404 3.605549 6.686927 3.665026 
L 6.686927 3.665026 
C 6.617458 3.784813 6.503196 3.87225 6.369416 3.907994 
C 6.235636 3.943739 6.092989 3.924946 5.973032 3.855772 
L 4.650144 3.091487 
L 5.08886 4.731783 
L 5.08886 4.731783 
C 5.124664 4.865606 5.105887 5.008319 5.036686 5.128326 
C 4.967486 5.248334 4.853376 5.336074 4.719619 5.372123 
L 4.719619 5.372123 
C 4.585619 5.407867 4.442757 5.3889 4.322726 5.319431 
C 4.202695 5.249961 4.115081 5.135537 4.07932 5.001542 
L 3.368166 2.351664 
L 0.717033 0.821063 
L 0.717033 3.884232 
L 2.657075 5.822893 
L 2.657075 5.822893 
C 2.70585 5.871495 2.744553 5.929252 2.770959 5.992843 
C 2.797366 6.056435 2.81096 6.124618 2.81096 6.193474 
C 2.81096 6.26233 2.797366 6.330514 2.770959 6.394105 
C 2.744553 6.457696 2.70585 6.515453 2.657075 6.564055 
L 2.657075 6.564055 
C 2.608473 6.61283 2.550716 6.651533 2.487125 6.67794 
C 2.423533 6.704346 2.35535 6.71794 2.286494 6.71794 
C 2.217638 6.71794 2.149454 6.704346 2.085863 6.67794 
C 2.022272 6.651533 1.964515 6.61283 1.915913 6.564055 
L 0.717033 5.365133 
L 0.717033 6.891026 
L 0.717033 6.891026 
C 0.717033 7.029722 0.661877 7.162879 0.563805 7.260952 
C 0.465732 7.359024 0.332575 7.41418 0.193879 7.41418 
L 0.193618 7.414054 
z
"/>
    </defs>
    <g clip-path="url(#p11e9426817)">
     <use xlink:href="#me80a53fd15" x="168.104125" y="77.100641" style="fill: #9e2096; fill-opacity: 0.7"/>
    </g>
   </g>
   <g id="patch_163">
    <path d="M 125.254844 13.699063 
C 110.694216 13.699063 96.275171 16.567189 82.822905 22.1393 
C 69.370638 27.711411 57.146763 35.879144 46.850844 46.175063 
C 36.554925 56.470982 28.387192 68.694857 22.815081 82.147124 
C 17.24297 95.59939 14.374844 110.018434 14.374844 124.579063 
C 14.374844 139.139691 17.24297 153.558735 22.815081 167.011001 
C 28.387192 180.463268 36.554925 192.687143 46.850844 202.983062 
C 57.146763 213.278981 69.370638 221.446714 82.822905 227.018825 
C 96.275171 232.590936 110.694216 235.459063 125.254844 235.459063 
C 139.815472 235.459063 154.234516 232.590936 167.686783 227.018825 
C 181.139049 221.446714 193.362925 213.278981 203.658844 202.983062 
C 213.954763 192.687143 222.122495 180.463268 227.694606 167.011001 
C 233.266717 153.558735 236.134844 139.139691 236.134844 124.579063 
C 236.134844 110.018434 233.266717 95.59939 227.694606 82.147124 
C 222.122495 68.694857 213.954763 56.470982 203.658844 46.175063 
C 193.362925 35.879144 181.139049 27.711411 167.686783 22.1393 
C 154.234516 16.567189 139.815472 13.699063 125.254844 13.699063 
" style="fill: none; stroke: #000000; stroke-width: 0.8; stroke-linejoin: miter; stroke-linecap: square"/>
   </g>
  </g>
 </g>
 <defs>
  <clipPath id="p11e9426817">
   <path d="M 236.134844 124.579063 
C 236.134844 110.018434 233.266717 95.59939 227.694606 82.147124 
C 222.122495 68.694857 213.954763 56.470982 203.658844 46.175063 
C 193.362925 35.879144 181.139049 27.711411 167.686783 22.1393 
C 154.234516 16.567189 139.815472 13.699063 125.254844 13.699063 
C 110.694216 13.699063 96.275171 16.567189 82.822905 22.1393 
C 69.370638 27.711411 57.146763 35.879144 46.850844 46.175063 
C 36.554925 56.470982 28.387192 68.694857 22.815081 82.147124 
C 17.24297 95.59939 14.374844 110.018434 14.374844 124.579062 
C 14.374844 139.139691 17.24297 153.558735 22.815081 167.011001 
C 28.387192 180.463268 36.554925 192.687143 46.850844 202.983062 
C 57.146763 213.278981 69.370638 221.446714 82.822905 227.018825 
C 96.275171 232.590936 110.694216 235.459063 125.254844 235.459063 
C 139.815472 235.459063 154.234516 232.590936 167.686783 227.018825 
C 181.139049 221.446714 193.362925 213.278981 203.658844 202.983062 
C 213.954763 192.687143 222.122495 180.463268 227.694606 167.011001 
C 233.266717 153.558735 236.134844 139.139691 236.134844 124.579063 
M 125.254844 124.579063 
C 125.254844 124.579063 125.254844 124.579063 125.254844 124.579063 
C 125.254844 124.579063 125.254844 124.579063 125.254844 124.579063 
C 125.254844 124.579063 125.254844 124.579063 125.254844 124.579063 
C 125.254844 124.579063 125.254844 124.579063 125.254844 124.579063 
C 125.254844 124.579063 125.254844 124.579063 125.254844 124.579063 
C 125.254844 124.579063 125.254844 124.579063 125.254844 124.579063 
C 125.254844 124.579063 125.254844 124.579063 125.254844 124.579063 
C 125.254844 124.579063 125.254844 124.579063 125.254844 124.579063 
C 125.254844 124.579063 125.254844 124.579063 125.254844 124.579063 
C 125.254844 124.579063 125.254844 124.579063 125.254844 124.579063 
C 125.254844 124.579063 125.254844 124.579063 125.254844 124.579063 
C 125.254844 124.579063 125.254844 124.579063 125.254844 124.579063 
C 125.254844 124.579063 125.254844 124.579063 125.254844 124.579063 
C 125.254844 124.579063 125.254844 124.579063 125.254844 124.579063 
C 125.254844 124.579063 125.254844 124.579063 125.254844 124.579063 
C 125.254844 124.579063 125.254844 124.579063 125.254844 124.579063 
z
"/>
  </clipPath>
 </defs>
</svg>
